<?xml version="1.0" encoding="UTF-8"?>
<svg id="Layer_1" xmlns="http://www.w3.org/2000/svg" version="1.1" viewBox="0 0 204 68">
  <!-- Generator: Adobe Illustrator 30.2.1, SVG Export Plug-In . SVG Version: 2.1.1 Build 1)  -->
  <defs>
    <style>
      .st0 {
        fill: #fff;
      }
    </style>
  </defs>
  <path class="st0" d="M28,18.4c0,3.9-2.8,6.4-7.3,6.4h-9.3v-12.8h9.3c4.6,0,7.3,2.4,7.3,6.4ZM28.9,33.2c6.6-2.2,10.6-7.7,10.6-14.9S32.5,2,22.5,2H.7c-.4,0-.7.3-.7.7v51c0,.4.3.7.7.7h10c.4,0,.7-.3.7-.7v-19h6l9.8,19.3c.1.2.3.4.6.4h11.1c.2,0,.5-.1.6-.3.1-.2.1-.5,0-.7l-10.6-20.1Z"/>
  <path class="st0" d="M51.6,9.6c-3.6,0-6.6,3-6.6,6.6s3,6.5,6.6,6.5,6.6-2.9,6.6-6.5-2.9-6.6-6.6-6.6Z"/>
  <path class="st0" d="M56.4,27.2h-9.6c-.4,0-.7.3-.7.7v25.8c0,.4.3.7.7.7h9.6c.4,0,.7-.3.7-.7v-25.8c0-.4-.3-.7-.7-.7Z"/>
  <path class="st0" d="M76.2,17.6h-9.6c-.4,0-.7.3-.7.7v35.4c0,.4.3.7.7.7h9.6c.4,0,.7-.3.7-.7V18.3c0-.4-.3-.7-.7-.7Z"/>
  <path class="st0" d="M71.4,0c-3.6,0-6.6,3-6.6,6.6s3,6.5,6.6,6.5,6.6-2.9,6.6-6.5-2.9-6.6-6.6-6.6Z"/>
  <path class="st0" d="M112.8,36c0,5.6-3.3,9.3-8.1,9.3s-8.2-3.8-8.2-9.3,3.3-9.3,8.2-9.3,8.1,3.7,8.1,9.3ZM106.6,16.8c-4.1,0-7.9,1.4-10.2,3.8v-2.3c0-.4-.3-.7-.7-.7h-9.3c-.4,0-.7.3-.7.7v49.1c0,.4.3.7.7.7h9.6c.4,0,.7-.3.7-.7v-15.4c2.2,2.1,5.7,3.2,9.5,3.2,10.2,0,17.4-7.9,17.4-19.3s-6.8-19.1-17-19.1Z"/>
  <path class="st0" d="M138.2,31.2c.5-2.8,3.1-5.6,7.2-5.6s6.8,2.8,7.2,5.6h-14.3ZM145.2,16.5c-4.7,0-9.2,1.9-12.6,5.3-3.5,3.6-5.5,8.6-5.5,14s2,10.8,5.7,14.4c3.5,3.3,8.2,5.2,13.2,5.2,9.8,0,15.1-6,16.8-11.7.1-.4,0-.7-.5-.8l-8-2.4c-.3-.1-.7,0-.8.4-1.2,3.3-3.7,5-7.4,5s-7.6-2.8-8.2-6.7h24.6c.4,0,.7-.3.7-.7,0,0,0-.1,0-.3,0-.5.1-1.6.1-2.7,0-11.7-7-19-18.2-19Z"/>
  <path class="st0" d="M189.8,16.6c-3.1,0-6.9,1.1-9.5,3.9v-2.3c0-.4-.3-.7-.7-.7h-9.3c-.4,0-.7.3-.7.7v35.4c0,.4.3.7.7.7h9.6c.4,0,.7-.3.7-.7v-20.4c0-3.3,1.8-6.7,5.9-6.7s5.9,4,5.9,6.4v20.6c0,.4.3.7.7.7h9.6c.4,0,.7-.3.7-.7v-22.3c0-9.1-5.2-14.7-13.5-14.7Z"/>
</svg>