<?xml version="1.0" encoding="UTF-8"?>
<svg id="Layer_1" xmlns="http://www.w3.org/2000/svg" xmlns:xlink="http://www.w3.org/1999/xlink" version="1.1" viewBox="0 0 185 65">
  <!-- Generator: Adobe Illustrator 30.2.1, SVG Export Plug-In . SVG Version: 2.1.1 Build 1)  -->
  <defs>
    <style>
      .st0 {
        mask: url(#mask);
      }

      .st1 {
        fill-rule: evenodd;
      }

      .st1, .st2 {
        fill: #fff;
      }
    </style>
    <mask id="mask" x="22.4" y="8.1" width="7.5" height="48.5" maskUnits="userSpaceOnUse">
      <g id="a">
        <path class="st2" d="M22.4,8.1h7.5v48.5h-7.5V8.1Z"/>
      </g>
    </mask>
  </defs>
  <g class="st0">
    <path class="st1" d="M27.6,48.7c-.6-.7-.8-1.7-.8-2.6,0-1.1.2-2.2,1-3,.8-.9,1.8-1.7,2-2.9.1-1,.2-2-.3-2.9-.6-1.2-1.9-1.8-2.3-3.1-.5-1.2-.5-2.6,0-3.8.5-1.4,2.1-2.2,2.6-3.6.3-.9.3-2,0-2.9-.5-1.4-2.1-2.2-2.6-3.6-.5-1.3-.5-2.9.4-4.1.4-.6,1-1,1.4-1.6.9-1.1,1-2.5.8-3.9-.4-1.9-2.5-3.2-4.4-2.7-1.1.2-2,.9-2.6,1.9-.8,1.4-.5,3.3.6,4.5.6.7,1.3,1.3,1.7,2.2.4.9.3,1.9.3,2.9-.1,1.4-1.2,2.3-2.1,3.3-1.1,1.1-1.2,2.8-.7,4.2.5,1.3,1.8,2,2.4,3.2.5.8.4,1.8.4,2.8,0,.8-.4,1.6-.9,2.2-.6.8-1.4,1.3-1.8,2.2-.5,1.1-.5,2.4,0,3.5.6,1.1,1.7,1.8,2.3,2.9.5,1,.4,2.1.4,3.2-.2,1.3-1.2,2.3-2.1,3.2-1.3,1.4-1.2,3.9.2,5.2.8.8,1.9,1.2,3,1.1,1.1,0,2.1-.7,2.7-1.5.7-1,.8-2.4.5-3.6-.4-1.1-1.4-1.8-2.1-2.7Z"/>
  </g>
  <g>
    <path class="st1" d="M21.6,43.6c-.7-.8-1.6-1.5-2-2.5-.5-1.2-.5-2.7,0-3.9.4-.9,1.1-1.5,1.7-2.2.5-.6.9-1.3,1-2.2,0-.8,0-1.6-.3-2.4-.5-1.1-1.7-1.8-2.2-2.9-.6-1.2-.6-2.6-.2-3.8.3-.9.9-1.6,1.6-2.3.8-.8,1.3-1.8,1.2-2.9,0-1.2-.6-2.5-1.6-3.2-.8-.6-1.9-.7-2.9-.6-1,.2-2,.9-2.5,1.8-.6.9-.6,2.1-.4,3.1.4,1.5,1.9,2.2,2.6,3.6.6,1.3.5,2.9,0,4.2-.6,1.2-1.8,1.9-2.3,3.1-.3.7-.3,1.4-.2,2.2,0,.7.3,1.4.8,1.9.6.8,1.4,1.4,1.9,2.3.6,1.3.6,2.9,0,4.2-.6,1.3-2.2,2.1-2.5,3.5-.2,1-.2,2.1.3,3,.7,1.1,1.9,1.9,3.3,1.9,1.7,0,3.3-1.3,3.7-2.9.1-1.1,0-2.3-.7-3.2ZM34.5,40.8c-.3-1.2-.3-2.4.1-3.6.5-1.2,1.8-1.9,2.3-3.1.5-1.1.6-2.4,0-3.6-.6-1.3-1.9-2-2.4-3.3-.4-1.1-.4-2.4,0-3.6.4-1.1,1.4-1.8,2-2.7.8-1.1,1-2.5.5-3.7-.6-1.7-2.6-2.7-4.3-2.3-1.3.3-2.5,1.4-2.8,2.7-.2.8-.2,1.6.1,2.4.6,1.5,2.3,2.3,2.7,3.9.3,1.1.3,2.4-.2,3.5-.6,1.2-1.8,1.9-2.4,3.2-.4,1-.4,2.1-.1,3.1.5,1.5,2.2,2.3,2.7,3.8.3,1.1.3,2.3,0,3.4-.5,1.4-2,2.2-2.6,3.5-.4,1.1-.4,2.4.2,3.5.5.8,1.2,1.4,2.1,1.7,1.1.4,2.4.2,3.3-.5.9-.6,1.5-1.6,1.6-2.7.1-1.1-.3-2.3-1.1-3.1-.7-.7-1.5-1.4-1.8-2.5Z"/>
    <path class="st1" d="M41.8,33.2c0-.9-.1-2,.3-2.8.6-1.3,2-2,2.5-3.4.5-1.4.2-3.1-1-4.2-.9-.9-2.3-1.1-3.5-.9-1,.3-1.9,1-2.4,1.9-.4.8-.5,1.8-.3,2.7.2,1.2,1.2,2,2,2.8,1.2,1.3,1.3,3.2.8,4.8-.5,1.4-1.9,2.1-2.5,3.3-.4.7-.4,1.5-.3,2.3.2,1.4,1.3,2.6,2.6,3,1,.3,2.2.1,3.2-.5.8-.5,1.4-1.4,1.6-2.4.3-1.3-.1-2.6-1.1-3.6-.9-.9-1.8-1.9-1.9-3.2Z"/>
    <path class="st1" d="M52.2,32.3c-.4-2-2.8-3.4-4.8-2.7-1.5.5-2.6,1.9-2.6,3.4-.2,1.8,1.3,3.4,3.1,3.7,1.6.3,3.3-.5,4-2,.4-.8.5-1.7.3-2.5ZM14.6,37.5c-.4-1-1.4-1.6-2-2.5-.9-1.3-.9-3.1-.4-4.6.5-1.3,2-2,2.4-3.3.3-.8.4-1.6.2-2.4-.3-1.4-1.5-2.5-2.9-2.8-.7,0-1.4,0-2.1.2-1.5.5-2.5,2.1-2.4,3.7,0,1.3.9,2.4,1.8,3.3.5.5.9,1.2,1.2,1.8.2,1.1.2,2.3-.2,3.3-.6,1.4-2,2.1-2.6,3.5-.3.6-.2,1.4-.2,2.1.2,1.3,1.2,2.5,2.5,2.9.6.2,1.3.2,2,.1,1.4-.3,2.6-1.4,2.8-2.8.2-.8,0-1.7-.2-2.5Z"/>
    <path class="st1" d="M7.5,33c0-1.5-1.1-2.9-2.5-3.4-.8-.3-1.7-.3-2.5,0-.8.3-1.5.8-2,1.5-.5.9-.8,1.9-.5,2.9.3,1.2,1.2,2.1,2.3,2.6,1.4.6,3.2,0,4.2-1.1.6-.7.9-1.6.9-2.5Z"/>
    <path class="st1" d="M79.2,33.8c.8,0,1.6-.2,2.3-.5.7-.3,1.3-.8,1.7-1.3s.8-1.2,1.1-1.9c.3-.7.4-1.5.4-2.3s-.1-1.6-.4-2.3c-.3-.7-.6-1.3-1.1-1.9-.5-.5-1.1-1-1.7-1.3-.7-.3-1.5-.5-2.3-.5h-5.7v11.8h5.7ZM68.7,17.7h10.6c1.6,0,3,.3,4.3.8,1.3.5,2.4,1.3,3.3,2.2.9.9,1.6,2,2.1,3.3.5,1.2.7,2.5.7,3.9s-.2,2.7-.7,3.9-1.2,2.3-2.1,3.2c-.9.9-2,1.7-3.3,2.2-1.3.5-2.7.8-4.3.8h-5.7v8.7h-4.8v-29.1ZM101.1,43.3c.9,0,1.7-.2,2.4-.5.7-.3,1.3-.8,1.8-1.3.5-.6.9-1.2,1.2-2,.3-.7.4-1.5.4-2.4s-.1-1.6-.4-2.4c-.3-.7-.7-1.4-1.2-2-.5-.6-1.1-1-1.8-1.3-.7-.3-1.5-.5-2.4-.5s-1.7.2-2.4.5c-.7.3-1.3.8-1.8,1.3-.5.6-.9,1.2-1.2,2-.3.7-.4,1.5-.4,2.4s.1,1.6.4,2.4c.3.7.7,1.4,1.2,2,.5.6,1.1,1,1.8,1.3.7.3,1.5.5,2.4.5ZM111.5,27.5v19.4h-4.6v-2.6c-.6,1-1.5,1.7-2.6,2.3-1.1.6-2.3.8-3.4.8s-2.8-.3-4.1-.8c-1.2-.5-2.3-1.3-3.2-2.2-.9-.9-1.6-2-2.1-3.2-.5-1.2-.7-2.5-.7-3.9s.2-2.7.7-3.9c.5-1.2,1.2-2.3,2.1-3.3.9-.9,1.9-1.7,3.2-2.2,1.2-.5,2.6-.8,4.1-.8s2.3.3,3.4.8c1.1.6,2,1.3,2.6,2.3v-2.6h4.6ZM127.2,43.3c.9,0,1.7-.2,2.4-.5.7-.3,1.3-.8,1.8-1.3s.9-1.2,1.2-2,.4-1.5.4-2.4-.1-1.6-.4-2.4-.7-1.4-1.2-2c-.5-.6-1.1-1-1.8-1.3-.7-.3-1.5-.5-2.4-.5s-1.7.2-2.4.5c-.7.3-1.3.8-1.8,1.3-.5.6-.9,1.2-1.2,2s-.4,1.5-.4,2.4.1,1.6.4,2.4.7,1.4,1.2,2,1.1,1,1.8,1.3c.7.3,1.5.5,2.4.5ZM121.4,46.9h-4.6v-29.1h4.6v12.4c.6-1,1.5-1.7,2.6-2.3,1.1-.6,2.3-.8,3.4-.8s2.8.3,4.1.8c1.2.5,2.3,1.3,3.2,2.2.9.9,1.6,2,2.1,3.3.5,1.2.7,2.5.7,3.9s-.2,2.7-.7,3.9c-.5,1.2-1.2,2.3-2.1,3.2-.9.9-1.9,1.7-3.2,2.2-1.2.5-2.6.8-4.1.8s-2.3-.3-3.4-.8c-1.1-.6-2-1.3-2.6-2.3v2.6ZM151.1,43.3c.9,0,1.7-.2,2.4-.5.7-.3,1.3-.8,1.8-1.3.5-.6.9-1.2,1.2-2,.3-.7.4-1.5.4-2.4s-.1-1.6-.4-2.4c-.3-.7-.7-1.4-1.2-2-.5-.6-1.1-1-1.8-1.3-.7-.3-1.5-.5-2.4-.5s-1.7.2-2.4.5c-.7.3-1.3.8-1.8,1.3-.5.6-.9,1.2-1.2,2s-.4,1.5-.4,2.4.1,1.6.4,2.4.7,1.4,1.2,2,1.1,1,1.8,1.3c.7.3,1.5.5,2.4.5ZM161.5,27.5v19.4h-4.6v-2.6c-.6,1-1.5,1.7-2.6,2.3-1.1.6-2.3.8-3.4.8s-2.8-.3-4.1-.8c-1.2-.5-2.3-1.3-3.2-2.2-.9-.9-1.6-2-2.1-3.2-.5-1.2-.7-2.5-.7-3.9s.2-2.7.7-3.9c.5-1.2,1.2-2.3,2.1-3.3.9-.9,1.9-1.7,3.2-2.2,1.2-.5,2.6-.8,4.1-.8s2.3.3,3.4.8c1.1.6,2,1.3,2.6,2.3v-2.6h4.6ZM184.6,27.5v19.4h-4.6v-2.7c-.6,1.1-1.5,1.9-2.6,2.4-1.1.5-2.4.8-3.8.8s-2.6-.2-3.6-.7c-1-.5-1.7-1.1-2.3-1.9-.5-.7-.8-1.5-1-2.4-.2-.9-.3-2-.3-3.3v-11.5h4.6v10c0,.8,0,1.6.2,2.3.1.7.4,1.3.7,1.9.3.5.8.9,1.3,1.2.5.3,1.2.5,2,.5,1.6,0,2.8-.6,3.6-1.7.8-1.1,1.2-2.5,1.2-4.2v-10h4.6Z"/>
  </g>
</svg>