<?xml version="1.0" encoding="UTF-8"?>
<svg id="Layer_1" xmlns="http://www.w3.org/2000/svg" version="1.1" viewBox="0 0 132 41">
  <!-- Generator: Adobe Illustrator 30.2.1, SVG Export Plug-In . SVG Version: 2.1.1 Build 1)  -->
  <defs>
    <style>
      .st0 {
        fill-rule: evenodd;
      }

      .st0, .st1 {
        fill: #fff;
      }
    </style>
  </defs>
  <path class="st0" d="M106.2,12.3c1.6,0,2.8-1.2,2.8-2.7s-1.3-2.7-2.8-2.7-2.8,1.2-2.8,2.7,1.3,2.7,2.8,2.7ZM96.2,19.1v7.9c0,.4.2.8.5,1.1.3.3.7.5,1.1.5h2.9v4.2h-4.3c-.7,0-1.4-.1-2-.4-.6-.3-1.2-.6-1.7-1.1-.5-.5-.9-1-1.1-1.6-.3-.6-.4-1.3-.4-1.9V11l4.9-1.4v5h4.1v4.5h-4.1ZM103.8,14.6h4.9v18.1h-4.9V14.6ZM122,14.1c-2,0-3.9.6-5.5,1.6-1.6,1.1-2.9,2.6-3.7,4.3-.8,1.8-1,3.7-.6,5.6.4,1.9,1.3,3.6,2.7,4.9,1.4,1.3,3.2,2.3,5.1,2.6,1.9.4,3.9.2,5.8-.5,1.8-.7,3.4-2,4.5-3.5,1.1-1.6,1.7-3.4,1.7-5.3,0-1.3-.3-2.5-.8-3.7-.5-1.2-1.2-2.2-2.2-3.1-.9-.9-2-1.6-3.2-2.1-1.2-.5-2.5-.7-3.8-.7ZM122,28.6c-1,0-2-.3-2.9-.8-.8-.5-1.5-1.3-1.9-2.2-.4-.9-.5-1.9-.3-2.9.2-1,.7-1.8,1.4-2.5.7-.7,1.6-1.2,2.6-1.4,1-.2,2,0,3,.3.9.4,1.7,1,2.3,1.8.6.8.9,1.8.9,2.8,0,1.3-.5,2.6-1.5,3.5-1,.9-2.3,1.4-3.6,1.5ZM82.7,17v-2.3h4.9v18.2h-4.9v-2.3c-.8.9-1.8,1.6-2.9,2.1-1.1.5-2.3.7-3.5.8-4.9,0-8.9-4.3-8.9-9.6s4-9.6,8.9-9.6c1.2,0,2.4.3,3.5.8,1.1.5,2.1,1.2,2.9,2.1ZM74.7,27.8c.8.5,1.8.8,2.9.8,1.4,0,2.7-.5,3.6-1.4s1.5-2.2,1.5-3.5c0-1-.3-1.9-.9-2.8-.6-.8-1.4-1.5-2.3-1.8-.9-.4-2-.5-3-.3-1,.2-1.9.7-2.6,1.4-.7.7-1.2,1.6-1.4,2.5-.2,1,0,2,.3,2.9.4.9,1.1,1.7,1.9,2.2ZM66.5,32.8h-5.5l-5.2-8.8h-5.5v8.7h-4.9V7.2h11.7c1.1,0,2.3.2,3.3.6,1,.4,2,1,2.8,1.8.8.8,1.4,1.7,1.9,2.7.4,1,.7,2.1.7,3.2h0c0,1.7-.4,3.2-1.3,4.6-.9,1.3-2.1,2.4-3.6,3.1l5.7,9.5ZM56.9,12.1h-6.7v7.2h6.7c1,0,1.9-.4,2.6-1,.7-.7,1.1-1.6,1.1-2.5h0c0-1-.4-1.9-1.1-2.6-.7-.7-1.6-1-2.6-1Z"/>
  <path class="st1" d="M32.2,40c-.5,0-1.1-.1-1.6-.3-.5-.2-.9-.6-1.3-1l-11.2-13.4c-.6-.7-.9-1.7-.8-2.6s.6-1.8,1.4-2.4c.8-.6,1.7-.9,2.7-.8,1,.1,1.9.6,2.5,1.3l11.2,13.4c.4.5.7,1.2.8,1.8,0,.7,0,1.3-.3,1.9-.3.6-.8,1.1-1.4,1.5-.6.4-1.3.5-2,.5h0Z"/>
  <path class="st1" d="M18.3,40c-.6,0-1.1-.1-1.6-.4-.5-.2-.9-.6-1.3-1l-6.2-7.6c-.3-.4-.6-.8-.7-1.2-.1-.5-.2-.9-.1-1.4,0-.5.2-.9.4-1.3.2-.4.6-.8.9-1.1.4-.3.8-.5,1.3-.6.5-.1,1-.2,1.5,0,.5,0,1,.2,1.4.5.4.2.8.6,1.1.9l6.2,7.6c.4.5.7,1.2.8,1.8,0,.7,0,1.3-.3,1.9-.3.6-.8,1.1-1.4,1.5-.6.4-1.3.5-2,.5h0Z"/>
  <path class="st1" d="M29,12.9c0,1.1-.3,2.1-.8,3-.5.9-1.2,1.8-2.1,2.4l4.2,5.1c2.3-1.6,4-3.9,4.9-6.5s.9-5.4,0-8c-.9-2.6-2.6-4.9-4.9-6.5C28.1.9,25.4,0,22.5,0H3.4c-.9,0-1.8.3-2.4,1C.4,1.6,0,2.4,0,3.3s.4,1.7,1,2.3c.6.6,1.5,1,2.4,1h19c1.7,0,3.4.7,4.6,1.8,1.2,1.2,1.9,2.8,1.9,4.4h0Z"/>
  <path class="st1" d="M2.2,33.9h0c-1.4,1.4-1.4,3.7,0,5.1h0c1.4,1.4,3.8,1.4,5.2,0h0c1.4-1.4,1.4-3.7,0-5.1h0c-1.4-1.4-3.8-1.4-5.2,0Z"/>
</svg>