<?xml version="1.0" encoding="UTF-8"?>
<svg id="Layer_1" xmlns="http://www.w3.org/2000/svg" version="1.1" viewBox="0 0 100 32">
  <!-- Generator: Adobe Illustrator 30.2.1, SVG Export Plug-In . SVG Version: 2.1.1 Build 1)  -->
  <defs>
    <style>
      .st0 {
        fill: #fff;
      }
    </style>
  </defs>
  <path class="st0" d="M0,0v32h30.6V0H0ZM23.6,11.2h-2.2v1.5h1v11.8h-4.8v2.3h-9c-.2,0-.4-.2-.4-.4v-7.6h2.6v-2.3h-2.6v-4.3h-1c-.1,0-.2-.1-.2-.2v-4.3h1.8v-2.4h1.6c0,0,.2,0,.2.2v2.3c0,.1,0,.2.2.2h2.7c0,0,.2,0,.2-.2v-2.3c0,0,0-.2.2-.2h3.2c0,0,.2,0,.2.2v2.3c0,.1,0,.2.2.2h2.7c0,0,.2,0,.2-.2v-2.3c0,0,0-.2.2-.2h3.2c0,0,.2,0,.2.2v5.7Z"/>
  <path class="st0" d="M17.8,17.1v4.5c0,.1-.1.3-.2.3h-4.4c-.1,0-.2-.1-.2-.3v-4.5c0-1.4,1.1-2.6,2.5-2.6s1.3.3,1.7.8c.4.5.7,1.1.7,1.8Z"/>
  <path class="st0" d="M37.9,6.5h2c1.7,0,2.6.7,2.6,2.1s-.9,2.1-2.6,2.1h-1v2.4h-.9v-6.6ZM39.8,9.8c1.1,0,1.6-.3,1.6-1.3s-.5-1.2-1.6-1.2h-1v2.5h1Z"/>
  <path class="st0" d="M44.1,8.4v.9c.1-.5.5-.9,1.3-.9h.1v1h-.4c-.8,0-1,.4-1,1.4v2.4h-.9v-4.7h.9Z"/>
  <path class="st0" d="M45.6,10.8c0-1.4.9-2.4,2.3-2.4s2.2,1,2.2,2.4-.9,2.4-2.3,2.4-2.2-1-2.2-2.4ZM49.2,10.8h0c0-1-.5-1.6-1.3-1.6s-1.3.6-1.3,1.6h0c0,1,.5,1.6,1.3,1.6s1.3-.6,1.3-1.6h0Z"/>
  <path class="st0" d="M50.1,13.3h.2c.4,0,.5-.1.5-.6v-4.2h.9v4.3c0,1.1-.4,1.5-1.5,1.5h-.3v-.9h0ZM50.8,6.6h1v1h-1v-1Z"/>
  <path class="st0" d="M52.5,10.8c0-1.5.9-2.5,2.2-2.5s2.1.9,2.1,2.4v.4h-3.4c0,.8.5,1.3,1.3,1.3s1.1-.4,1.3-.8l.8.3c-.3.7-.9,1.3-2.1,1.3s-2.2-1-2.2-2.4h0ZM55.9,10.4c0-.8-.5-1.2-1.2-1.2s-1.2.5-1.3,1.2h2.4,0Z"/>
  <path class="st0" d="M57.4,10.8c0-1.4.9-2.4,2.2-2.4s1.7.6,2,1.5l-.9.3c-.2-.6-.5-1-1.1-1s-1.3.6-1.3,1.6h0c0,1,.5,1.6,1.2,1.6s1-.4,1.2-1l.9.3c-.3,1-1,1.6-2.1,1.6s-2.2-1-2.2-2.4h0Z"/>
  <path class="st0" d="M62.6,11.9v-2.7h-.7v-.8h.7v-.9l.9-.6v1.5h1v.8h-1v2.6c0,.3.1.4.4.4h.5v.9h-.8c-.8,0-1-.4-1-1.2h0Z"/>
  <path class="st0" d="M37.9,14.5h8.4v1.7h-6.5v3.9h4.9v1.7h-4.9v5.6h-1.9v-13Z"/>
  <path class="st0" d="M45.9,23c0-2.8,1.8-4.8,4.4-4.8s4.4,2,4.4,4.8-1.9,4.8-4.5,4.8-4.4-1.9-4.4-4.8ZM52.9,23h0c0-2-1-3.2-2.6-3.2s-2.6,1.2-2.6,3.2h0c0,2,1,3.2,2.6,3.2s2.6-1.2,2.6-3.1Z"/>
  <path class="st0" d="M64.9,20.1v4.9c0,.6.2.9.8.9h1v1.7h-1.6c-1.6,0-2-.8-2-2.3v-5.1h-3.1c-1.6,0-2,.8-2,2.7v4.8h-1.8v-9.3h1.8v1.7c.3-1.1,1-1.8,2.6-1.8h2.5v-1.7l1.8-1.2v2.9h1.9v1.9h-1.9Z"/>
  <path class="st0" d="M70.1,18.3v1.7c.3-1.1,1-1.8,2.6-1.8h.3v1.9h-.8c-1.6,0-2,.8-2,2.7v4.8h-1.8v-9.3h1.8Z"/>
  <path class="st0" d="M73.3,23c0-2.9,1.8-4.8,4.3-4.8s4.2,1.8,4.2,4.8v.7h-6.7c.1,1.6,1.1,2.6,2.6,2.6s2.2-.8,2.5-1.7l1.6.7c-.6,1.4-1.9,2.6-4.1,2.6s-4.4-1.9-4.4-4.7h0ZM79.9,22.2c0-1.6-.9-2.4-2.3-2.4s-2.3.9-2.5,2.4h4.8Z"/>
  <path class="st0" d="M82.6,25.9l1.6-.9c.5.8,1.5,1.2,2.4,1.2s1.6-.5,1.6-1.2-1-1-2.4-1.3c-1.6-.4-3.1-.9-3.1-2.7s1.5-2.9,3.3-2.9,3,.8,3.8,2l-1.6.8c-.5-.8-1.3-1.2-2.2-1.2s-1.6.5-1.6,1.2.6.9,2.2,1.2c1.6.3,3.3.9,3.3,2.8s-1.4,3-3.5,3-3.1-.8-3.9-1.9h0Z"/>
  <path class="st0" d="M90.6,25.9l1.6-.9c.5.8,1.5,1.2,2.4,1.2s1.6-.5,1.6-1.2-1-1-2.4-1.3c-1.6-.4-3.1-.9-3.1-2.7s1.5-2.9,3.3-2.9,3,.8,3.8,2l-1.6.8c-.5-.8-1.3-1.2-2.2-1.2s-1.6.5-1.6,1.2.6.9,2.2,1.2c1.6.3,3.3.9,3.3,2.8s-1.4,3-3.5,3-3.1-.8-3.9-1.9h0Z"/>
</svg>