<?xml version="1.0" encoding="utf-8"?>
<!-- Generator: Adobe Illustrator 25.2.1, SVG Export Plug-In . SVG Version: 6.00 Build 0)  -->
<svg version="1.1" id="Layer_1" xmlns="http://www.w3.org/2000/svg" xmlns:xlink="http://www.w3.org/1999/xlink" x="0px" y="0px"
	 viewBox="0 0 544.5 129.1" style="enable-background:new 0 0 544.5 129.1;" xml:space="preserve">
<style type="text/css">
	*{fill:#FFF;}
</style>
<g>
	<path class="st0" d="M6.4,16.6c-16.1,18.3,3.1,34.2,6,37.2l75.8,75.4l25-25.1c0,0,23.9-25.4-3.3-58c0,0,38.9-2.9,40.9-46L43.9,0.1
		C43.9,0.1,22.5-1.7,6.4,16.6z M31.8,18.7c4.4-4.4,11.5-4.4,15.8,0c4.4,4.4,4.4,11.5,0,15.8c-4.4,4.4-11.5,4.4-15.8,0
		C27.4,30.2,27.4,23.1,31.8,18.7z"/>
	<g>
		<g>
			<path d="M168.5,75.1c0.2,2.9,0.7,5.3,1.5,7.4s1.8,3.8,3.1,5.1c1.3,1.4,2.8,2.4,4.6,3c1.8,0.7,3.8,1,5.9,1s4-0.3,5.6-0.8
				c1.6-0.5,2.9-1.1,4.1-1.7s2.2-1.2,3.1-1.7c0.9-0.5,1.7-0.8,2.6-0.8c1.1,0,2,0.4,2.5,1.2l3.8,4.9c-1.5,1.7-3.1,3.2-5,4.4
				c-1.8,1.2-3.8,2.1-5.8,2.8c-2,0.7-4,1.2-6.1,1.5s-4.1,0.4-6,0.4c-3.9,0-7.5-0.6-10.8-1.9c-3.3-1.3-6.2-3.2-8.7-5.7
				c-2.5-2.5-4.4-5.6-5.8-9.3c-1.4-3.7-2.1-8-2.1-12.9c0-3.8,0.6-7.4,1.8-10.7c1.2-3.3,3-6.2,5.3-8.7c2.3-2.5,5.1-4.4,8.4-5.9
				c3.3-1.4,7-2.2,11.2-2.2c3.5,0,6.7,0.6,9.7,1.7c3,1.1,5.5,2.8,7.6,4.9c2.1,2.1,3.8,4.8,5,7.9c1.2,3.1,1.8,6.7,1.8,10.7
				c0,2-0.2,3.4-0.7,4.1c-0.4,0.7-1.3,1.1-2.5,1.1H168.5z M194,67c0-1.7-0.2-3.4-0.7-4.9c-0.5-1.5-1.2-2.9-2.2-4
				c-1-1.2-2.2-2.1-3.7-2.7c-1.5-0.7-3.2-1-5.2-1c-3.9,0-6.9,1.1-9.1,3.3c-2.2,2.2-3.6,5.3-4.3,9.4H194z"/>
			<path d="M256,51.2c0,0.9-0.2,1.9-0.5,2.8s-0.8,1.6-1.3,2.2l-26.4,34.8h27.4v10.3h-42.9v-5.6c0-0.6,0.1-1.3,0.4-2.2
				c0.3-0.8,0.7-1.7,1.3-2.4l26.7-35.2h-26.8V45.6H256V51.2z"/>
			<path d="M284.4,102.1c-4.8,0-8.6-1.4-11.1-4.1c-2.6-2.7-3.9-6.5-3.9-11.3v-31h-5.7c-0.7,0-1.3-0.2-1.8-0.7
				c-0.5-0.5-0.8-1.2-0.8-2.1v-5.3l8.9-1.5l2.8-15.2c0.2-0.7,0.5-1.3,1-1.7c0.5-0.4,1.2-0.6,2-0.6h6.9v17.5h14.8v9.5h-14.8v30.1
				c0,1.7,0.4,3.1,1.3,4.1c0.8,1,2,1.5,3.5,1.5c0.8,0,1.5-0.1,2.1-0.3c0.6-0.2,1-0.4,1.5-0.6c0.4-0.2,0.8-0.4,1.1-0.6
				c0.3-0.2,0.7-0.3,1-0.3c0.4,0,0.7,0.1,1,0.3c0.3,0.2,0.5,0.5,0.8,0.9l4,6.5c-2,1.6-4.2,2.9-6.7,3.7
				C289.7,101.7,287.1,102.1,284.4,102.1z"/>
			<path d="M318.8,55.3c1.7-3.3,3.8-5.9,6.2-7.8c2.4-1.9,5.2-2.8,8.5-2.8c2.6,0,4.6,0.6,6.2,1.7l-0.9,10c-0.2,0.7-0.4,1.1-0.8,1.4
				c-0.3,0.3-0.8,0.4-1.4,0.4c-0.5,0-1.3-0.1-2.4-0.3c-1.1-0.2-2.1-0.3-3.1-0.3c-1.5,0-2.8,0.2-4,0.7s-2.2,1.1-3.1,1.9
				c-0.9,0.8-1.7,1.8-2.4,3s-1.4,2.5-2,4v34.2h-13.4V45.6h7.9c1.4,0,2.3,0.2,2.9,0.7c0.5,0.5,0.9,1.4,1.1,2.6L318.8,55.3z"/>
			<path d="M344.6,53.4c6.4-5.9,14.1-8.8,23.1-8.8c3.3,0,6.2,0.5,8.7,1.6c2.6,1.1,4.7,2.5,6.5,4.4c1.8,1.9,3.1,4.2,4,6.8
				c0.9,2.6,1.4,5.5,1.4,8.7v35.1h-6.1c-1.3,0-2.2-0.2-2.9-0.6c-0.7-0.4-1.2-1.1-1.6-2.3l-1.2-4c-1.4,1.3-2.8,2.4-4.1,3.3
				c-1.3,1-2.7,1.8-4.2,2.4c-1.4,0.7-3,1.1-4.6,1.5c-1.6,0.3-3.5,0.5-5.4,0.5c-2.3,0-4.5-0.3-6.5-0.9c-2-0.6-3.7-1.6-5.1-2.8
				c-1.4-1.3-2.6-2.8-3.4-4.7c-0.8-1.9-1.2-4.1-1.2-6.6c0-1.4,0.2-2.8,0.7-4.2c0.5-1.4,1.2-2.7,2.3-4c1.1-1.3,2.4-2.5,4.1-3.6
				c1.7-1.1,3.8-2.1,6.3-2.9s5.4-1.5,8.6-2c3.3-0.5,7-0.8,11.3-0.9v-3.3c0-3.7-0.8-6.5-2.4-8.3c-1.6-1.8-3.9-2.7-6.9-2.7
				c-2.2,0-4,0.3-5.4,0.8c-1.4,0.5-2.7,1.1-3.8,1.7s-2.1,1.2-3,1.7c-0.9,0.5-1.9,0.8-3,0.8c-0.9,0-1.7-0.2-2.4-0.7
				c-0.7-0.5-1.2-1.1-1.6-1.7L344.6,53.4z M375.3,77.5c-3.9,0.2-7.1,0.5-9.8,1c-2.6,0.5-4.8,1.1-6.3,1.9c-1.6,0.8-2.7,1.6-3.4,2.7
				c-0.7,1-1,2.1-1,3.3c0,2.3,0.7,4,2.1,5c1.4,1,3.2,1.5,5.4,1.5c2.7,0,5.1-0.5,7.1-1.5c2-1,4-2.5,5.9-4.5V77.5z"/>
			<path d="M440.7,57.4c-0.4,0.5-0.8,0.9-1.2,1.2c-0.4,0.3-0.9,0.4-1.7,0.4c-0.7,0-1.4-0.2-2-0.6c-0.7-0.4-1.4-0.9-2.3-1.4
				c-0.9-0.5-2-1-3.2-1.4c-1.2-0.4-2.8-0.6-4.6-0.6c-2.3,0-4.4,0.4-6.2,1.3c-1.8,0.8-3.2,2.1-4.4,3.7c-1.2,1.6-2.1,3.5-2.6,5.8
				c-0.6,2.3-0.9,4.8-0.9,7.7c0,3,0.3,5.6,0.9,7.9s1.5,4.3,2.7,5.8c1.2,1.6,2.6,2.8,4.3,3.6s3.6,1.2,5.7,1.2c2.1,0,3.9-0.3,5.2-0.8
				c1.3-0.5,2.4-1.1,3.3-1.7c0.9-0.6,1.7-1.2,2.4-1.7c0.7-0.5,1.4-0.8,2.2-0.8c1.1,0,1.9,0.4,2.4,1.2l3.8,4.9
				c-1.5,1.7-3.1,3.2-4.8,4.4c-1.7,1.2-3.5,2.1-5.4,2.8c-1.9,0.7-3.8,1.2-5.7,1.5c-2,0.3-3.9,0.4-5.9,0.4c-3.4,0-6.7-0.6-9.7-1.9
				c-3-1.3-5.7-3.2-8-5.6c-2.3-2.5-4.1-5.5-5.4-9c-1.3-3.6-2-7.6-2-12.2c0-4.1,0.6-7.9,1.8-11.4c1.2-3.5,2.9-6.5,5.2-9
				c2.3-2.5,5.1-4.5,8.5-6c3.4-1.4,7.2-2.2,11.6-2.2c4.2,0,7.8,0.7,10.9,2c3.1,1.3,5.9,3.3,8.4,5.7L440.7,57.4z"/>
			<path d="M466.5,20.7v46.1h2.5c0.9,0,1.6-0.1,2.1-0.4c0.5-0.2,1.1-0.7,1.6-1.4L486.6,48c0.6-0.8,1.2-1.3,1.9-1.7
				c0.7-0.4,1.6-0.6,2.7-0.6h12.2l-17.3,20.6c-1.2,1.6-2.6,2.9-4,3.7c0.8,0.5,1.4,1.2,2,1.9c0.6,0.7,1.2,1.5,1.7,2.3l18.5,27h-12.1
				c-1,0-2-0.2-2.7-0.5c-0.8-0.3-1.4-1-1.9-1.9l-14.2-21.1c-0.5-0.8-1-1.4-1.6-1.6s-1.4-0.4-2.4-0.4h-3v25.5h-13.4V20.7H466.5z"/>
			<path d="M523.7,55.3c1.7-3.3,3.8-5.9,6.2-7.8c2.4-1.9,5.2-2.8,8.5-2.8c2.6,0,4.6,0.6,6.2,1.7l-0.9,10c-0.2,0.7-0.4,1.1-0.8,1.4
				c-0.3,0.3-0.8,0.4-1.4,0.4c-0.5,0-1.3-0.1-2.4-0.3s-2.1-0.3-3.1-0.3c-1.5,0-2.8,0.2-4,0.7c-1.2,0.4-2.2,1.1-3.1,1.9
				c-0.9,0.8-1.7,1.8-2.4,3c-0.7,1.2-1.4,2.5-2,4v34.2h-13.4V45.6h7.9c1.4,0,2.3,0.2,2.9,0.7c0.5,0.5,0.9,1.4,1.1,2.6L523.7,55.3z"
				/>
		</g>
	</g>
</g>
</svg>
