<?xml version="1.0" encoding="UTF-8"?>
<svg id="Layer_1" xmlns="http://www.w3.org/2000/svg" xmlns:xlink="http://www.w3.org/1999/xlink" version="1.1" viewBox="0 0 108 43">
  <!-- Generator: Adobe Illustrator 30.2.1, SVG Export Plug-In . SVG Version: 2.1.1 Build 1)  -->
  <defs>
    <style>
      .st0 {
        mask: url(#mask);
      }

      .st1 {
        fill: #fff;
      }
    </style>
    <mask id="mask" x="0" y="0" width="108" height="43" maskUnits="userSpaceOnUse">
      <g id="mask0_12127_11">
        <g id="clippath">
          <path id="Vector" class="st1" d="M108,0H0v43h108V0Z"/>
        </g>
      </g>
    </mask>
  </defs>
  <g id="Clip_path_group">
    <g class="st0">
      <g id="Group">
        <path id="Vector_2" class="st1" d="M68.5,4.1h5.1V.9c0-.5-.5-.9-1.1-.9h-2.8c-.6,0-1.1.4-1.1.9v3.2Z"/>
        <path id="Vector_3" class="st1" d="M73.6,1.1h-5.1v3.1c0,.5.5.9,1.1.9h2.8c.6,0,1.1-.4,1.1-.9V1.1Z"/>
        <path id="Vector_4" class="st1" d="M54.4,0h-17.2c-.6,0-1.1.5-1.1,1.1v2.8c0,.6.5,1.1,1.1,1.1h21.1c.6,0,1.1.5,1.1,1.1v2.8c0,.6-.5,1.1-1.1,1.1h-17.8c-.9,0-1.8.4-2.4,1l-3.1,3.1c-.6.6-1,1.5-1,2.4v7.4c0,.9.4,1.8,1,2.4l3.1,3.1c.6.6,1.5,1,2.4,1h17.5c.9,0,1.8-.4,2.4-1l3.1-3.1c.6-.6,1-1.5,1-2.4V6.5c0-.9-.4-1.8-1-2.4l-3.1-3.1c-.6-.6-1.5-1-2.4-1h-3.7ZM59.5,20.4v4c0,.6-.5,1.1-1.1,1.1h-18c-.6,0-1.1-.5-1.1-1.1v-7.9c0-.6.5-1.1,1.1-1.1h18c.6,0,1.1.5,1.1,1.1v4Z"/>
        <path id="Vector_5" class="st1" d="M97.9,0h-17.2c-.6,0-1.1.5-1.1,1.1v2.8c0,.6.5,1.1,1.1,1.1h21.1c.6,0,1.1.5,1.1,1.1v2.8c0,.6-.5,1.1-1.1,1.1h-17.8c-.9,0-1.8.4-2.4,1l-3.1,3.1c-.6.6-1,1.5-1,2.4v7.4c0,.9.4,1.8,1,2.4l3.1,3.1c.6.6,1.5,1,2.4,1h17.5c.9,0,1.8-.4,2.4-1l3.1-3.1c.6-.6,1-1.5,1-2.4V6.5c0-.9-.4-1.8-1-2.4l-3.1-3.1c-.6-.6-1.5-1-2.4-1h-3.7ZM102.9,20.4v4c0,.6-.5,1.1-1.1,1.1h-18c-.6,0-1.1-.5-1.1-1.1v-7.9c0-.6.5-1.1,1.1-1.1h18c.6,0,1.1.5,1.1,1.1v4Z"/>
        <path id="Vector_6" class="st1" d="M20.3,0H6.5c-.9,0-1.8.4-2.4,1L1,4.1c-.6.6-1,1.5-1,2.4v17.6c0,.9.4,1.8,1,2.4l3.1,3.1c.6.6,1.5,1,2.4,1h17.5c.9,0,1.8-.4,2.4-1l3.1-3.1c.6-.6,1-1.5,1-2.4V1.1c0-.6-.5-1.1-1.1-1.1h-9ZM25.4,10.2v14.1c0,.6-.5,1.1-1.1,1.1H6.2c-.6,0-1.1-.5-1.1-1.1V6.2c0-.6.5-1.1,1.1-1.1h18c.6,0,1.1.5,1.1,1.1v4Z"/>
        <path id="Vector_7" class="st1" d="M25.4,36.8c0,.6-.5,1.1-1.1,1.1H6.2c-.6,0-1.1-.5-1.1-1.1v-2.8c0-.6-.5-1.1-1.1-1.1H1.1c-.6,0-1.1.5-1.1,1.1v2.6c0,.9.4,1.8,1,2.4l3.1,3.1c.6.6,1.5,1,2.4,1h17.5c.9,0,1.8-.4,2.4-1l3.1-3.1c.6-.6,1-1.5,1-2.4v-2.6c0-.6-.5-1.1-1.1-1.1h-2.8c-.6,0-1.1.5-1.1,1.1v2.8Z"/>
        <path id="Vector_8" class="st1" d="M68.5,11.8v17.9c0,.5.5.8,1.1.8h2.8c.6,0,1.1-.4,1.1-.8V8.9c0-.5-.5-.8-1.1-.8h-2.8c-.6,0-1.1.4-1.1.8v2.9Z"/>
      </g>
    </g>
  </g>
</svg>