<svg width="1152" height="151" viewBox="0 0 1152 151" fill="none" xmlns="http://www.w3.org/2000/svg">
<g clip-path="url(#clip0_1854_1156)">
<g clip-path="url(#clip1_1854_1156)">
<path d="M393.337 43.2004C402.193 43.2004 410.329 44.4244 417.673 46.8004C425.017 49.1764 431.353 52.7044 436.681 57.3124C442.009 61.9204 446.113 67.5364 449.065 74.2324C452.017 80.8564 453.457 88.4884 453.457 96.9844C453.457 105.48 452.017 113.112 449.065 119.736C446.113 126.36 442.009 131.976 436.681 136.512C431.353 141.048 425.017 144.504 417.673 146.88C410.329 149.256 402.193 150.48 393.337 150.48H359.281V229.536H335.593V43.2004H393.337ZM359.281 128.592H393.337C403.993 128.592 412.633 125.856 419.401 120.312C426.169 114.84 429.481 106.992 429.481 96.9124C429.481 86.8324 426.097 78.6964 419.401 73.2244C412.633 67.7524 403.993 64.9444 393.337 64.9444H359.281V128.52V128.592Z" fill="black"/>
<path d="M586.796 99.5037V228.816H564.188V208.08C559.58 215.352 553.172 221.112 545.036 225.36C536.9 229.608 528.044 231.768 518.396 231.768C508.748 231.768 500.612 230.04 492.692 226.584C484.772 223.128 477.932 218.376 472.1 212.328C466.268 206.28 461.66 199.152 458.42 190.872C455.108 182.592 453.524 173.736 453.524 164.16C453.524 154.584 455.18 145.728 458.42 137.52C461.732 129.384 466.268 122.184 472.1 116.064C477.932 109.944 484.844 105.12 492.692 101.664C500.612 98.2077 509.18 96.4797 518.396 96.4797C527.612 96.4797 536.828 98.4237 544.892 102.312C552.956 106.2 559.364 111.816 564.188 119.088V99.3597H586.796V99.5037ZM565.484 164.16C565.484 157.608 564.404 151.488 562.172 145.8C559.94 140.112 556.844 135.216 552.884 131.04C548.924 126.864 544.172 123.624 538.772 121.176C533.372 118.8 527.468 117.576 521.06 117.576C514.652 117.576 508.748 118.8 503.348 121.176C497.948 123.552 493.268 126.864 489.236 131.04C485.276 135.216 482.108 140.112 479.948 145.8C477.716 151.488 476.636 157.608 476.636 164.16C476.636 170.712 477.716 176.832 479.948 182.52C482.18 188.208 485.276 193.104 489.236 197.28C493.196 201.456 497.948 204.768 503.348 207.144C508.748 209.52 514.652 210.744 521.06 210.744C527.468 210.744 533.372 209.52 538.772 207.144C544.172 204.768 548.852 201.456 552.884 197.28C556.844 193.104 560.012 188.208 562.172 182.52C564.404 176.832 565.484 170.712 565.484 164.16Z" fill="black"/>
<path d="M627.047 228.817H604.151V99.5048H627.047V118.153C631.151 111.745 636.551 106.561 643.391 102.601C650.231 98.6408 658.511 96.6248 668.303 96.6248C685.007 96.6248 697.823 101.737 706.895 111.961C715.967 122.185 720.431 135.865 720.431 153.073V228.889H697.535V155.737C697.535 144.001 694.655 134.785 688.895 128.089C683.135 121.321 674.639 118.009 663.479 118.009C652.319 118.009 643.463 121.897 636.839 129.745C630.287 137.521 626.975 148.105 626.975 161.425V229.033L627.047 228.817Z" fill="black"/>
<path d="M841.82 204.696C837.212 211.824 830.876 217.44 822.956 221.76C814.964 226.008 806.396 228.168 797.108 228.168C787.82 228.168 779.972 226.512 772.34 223.272C764.708 219.96 758.084 215.424 752.396 209.592C746.708 203.76 742.244 196.848 738.932 188.856C735.62 180.864 734.036 172.296 734.036 163.08C734.036 153.864 735.692 145.224 738.932 137.304C742.244 129.312 746.708 122.328 752.396 116.424C758.084 110.448 764.708 105.84 772.34 102.456C779.972 99.0718 788.18 97.4158 797.108 97.4158C806.036 97.4158 814.964 99.3598 822.956 103.248C830.948 107.136 837.212 112.68 841.82 119.736V100.296H864.428V222.192C864.428 232.272 862.916 241.416 859.892 249.48C856.868 257.544 852.548 264.456 847.004 270.216C841.46 275.976 834.692 280.44 826.772 283.536C818.852 286.632 810.068 288.216 800.276 288.216C786.812 288.216 774.788 285.336 764.348 279.576C753.908 273.816 745.628 265.536 739.58 254.664L757.652 241.92C762.26 250.272 768.236 256.608 775.58 260.928C782.924 265.248 791.132 267.48 800.204 267.48C812.948 267.48 823.1 263.52 830.516 255.528C837.932 247.536 841.676 236.664 841.676 222.768V204.912L841.82 204.696ZM843.188 162.936C843.188 156.744 842.108 150.84 839.876 145.368C837.644 139.896 834.62 135.144 830.804 131.112C826.988 127.152 822.452 123.984 817.124 121.68C811.796 119.376 806.108 118.224 800.06 118.224C794.012 118.224 788.18 119.376 783.068 121.68C777.884 123.984 773.42 127.152 769.532 131.112C765.644 135.072 762.62 139.824 760.46 145.368C758.3 150.912 757.292 156.744 757.292 162.936C757.292 169.128 758.372 175.032 760.46 180.504C762.62 185.976 765.572 190.728 769.532 194.76C773.42 198.72 777.956 201.888 783.068 204.192C788.18 206.496 793.868 207.648 800.06 207.648C806.252 207.648 811.796 206.496 817.124 204.192C822.452 201.888 826.988 198.72 830.804 194.76C834.62 190.8 837.644 186.048 839.876 180.504C842.108 175.032 843.188 169.128 843.188 162.936Z" fill="black"/>
<path d="M944.208 232.416C934.632 232.416 925.776 230.76 917.712 227.376C909.648 223.992 902.664 219.384 896.832 213.408C891 207.432 886.392 200.376 883.152 192.096C879.84 183.816 878.256 174.744 878.256 164.808C878.256 154.872 879.912 146.304 883.152 138.096C886.464 129.816 890.928 122.688 896.688 116.64C902.448 110.592 909.216 105.84 917.064 102.384C924.84 98.9284 933.408 97.2004 942.624 97.2004C951.84 97.2004 960.048 98.9284 967.752 102.384C975.456 105.84 982.152 110.592 987.696 116.64C993.312 122.688 997.632 129.744 1000.73 137.808C1003.82 145.872 1005.41 154.512 1005.41 163.728C1005.41 165.168 1005.41 166.32 1005.26 167.328C1005.19 168.336 1005.12 169.128 1005.12 169.848V172.008H901.08C901.44 177.696 902.88 182.952 905.328 187.848C907.776 192.744 911.016 196.92 914.904 200.52C918.792 204.048 923.256 206.856 928.368 208.872C933.408 210.888 938.808 211.968 944.496 211.968C954.216 211.968 961.92 209.88 967.536 205.704C973.152 201.528 977.976 196.272 982.008 189.864L1000.66 199.44C995.328 209.232 987.912 217.152 978.336 223.272C968.76 229.392 957.384 232.416 944.28 232.416H944.208ZM982.224 153.144C981.72 148.032 980.28 143.28 977.976 138.888C975.672 134.568 972.72 130.752 969.192 127.584C965.664 124.416 961.56 121.896 956.952 120.024C952.344 118.152 947.376 117.216 942.048 117.216C936.72 117.216 931.752 118.296 927.144 120.384C922.536 122.544 918.432 125.28 914.76 128.664C911.088 132.048 908.136 135.864 905.832 140.112C903.528 144.36 902.088 148.752 901.584 153.144H982.224Z" fill="black"/>
<path d="M1152 100.152V229.464H1129.4V208.728C1124.79 216 1118.38 221.76 1110.24 226.008C1102.11 230.256 1093.25 232.416 1083.6 232.416C1073.96 232.416 1065.82 230.688 1057.9 227.232C1049.98 223.776 1043.14 219.024 1037.31 212.976C1031.48 206.928 1026.87 199.8 1023.63 191.52C1020.32 183.24 1018.73 174.384 1018.73 164.808C1018.73 155.232 1020.39 146.376 1023.63 138.168C1026.94 130.032 1031.48 122.832 1037.31 116.712C1043.14 110.592 1050.05 105.768 1057.9 102.312C1065.82 98.8559 1074.39 97.1279 1083.6 97.1279C1092.82 97.1279 1102.04 99.0719 1110.1 102.96C1118.16 106.848 1124.57 112.464 1129.4 119.736V100.008H1152V100.152ZM1130.69 164.808C1130.69 158.256 1129.61 152.136 1127.38 146.448C1125.15 140.76 1122.05 135.864 1118.09 131.688C1114.13 127.512 1109.38 124.272 1103.98 121.824C1098.58 119.448 1092.68 118.224 1086.27 118.224C1079.86 118.224 1073.96 119.448 1068.56 121.824C1063.16 124.2 1058.48 127.512 1054.44 131.688C1050.48 135.864 1047.32 140.76 1045.16 146.448C1042.92 152.136 1041.84 158.256 1041.84 164.808C1041.84 171.36 1042.92 177.48 1045.16 183.168C1047.39 188.856 1050.48 193.752 1054.44 197.928C1058.4 202.104 1063.16 205.416 1068.56 207.792C1073.96 210.168 1079.86 211.392 1086.27 211.392C1092.68 211.392 1098.58 210.168 1103.98 207.792C1109.38 205.416 1114.06 202.104 1118.09 197.928C1122.05 193.752 1125.22 188.856 1127.38 183.168C1129.61 177.48 1130.69 171.36 1130.69 164.808Z" fill="black"/>
<path d="M144 0C64.44 0 0 64.44 0 144C0 223.56 64.44 288 144 288C223.56 288 288 223.56 288 144C288 64.44 223.56 0 144 0ZM133.2 23.544V264.456C100.944 253.728 79.2 196.272 79.2 144C79.2 91.728 100.872 34.272 133.2 23.544ZM154.8 264.456V23.544C187.128 34.272 208.8 91.728 208.8 144C208.8 196.272 187.056 253.728 154.8 264.456ZM21.6 144C21.6 96.984 48.24 56.16 87.192 35.64C69.12 62.064 57.6 100.728 57.6 144C57.6 187.272 69.12 225.936 87.192 252.36C48.24 231.84 21.6 191.016 21.6 144ZM200.808 252.36C218.88 225.936 230.4 187.272 230.4 144C230.4 100.728 218.88 62.064 200.808 35.64C239.76 56.16 266.4 96.984 266.4 144C266.4 191.016 239.76 231.84 200.808 252.36Z" fill="black"/>
</g>
</g>
<defs>
<clipPath id="clip0_1854_1156">
<rect width="1152" height="151" fill="white"/>
</clipPath>
<clipPath id="clip1_1854_1156">
<rect width="1152" height="288" fill="white"/>
</clipPath>
</defs>
</svg>
