<svg width="96" height="96" viewBox="0 0 96 96" fill="none" xmlns="http://www.w3.org/2000/svg">
<path d="M48 0C21.48 0 0 21.48 0 48C0 74.52 21.48 96 48 96C74.52 96 96 74.52 96 48C96 21.48 74.52 0 48 0ZM44.4 7.848V88.152C33.648 84.576 26.4 65.424 26.4 48C26.4 30.576 33.624 11.424 44.4 7.848ZM51.6 88.152V7.848C62.376 11.424 69.6 30.576 69.6 48C69.6 65.424 62.352 84.576 51.6 88.152ZM7.2 48C7.2 32.328 16.08 18.72 29.064 11.88C23.04 20.688 19.2 33.576 19.2 48C19.2 62.424 23.04 75.312 29.064 84.12C16.08 77.28 7.2 63.672 7.2 48ZM66.936 84.12C72.96 75.312 76.8 62.424 76.8 48C76.8 33.576 72.96 20.688 66.936 11.88C79.92 18.72 88.8 32.328 88.8 48C88.8 63.672 79.92 77.28 66.936 84.12Z" fill="white"/>
</svg>
