<svg width="382" height="460" viewBox="0 0 382 460" fill="none" xmlns="http://www.w3.org/2000/svg">
<rect width="382" height="460" rx="8" fill="#0D0D0D"/>
<path d="M88.5871 249.6H91.9151L98.2191 259.392L104.523 249.6H107.787L99.6271 262.016V272H96.7791V262.016L88.5871 249.6ZM114.865 256.096C116.038 256.096 117.116 256.309 118.097 256.736C119.1 257.163 119.964 257.749 120.689 258.496C121.414 259.221 121.98 260.075 122.385 261.056C122.79 262.037 122.993 263.093 122.993 264.224C122.993 265.355 122.79 266.411 122.385 267.392C121.98 268.373 121.414 269.237 120.689 269.984C119.964 270.709 119.1 271.285 118.097 271.712C117.116 272.139 116.038 272.352 114.865 272.352C113.692 272.352 112.604 272.139 111.601 271.712C110.62 271.285 109.766 270.709 109.041 269.984C108.316 269.237 107.75 268.373 107.345 267.392C106.94 266.411 106.737 265.355 106.737 264.224C106.737 263.093 106.94 262.037 107.345 261.056C107.75 260.075 108.316 259.221 109.041 258.496C109.766 257.749 110.62 257.163 111.601 256.736C112.604 256.309 113.692 256.096 114.865 256.096ZM114.865 258.624C114.097 258.624 113.382 258.773 112.721 259.072C112.081 259.349 111.516 259.744 111.025 260.256C110.556 260.768 110.182 261.365 109.905 262.048C109.649 262.731 109.521 263.456 109.521 264.224C109.521 264.992 109.649 265.717 109.905 266.4C110.182 267.083 110.556 267.68 111.025 268.192C111.516 268.704 112.081 269.109 112.721 269.408C113.382 269.685 114.097 269.824 114.865 269.824C115.633 269.824 116.337 269.685 116.977 269.408C117.638 269.109 118.204 268.704 118.673 268.192C119.164 267.68 119.537 267.083 119.793 266.4C120.07 265.717 120.209 264.992 120.209 264.224C120.209 263.456 120.07 262.731 119.793 262.048C119.537 261.365 119.164 260.768 118.673 260.256C118.204 259.744 117.638 259.349 116.977 259.072C116.337 258.773 115.633 258.624 114.865 258.624ZM137.8 256.448H140.552V272H137.8V269.76C137.309 270.528 136.659 271.157 135.848 271.648C135.037 272.117 134.045 272.352 132.872 272.352C130.888 272.352 129.352 271.744 128.264 270.528C127.197 269.291 126.664 267.637 126.664 265.568V256.448H129.416V265.248C129.416 266.656 129.757 267.765 130.44 268.576C131.123 269.387 132.125 269.792 133.448 269.792C134.771 269.792 135.827 269.323 136.616 268.384C137.405 267.445 137.8 266.176 137.8 264.576V256.448ZM144.237 255.904L145.709 252.768H145.677C145.25 252.768 144.877 252.608 144.557 252.288C144.237 251.968 144.077 251.563 144.077 251.072C144.077 250.539 144.258 250.101 144.621 249.76C145.005 249.397 145.474 249.216 146.029 249.216C146.584 249.216 147.042 249.397 147.405 249.76C147.789 250.123 147.981 250.56 147.981 251.072C147.981 251.392 147.928 251.701 147.821 252C147.736 252.277 147.618 252.576 147.469 252.896L146.061 255.904H144.237ZM159.641 259.008C159.598 259.008 159.534 258.997 159.449 258.976C159.385 258.976 159.3 258.976 159.193 258.976C159.086 258.955 158.98 258.944 158.873 258.944C157.422 258.944 156.281 259.467 155.449 260.512C154.638 261.557 154.233 262.923 154.233 264.608V272H151.513V256.448H154.201V259.2C154.372 258.752 154.617 258.347 154.937 257.984C155.278 257.6 155.662 257.28 156.089 257.024C156.516 256.768 156.974 256.565 157.465 256.416C157.956 256.267 158.457 256.192 158.969 256.192C159.076 256.192 159.161 256.203 159.225 256.224C159.31 256.224 159.385 256.224 159.449 256.224C159.534 256.245 159.598 256.256 159.641 256.256V259.008ZM169.235 272.352C168.083 272.352 167.017 272.149 166.035 271.744C165.075 271.339 164.243 270.784 163.539 270.08C162.835 269.355 162.281 268.501 161.875 267.52C161.491 266.517 161.299 265.419 161.299 264.224C161.299 263.072 161.491 262.005 161.875 261.024C162.281 260.021 162.825 259.157 163.507 258.432C164.211 257.707 165.033 257.141 165.971 256.736C166.91 256.309 167.934 256.096 169.043 256.096C170.131 256.096 171.134 256.309 172.051 256.736C172.99 257.141 173.79 257.707 174.451 258.432C175.134 259.157 175.657 260.011 176.019 260.992C176.403 261.952 176.595 262.987 176.595 264.096C176.595 264.267 176.585 264.416 176.563 264.544C176.563 264.651 176.563 264.747 176.563 264.832V265.088H164.051C164.094 265.771 164.265 266.411 164.563 267.008C164.862 267.584 165.246 268.085 165.715 268.512C166.185 268.939 166.718 269.28 167.315 269.536C167.934 269.771 168.585 269.888 169.267 269.888C170.441 269.888 171.358 269.643 172.019 269.152C172.702 268.64 173.289 268 173.779 267.232L176.019 268.384C175.379 269.557 174.483 270.517 173.331 271.264C172.179 271.989 170.814 272.352 169.235 272.352ZM173.811 262.816C173.747 262.197 173.577 261.632 173.299 261.12C173.022 260.587 172.67 260.128 172.243 259.744C171.817 259.36 171.326 259.061 170.771 258.848C170.217 258.613 169.619 258.496 168.979 258.496C168.339 258.496 167.742 258.624 167.187 258.88C166.633 259.136 166.131 259.467 165.683 259.872C165.257 260.277 164.905 260.736 164.627 261.248C164.35 261.76 164.179 262.283 164.115 262.816H173.811ZM203.206 256.448V272H200.486V269.504C199.932 270.379 199.164 271.072 198.182 271.584C197.201 272.096 196.134 272.352 194.982 272.352C193.873 272.352 192.838 272.149 191.878 271.744C190.94 271.317 190.118 270.741 189.414 270.016C188.71 269.291 188.156 268.437 187.75 267.456C187.366 266.453 187.174 265.376 187.174 264.224C187.174 263.072 187.366 262.005 187.75 261.024C188.156 260.043 188.71 259.189 189.414 258.464C190.118 257.717 190.94 257.141 191.878 256.736C192.838 256.309 193.873 256.096 194.982 256.096C196.134 256.096 197.19 256.331 198.15 256.8C199.132 257.269 199.91 257.941 200.486 258.816V256.448H203.206ZM200.646 264.224C200.646 263.435 200.508 262.699 200.23 262.016C199.974 261.333 199.601 260.747 199.11 260.256C198.641 259.744 198.076 259.349 197.414 259.072C196.774 258.773 196.07 258.624 195.302 258.624C194.534 258.624 193.82 258.773 193.158 259.072C192.518 259.349 191.953 259.744 191.462 260.256C190.993 260.747 190.62 261.333 190.342 262.016C190.086 262.699 189.958 263.435 189.958 264.224C189.958 265.013 190.086 265.749 190.342 266.432C190.62 267.115 190.993 267.712 191.462 268.224C191.953 268.715 192.518 269.109 193.158 269.408C193.82 269.685 194.534 269.824 195.302 269.824C196.07 269.824 196.774 269.685 197.414 269.408C198.076 269.109 198.641 268.715 199.11 268.224C199.601 267.712 199.974 267.115 200.23 266.432C200.508 265.749 200.646 265.013 200.646 264.224ZM228.009 269.024C227.455 269.877 226.697 270.56 225.737 271.072C224.777 271.584 223.743 271.84 222.633 271.84C221.567 271.84 220.575 271.648 219.657 271.264C218.74 270.859 217.94 270.304 217.257 269.6C216.575 268.896 216.031 268.064 215.625 267.104C215.241 266.144 215.049 265.109 215.049 264C215.049 262.891 215.241 261.856 215.625 260.896C216.031 259.936 216.575 259.104 217.257 258.4C217.94 257.675 218.74 257.109 219.657 256.704C220.575 256.299 221.567 256.096 222.633 256.096C223.743 256.096 224.777 256.331 225.737 256.8C226.697 257.269 227.455 257.931 228.009 258.784V256.448H230.729V271.104C230.729 272.32 230.548 273.408 230.185 274.368C229.823 275.349 229.3 276.181 228.617 276.864C227.956 277.568 227.145 278.101 226.185 278.464C225.247 278.848 224.191 279.04 223.017 279.04C221.396 279.04 219.956 278.688 218.697 277.984C217.439 277.301 216.447 276.309 215.721 275.008L217.897 273.472C218.452 274.475 219.167 275.232 220.041 275.744C220.937 276.277 221.929 276.544 223.017 276.544C224.553 276.544 225.769 276.064 226.665 275.104C227.561 274.144 228.009 272.832 228.009 271.168V269.024ZM228.169 264C228.169 263.253 228.031 262.549 227.753 261.888C227.497 261.227 227.135 260.661 226.665 260.192C226.217 259.701 225.673 259.317 225.033 259.04C224.393 258.763 223.711 258.624 222.985 258.624C222.239 258.624 221.556 258.763 220.937 259.04C220.319 259.317 219.775 259.701 219.305 260.192C218.836 260.661 218.473 261.227 218.217 261.888C217.961 262.549 217.833 263.253 217.833 264C217.833 264.747 217.961 265.451 218.217 266.112C218.473 266.773 218.836 267.349 219.305 267.84C219.775 268.309 220.319 268.683 220.937 268.96C221.556 269.237 222.239 269.376 222.985 269.376C223.711 269.376 224.393 269.237 225.033 268.96C225.673 268.683 226.217 268.309 226.665 267.84C227.135 267.349 227.497 266.773 227.753 266.112C228.031 265.451 228.169 264.747 228.169 264ZM243.985 259.008C243.942 259.008 243.878 258.997 243.793 258.976C243.729 258.976 243.644 258.976 243.537 258.976C243.43 258.955 243.324 258.944 243.217 258.944C241.766 258.944 240.625 259.467 239.793 260.512C238.982 261.557 238.577 262.923 238.577 264.608V272H235.857V256.448H238.545V259.2C238.716 258.752 238.961 258.347 239.281 257.984C239.622 257.6 240.006 257.28 240.433 257.024C240.86 256.768 241.318 256.565 241.809 256.416C242.3 256.267 242.801 256.192 243.313 256.192C243.42 256.192 243.505 256.203 243.569 256.224C243.654 256.224 243.729 256.224 243.793 256.224C243.878 256.245 243.942 256.256 243.985 256.256V259.008ZM253.579 272.352C252.427 272.352 251.36 272.149 250.379 271.744C249.419 271.339 248.587 270.784 247.883 270.08C247.179 269.355 246.624 268.501 246.219 267.52C245.835 266.517 245.643 265.419 245.643 264.224C245.643 263.072 245.835 262.005 246.219 261.024C246.624 260.021 247.168 259.157 247.851 258.432C248.555 257.707 249.376 257.141 250.315 256.736C251.254 256.309 252.278 256.096 253.387 256.096C254.475 256.096 255.478 256.309 256.395 256.736C257.334 257.141 258.134 257.707 258.795 258.432C259.478 259.157 260 260.011 260.363 260.992C260.747 261.952 260.939 262.987 260.939 264.096C260.939 264.267 260.928 264.416 260.907 264.544C260.907 264.651 260.907 264.747 260.907 264.832V265.088H248.395C248.438 265.771 248.608 266.411 248.907 267.008C249.206 267.584 249.59 268.085 250.059 268.512C250.528 268.939 251.062 269.28 251.659 269.536C252.278 269.771 252.928 269.888 253.611 269.888C254.784 269.888 255.702 269.643 256.363 269.152C257.046 268.64 257.632 268 258.123 267.232L260.363 268.384C259.723 269.557 258.827 270.517 257.675 271.264C256.523 271.989 255.158 272.352 253.579 272.352ZM258.155 262.816C258.091 262.197 257.92 261.632 257.643 261.12C257.366 260.587 257.014 260.128 256.587 259.744C256.16 259.36 255.67 259.061 255.115 258.848C254.56 258.613 253.963 258.496 253.323 258.496C252.683 258.496 252.086 258.624 251.531 258.88C250.976 259.136 250.475 259.467 250.027 259.872C249.6 260.277 249.248 260.736 248.971 261.248C248.694 261.76 248.523 262.283 248.459 262.816H258.155ZM279.863 256.448V272H277.143V269.504C276.588 270.379 275.82 271.072 274.839 271.584C273.857 272.096 272.791 272.352 271.639 272.352C270.529 272.352 269.495 272.149 268.535 271.744C267.596 271.317 266.775 270.741 266.071 270.016C265.367 269.291 264.812 268.437 264.407 267.456C264.023 266.453 263.831 265.376 263.831 264.224C263.831 263.072 264.023 262.005 264.407 261.024C264.812 260.043 265.367 259.189 266.071 258.464C266.775 257.717 267.596 257.141 268.535 256.736C269.495 256.309 270.529 256.096 271.639 256.096C272.791 256.096 273.847 256.331 274.807 256.8C275.788 257.269 276.567 257.941 277.143 258.816V256.448H279.863ZM277.303 264.224C277.303 263.435 277.164 262.699 276.887 262.016C276.631 261.333 276.257 260.747 275.767 260.256C275.297 259.744 274.732 259.349 274.071 259.072C273.431 258.773 272.727 258.624 271.959 258.624C271.191 258.624 270.476 258.773 269.815 259.072C269.175 259.349 268.609 259.744 268.119 260.256C267.649 260.747 267.276 261.333 266.999 262.016C266.743 262.699 266.615 263.435 266.615 264.224C266.615 265.013 266.743 265.749 266.999 266.432C267.276 267.115 267.649 267.712 268.119 268.224C268.609 268.715 269.175 269.109 269.815 269.408C270.476 269.685 271.191 269.824 271.959 269.824C272.727 269.824 273.431 269.685 274.071 269.408C274.732 269.109 275.297 268.715 275.767 268.224C276.257 267.712 276.631 267.115 276.887 266.432C277.164 265.749 277.303 265.013 277.303 264.224ZM288.342 251.776V256.448H292.694V258.912H288.342V267.136C288.342 268.053 288.545 268.725 288.95 269.152C289.377 269.579 290.038 269.792 290.934 269.792C291.233 269.792 291.542 269.76 291.862 269.696C292.182 269.611 292.459 269.483 292.694 269.312V271.872C292.417 272.021 292.075 272.139 291.67 272.224C291.286 272.309 290.827 272.352 290.294 272.352C288.822 272.352 287.67 271.925 286.838 271.072C286.006 270.219 285.59 269.035 285.59 267.52V258.912H283.19V256.448H285.59V251.776H288.342ZM88.9515 312V298.912H86.5515V296.448H88.9515V295.104C88.9515 294.123 89.0795 293.259 89.3355 292.512C89.6128 291.765 89.9862 291.157 90.4555 290.688C90.9462 290.197 91.5115 289.835 92.1515 289.6C92.8128 289.344 93.5275 289.216 94.2955 289.216C94.8502 289.216 95.3195 289.259 95.7035 289.344C96.0875 289.408 96.3968 289.493 96.6315 289.6V292.064C96.3968 291.957 96.1195 291.883 95.7995 291.84C95.5008 291.776 95.1488 291.744 94.7435 291.744C93.8688 291.744 93.1435 291.989 92.5675 292.48C91.9915 292.971 91.7035 293.824 91.7035 295.04V296.448H96.0555V298.912H91.7035V312H88.9515ZM102.542 291.84C102.542 292.352 102.361 292.789 101.998 293.152C101.635 293.515 101.198 293.696 100.686 293.696C100.174 293.696 99.7367 293.515 99.374 293.152C99.0113 292.789 98.83 292.352 98.83 291.84C98.83 291.328 99.0113 290.891 99.374 290.528C99.7367 290.165 100.174 289.984 100.686 289.984C101.198 289.984 101.635 290.165 101.998 290.528C102.361 290.891 102.542 291.328 102.542 291.84ZM102.062 296.448V312H99.31V296.448H102.062ZM110.545 291.776V296.448H114.897V298.912H110.545V307.136C110.545 308.053 110.748 308.725 111.153 309.152C111.58 309.579 112.241 309.792 113.137 309.792C113.436 309.792 113.745 309.76 114.065 309.696C114.385 309.611 114.662 309.483 114.897 309.312V311.872C114.62 312.021 114.278 312.139 113.873 312.224C113.489 312.309 113.03 312.352 112.497 312.352C111.025 312.352 109.873 311.925 109.041 311.072C108.209 310.219 107.793 309.035 107.793 307.52V298.912H105.393V296.448H107.793V291.776H110.545ZM127.108 312V298.912H124.708V296.448H127.108V295.104C127.108 294.123 127.236 293.259 127.492 292.512C127.769 291.765 128.142 291.157 128.612 290.688C129.102 290.197 129.668 289.835 130.308 289.6C130.969 289.344 131.684 289.216 132.452 289.216C133.006 289.216 133.476 289.259 133.86 289.344C134.244 289.408 134.553 289.493 134.788 289.6V292.064C134.553 291.957 134.276 291.883 133.956 291.84C133.657 291.776 133.305 291.744 132.9 291.744C132.025 291.744 131.3 291.989 130.724 292.48C130.148 292.971 129.86 293.824 129.86 295.04V296.448H134.212V298.912H129.86V312H127.108ZM143.662 296.096C144.835 296.096 145.912 296.309 146.894 296.736C147.896 297.163 148.76 297.749 149.486 298.496C150.211 299.221 150.776 300.075 151.182 301.056C151.587 302.037 151.79 303.093 151.79 304.224C151.79 305.355 151.587 306.411 151.182 307.392C150.776 308.373 150.211 309.237 149.486 309.984C148.76 310.709 147.896 311.285 146.894 311.712C145.912 312.139 144.835 312.352 143.662 312.352C142.488 312.352 141.4 312.139 140.398 311.712C139.416 311.285 138.563 310.709 137.838 309.984C137.112 309.237 136.547 308.373 136.142 307.392C135.736 306.411 135.534 305.355 135.534 304.224C135.534 303.093 135.736 302.037 136.142 301.056C136.547 300.075 137.112 299.221 137.838 298.496C138.563 297.749 139.416 297.163 140.398 296.736C141.4 296.309 142.488 296.096 143.662 296.096ZM143.662 298.624C142.894 298.624 142.179 298.773 141.518 299.072C140.878 299.349 140.312 299.744 139.822 300.256C139.352 300.768 138.979 301.365 138.702 302.048C138.446 302.731 138.318 303.456 138.318 304.224C138.318 304.992 138.446 305.717 138.702 306.4C138.979 307.083 139.352 307.68 139.822 308.192C140.312 308.704 140.878 309.109 141.518 309.408C142.179 309.685 142.894 309.824 143.662 309.824C144.43 309.824 145.134 309.685 145.774 309.408C146.435 309.109 147 308.704 147.47 308.192C147.96 307.68 148.334 307.083 148.59 306.4C148.867 305.717 149.006 304.992 149.006 304.224C149.006 303.456 148.867 302.731 148.59 302.048C148.334 301.365 147.96 300.768 147.47 300.256C147 299.744 146.435 299.349 145.774 299.072C145.134 298.773 144.43 298.624 143.662 298.624ZM163.907 299.008C163.864 299.008 163.8 298.997 163.715 298.976C163.651 298.976 163.565 298.976 163.459 298.976C163.352 298.955 163.245 298.944 163.139 298.944C161.688 298.944 160.547 299.467 159.715 300.512C158.904 301.557 158.499 302.923 158.499 304.608V312H155.779V296.448H158.467V299.2C158.637 298.752 158.883 298.347 159.203 297.984C159.544 297.6 159.928 297.28 160.355 297.024C160.781 296.768 161.24 296.565 161.731 296.416C162.221 296.267 162.723 296.192 163.235 296.192C163.341 296.192 163.427 296.203 163.491 296.224C163.576 296.224 163.651 296.224 163.715 296.224C163.8 296.245 163.864 296.256 163.907 296.256V299.008ZM178.514 291.776V296.448H182.866V298.912H178.514V307.136C178.514 308.053 178.716 308.725 179.122 309.152C179.548 309.579 180.21 309.792 181.106 309.792C181.404 309.792 181.714 309.76 182.034 309.696C182.354 309.611 182.631 309.483 182.866 309.312V311.872C182.588 312.021 182.247 312.139 181.842 312.224C181.458 312.309 180.999 312.352 180.466 312.352C178.994 312.352 177.842 311.925 177.01 311.072C176.178 310.219 175.762 309.035 175.762 307.52V298.912H173.362V296.448H175.762V291.776H178.514ZM189.281 312H186.529V289.6H189.281V298.688C189.771 297.92 190.422 297.301 191.233 296.832C192.065 296.341 193.067 296.096 194.241 296.096C196.246 296.096 197.793 296.715 198.881 297.952C199.969 299.168 200.513 300.811 200.513 302.88V312H197.761V303.2C197.761 301.792 197.409 300.683 196.705 299.872C196.022 299.061 195.009 298.656 193.665 298.656C192.321 298.656 191.254 299.125 190.465 300.064C189.675 301.003 189.281 302.272 189.281 303.872V312ZM208.636 291.84C208.636 292.352 208.454 292.789 208.092 293.152C207.729 293.515 207.292 293.696 206.78 293.696C206.268 293.696 205.83 293.515 205.468 293.152C205.105 292.789 204.924 292.352 204.924 291.84C204.924 291.328 205.105 290.891 205.468 290.528C205.83 290.165 206.268 289.984 206.78 289.984C207.292 289.984 207.729 290.165 208.092 290.528C208.454 290.891 208.636 291.328 208.636 291.84ZM208.156 296.448V312H205.404V296.448H208.156ZM214.239 307.2C214.473 308.032 214.9 308.704 215.519 309.216C216.159 309.707 216.884 309.952 217.695 309.952C218.356 309.952 218.953 309.76 219.487 309.376C220.02 308.992 220.287 308.459 220.287 307.776C220.287 306.773 219.551 306.027 218.079 305.536L216.351 304.96C214.943 304.491 213.919 303.893 213.279 303.168C212.66 302.421 212.351 301.547 212.351 300.544C212.351 299.883 212.479 299.285 212.735 298.752C212.991 298.197 213.343 297.728 213.791 297.344C214.239 296.939 214.772 296.629 215.391 296.416C216.009 296.203 216.681 296.096 217.407 296.096C218.687 296.096 219.785 296.437 220.703 297.12C221.62 297.781 222.292 298.699 222.719 299.872L220.319 300.832C220.041 300.085 219.647 299.509 219.135 299.104C218.623 298.677 218.025 298.464 217.343 298.464C216.703 298.464 216.159 298.645 215.711 299.008C215.284 299.349 215.071 299.797 215.071 300.352C215.071 301.269 215.828 301.995 217.343 302.528L218.943 303.072C220.351 303.563 221.375 304.192 222.015 304.96C222.676 305.707 223.007 306.592 223.007 307.616C223.007 308.299 222.868 308.939 222.591 309.536C222.313 310.112 221.929 310.613 221.439 311.04C220.969 311.445 220.404 311.765 219.743 312C219.103 312.235 218.399 312.352 217.631 312.352C216.18 312.352 214.932 311.968 213.887 311.2C212.863 310.432 212.169 309.408 211.807 308.128L214.239 307.2ZM242.688 299.008C242.645 299.008 242.581 298.997 242.496 298.976C242.432 298.976 242.347 298.976 242.24 298.976C242.133 298.955 242.027 298.944 241.92 298.944C240.469 298.944 239.328 299.467 238.496 300.512C237.685 301.557 237.28 302.923 237.28 304.608V312H234.56V296.448H237.248V299.2C237.419 298.752 237.664 298.347 237.984 297.984C238.325 297.6 238.709 297.28 239.136 297.024C239.563 296.768 240.021 296.565 240.512 296.416C241.003 296.267 241.504 296.192 242.016 296.192C242.123 296.192 242.208 296.203 242.272 296.224C242.357 296.224 242.432 296.224 242.496 296.224C242.581 296.245 242.645 296.256 242.688 296.256V299.008ZM252.474 296.096C253.648 296.096 254.725 296.309 255.706 296.736C256.709 297.163 257.573 297.749 258.298 298.496C259.024 299.221 259.589 300.075 259.994 301.056C260.4 302.037 260.602 303.093 260.602 304.224C260.602 305.355 260.4 306.411 259.994 307.392C259.589 308.373 259.024 309.237 258.298 309.984C257.573 310.709 256.709 311.285 255.706 311.712C254.725 312.139 253.648 312.352 252.474 312.352C251.301 312.352 250.213 312.139 249.21 311.712C248.229 311.285 247.376 310.709 246.65 309.984C245.925 309.237 245.36 308.373 244.954 307.392C244.549 306.411 244.346 305.355 244.346 304.224C244.346 303.093 244.549 302.037 244.954 301.056C245.36 300.075 245.925 299.221 246.65 298.496C247.376 297.749 248.229 297.163 249.21 296.736C250.213 296.309 251.301 296.096 252.474 296.096ZM252.474 298.624C251.706 298.624 250.992 298.773 250.33 299.072C249.69 299.349 249.125 299.744 248.634 300.256C248.165 300.768 247.792 301.365 247.514 302.048C247.258 302.731 247.13 303.456 247.13 304.224C247.13 304.992 247.258 305.717 247.514 306.4C247.792 307.083 248.165 307.68 248.634 308.192C249.125 308.704 249.69 309.109 250.33 309.408C250.992 309.685 251.706 309.824 252.474 309.824C253.242 309.824 253.946 309.685 254.586 309.408C255.248 309.109 255.813 308.704 256.282 308.192C256.773 307.68 257.146 307.083 257.402 306.4C257.68 305.717 257.818 304.992 257.818 304.224C257.818 303.456 257.68 302.731 257.402 302.048C257.146 301.365 256.773 300.768 256.282 300.256C255.813 299.744 255.248 299.349 254.586 299.072C253.946 298.773 253.242 298.624 252.474 298.624ZM267.343 289.6V312H264.591V289.6H267.343ZM279.282 312.352C278.13 312.352 277.064 312.149 276.082 311.744C275.122 311.339 274.29 310.784 273.586 310.08C272.882 309.355 272.328 308.501 271.922 307.52C271.538 306.517 271.346 305.419 271.346 304.224C271.346 303.072 271.538 302.005 271.922 301.024C272.328 300.021 272.872 299.157 273.554 298.432C274.258 297.707 275.08 297.141 276.018 296.736C276.957 296.309 277.981 296.096 279.09 296.096C280.178 296.096 281.181 296.309 282.098 296.736C283.037 297.141 283.837 297.707 284.498 298.432C285.181 299.157 285.704 300.011 286.066 300.992C286.45 301.952 286.642 302.987 286.642 304.096C286.642 304.267 286.632 304.416 286.61 304.544C286.61 304.651 286.61 304.747 286.61 304.832V305.088H274.098C274.141 305.771 274.312 306.411 274.61 307.008C274.909 307.584 275.293 308.085 275.762 308.512C276.232 308.939 276.765 309.28 277.362 309.536C277.981 309.771 278.632 309.888 279.314 309.888C280.488 309.888 281.405 309.643 282.066 309.152C282.749 308.64 283.336 308 283.826 307.232L286.066 308.384C285.426 309.557 284.53 310.517 283.378 311.264C282.226 311.989 280.861 312.352 279.282 312.352ZM283.858 302.816C283.794 302.197 283.624 301.632 283.346 301.12C283.069 300.587 282.717 300.128 282.29 299.744C281.864 299.36 281.373 299.061 280.818 298.848C280.264 298.613 279.666 298.496 279.026 298.496C278.386 298.496 277.789 298.624 277.234 298.88C276.68 299.136 276.178 299.467 275.73 299.872C275.304 300.277 274.952 300.736 274.674 301.248C274.397 301.76 274.226 302.283 274.162 302.816H283.858ZM293.634 289.6L293.378 305.696H290.882L290.626 289.6H293.634ZM294.082 310.336C294.082 310.869 293.89 311.328 293.506 311.712C293.143 312.096 292.684 312.288 292.13 312.288C291.575 312.288 291.106 312.107 290.722 311.744C290.359 311.36 290.178 310.891 290.178 310.336C290.178 309.781 290.359 309.323 290.722 308.96C291.106 308.597 291.575 308.416 292.13 308.416C292.684 308.416 293.143 308.608 293.506 308.992C293.89 309.355 294.082 309.803 294.082 310.336Z" fill="white"/>
<rect x="36" y="368" width="310" height="56" rx="28" fill="#1A1A1A"/>
<path d="M125.028 387.2L131.868 404H128.844L127.14 399.752H120.372L118.692 404H115.74L122.58 387.2H125.028ZM121.308 397.232H126.228L123.756 390.992L121.308 397.232ZM136.605 392.24V393.92C137.037 393.312 137.605 392.832 138.309 392.48C139.013 392.128 139.773 391.952 140.589 391.952C141.405 391.952 142.157 392.112 142.845 392.432C143.549 392.736 144.157 393.168 144.669 393.728C145.181 394.272 145.581 394.92 145.869 395.672C146.173 396.424 146.325 397.24 146.325 398.12C146.325 398.984 146.173 399.792 145.869 400.544C145.581 401.296 145.181 401.952 144.669 402.512C144.157 403.056 143.549 403.488 142.845 403.808C142.157 404.128 141.405 404.288 140.589 404.288C139.773 404.288 139.013 404.128 138.309 403.808C137.605 403.472 137.037 403 136.605 402.392V408.992H133.845V392.24H136.605ZM143.541 398.12C143.541 397.608 143.445 397.136 143.253 396.704C143.077 396.256 142.829 395.872 142.509 395.552C142.205 395.216 141.837 394.952 141.405 394.76C140.973 394.568 140.509 394.472 140.013 394.472C139.517 394.472 139.053 394.568 138.621 394.76C138.189 394.952 137.813 395.216 137.493 395.552C137.189 395.872 136.941 396.256 136.749 396.704C136.573 397.136 136.485 397.608 136.485 398.12C136.485 398.632 136.573 399.112 136.749 399.56C136.941 399.992 137.189 400.376 137.493 400.712C137.813 401.032 138.189 401.288 138.621 401.48C139.053 401.672 139.517 401.768 140.013 401.768C140.509 401.768 140.973 401.672 141.405 401.48C141.837 401.288 142.205 401.032 142.509 400.712C142.829 400.376 143.077 399.992 143.253 399.56C143.445 399.112 143.541 398.632 143.541 398.12ZM151.769 392.24V393.92C152.201 393.312 152.769 392.832 153.473 392.48C154.177 392.128 154.937 391.952 155.753 391.952C156.569 391.952 157.321 392.112 158.009 392.432C158.713 392.736 159.321 393.168 159.833 393.728C160.345 394.272 160.745 394.92 161.033 395.672C161.337 396.424 161.489 397.24 161.489 398.12C161.489 398.984 161.337 399.792 161.033 400.544C160.745 401.296 160.345 401.952 159.833 402.512C159.321 403.056 158.713 403.488 158.009 403.808C157.321 404.128 156.569 404.288 155.753 404.288C154.937 404.288 154.177 404.128 153.473 403.808C152.769 403.472 152.201 403 151.769 402.392V408.992H149.009V392.24H151.769ZM158.705 398.12C158.705 397.608 158.609 397.136 158.417 396.704C158.241 396.256 157.993 395.872 157.673 395.552C157.369 395.216 157.001 394.952 156.569 394.76C156.137 394.568 155.673 394.472 155.177 394.472C154.681 394.472 154.217 394.568 153.785 394.76C153.353 394.952 152.977 395.216 152.657 395.552C152.353 395.872 152.105 396.256 151.913 396.704C151.737 397.136 151.649 397.608 151.649 398.12C151.649 398.632 151.737 399.112 151.913 399.56C152.105 399.992 152.353 400.376 152.657 400.712C152.977 401.032 153.353 401.288 153.785 401.48C154.217 401.672 154.681 401.768 155.177 401.768C155.673 401.768 156.137 401.672 156.569 401.48C157.001 401.288 157.369 401.032 157.673 400.712C157.993 400.376 158.241 399.992 158.417 399.56C158.609 399.112 158.705 398.632 158.705 398.12ZM166.957 387.2V404H164.173V387.2H166.957ZM171.464 409.328C171.096 409.328 170.776 409.288 170.504 409.208C170.248 409.144 170.024 409.072 169.832 408.992V406.616C170.2 406.776 170.608 406.856 171.056 406.856C171.552 406.856 171.968 406.72 172.304 406.448C172.64 406.192 172.944 405.728 173.216 405.056L173.72 403.832L169.016 392.24H171.968L175.184 400.712L178.496 392.24H181.352L175.904 405.416C175.328 406.808 174.688 407.808 173.984 408.416C173.296 409.024 172.456 409.328 171.464 409.328ZM204.038 387.2V404H201.23L192.182 391.664V404H189.398V387.2H192.326L201.254 399.512V387.2H204.038ZM213.24 391.952C214.136 391.952 214.968 392.112 215.736 392.432C216.504 392.752 217.168 393.192 217.728 393.752C218.288 394.296 218.72 394.944 219.024 395.696C219.344 396.448 219.504 397.256 219.504 398.12C219.504 398.984 219.344 399.792 219.024 400.544C218.72 401.296 218.288 401.952 217.728 402.512C217.168 403.056 216.504 403.488 215.736 403.808C214.968 404.128 214.136 404.288 213.24 404.288C212.344 404.288 211.512 404.128 210.744 403.808C209.976 403.488 209.312 403.056 208.752 402.512C208.192 401.952 207.752 401.296 207.432 400.544C207.128 399.792 206.976 398.984 206.976 398.12C206.976 397.256 207.128 396.448 207.432 395.696C207.752 394.944 208.192 394.296 208.752 393.752C209.312 393.192 209.976 392.752 210.744 392.432C211.512 392.112 212.344 391.952 213.24 391.952ZM213.24 394.496C212.744 394.496 212.28 394.592 211.848 394.784C211.432 394.976 211.064 395.232 210.744 395.552C210.44 395.872 210.192 396.256 210 396.704C209.824 397.152 209.736 397.624 209.736 398.12C209.736 398.632 209.824 399.112 210 399.56C210.192 399.992 210.44 400.368 210.744 400.688C211.064 401.008 211.432 401.264 211.848 401.456C212.28 401.648 212.744 401.744 213.24 401.744C213.736 401.744 214.192 401.648 214.608 401.456C215.04 401.264 215.408 401.008 215.712 400.688C216.032 400.368 216.28 399.992 216.456 399.56C216.648 399.112 216.744 398.632 216.744 398.12C216.744 397.624 216.648 397.152 216.456 396.704C216.28 396.256 216.032 395.872 215.712 395.552C215.408 395.232 215.04 394.976 214.608 394.784C214.192 394.592 213.736 394.496 213.24 394.496ZM232.675 404L229.915 396.056L227.131 404H224.899L220.627 392.24H223.483L226.171 400.208L228.931 392.24H230.971L233.731 400.208L236.419 392.24H239.203L234.931 404H232.675ZM247.144 394.448H259.816L255.04 389.648L256.648 388.04L264.232 395.6L256.648 403.16L255.04 401.552L259.816 396.752H247.144V394.448Z" fill="white"/>
<g clip-path="url(#clip0_3034_810)">
<rect x="110" y="36" width="162" height="162" rx="8" fill="#FF005C"/>
<rect x="110" y="36" width="162" height="162" rx="8" fill="#FF005C"/>
<rect x="231" y="57" width="20" height="40" fill="#D9D9D9"/>
<rect x="131" y="137" width="20" height="40" fill="#D9D9D9"/>
<path fill-rule="evenodd" clip-rule="evenodd" d="M171 95C171 96.1046 170.105 97 169 97H133C131.895 97 131 96.1046 131 95V59C131 57.8954 131.895 57 133 57H169C170.105 57 171 57.8954 171 59V95ZM151 67C145.477 67 141 71.4772 141 77C141 82.5228 145.477 87 151 87C156.523 87 161 82.5228 161 77C161 71.4772 156.523 67 151 67Z" fill="#FF96BB"/>
<path fill-rule="evenodd" clip-rule="evenodd" d="M251 175C251 176.105 250.105 177 249 177H213C211.895 177 211 176.105 211 175V139C211 137.895 211.895 137 213 137H249C250.105 137 251 137.895 251 139V175ZM231 147C225.477 147 221 151.477 221 157C221 162.523 225.477 167 231 167C236.523 167 241 162.523 241 157C241 151.477 236.523 147 231 147Z" fill="#FF96BB"/>
<path d="M248 56.5C250.209 56.5 252 58.2909 252 60.5V95.5C252 96.6046 251.105 97.5 250 97.5H233C231.895 97.5 231 96.6046 231 95.5V74.3144C231 70.2748 227.725 67 223.686 67V67C220.617 67 217.874 68.9158 216.818 71.7973L181.922 167.006C179.612 173.309 173.613 177.5 166.9 177.5H134.5C132.291 177.5 130.5 175.709 130.5 173.5V139C130.5 137.895 131.395 137 132.5 137H149.5C150.605 137 151.5 137.895 151.5 139V159.686C151.5 163.725 154.775 167 158.814 167V167C161.883 167 164.626 165.084 165.682 162.203L200.578 66.9939C202.888 60.6907 208.887 56.5 215.6 56.5H248Z" fill="#FF96BB"/>
<rect x="131" y="113" width="120" height="8" rx="2" fill="#FF96BB"/>
</g>
<defs>
<clipPath id="clip0_3034_810">
<rect x="110" y="36" width="162" height="162" rx="8" fill="white"/>
</clipPath>
</defs>
</svg>
