<svg width="382" height="460" viewBox="0 0 382 460" fill="none" xmlns="http://www.w3.org/2000/svg">
<rect width="382" height="460" rx="8" fill="#0D0D0D"/>
<path d="M39.636 46.18C37.818 46.18 36.768 45.316 36.768 43.78C36.768 43.684 36.822 43.606 36.93 43.606H37.704C37.818 43.606 37.902 43.666 37.902 43.786C37.92 44.596 38.55 45.112 39.63 45.112C40.752 45.112 41.454 44.566 41.454 43.708C41.454 42.838 40.722 42.256 39.15 42.256C39.03 42.256 38.97 42.184 38.97 42.076V41.512C38.97 41.404 39.03 41.326 39.156 41.326C40.704 41.326 41.196 40.672 41.196 40.06C41.196 39.346 40.554 38.908 39.624 38.908C38.628 38.908 38.004 39.406 37.992 40.198C37.986 40.318 37.908 40.378 37.794 40.378H37.032C36.924 40.378 36.858 40.294 36.858 40.174C36.858 38.698 37.914 37.84 39.624 37.84C41.256 37.84 42.33 38.638 42.33 39.88C42.33 40.744 41.814 41.374 41.01 41.668V41.794C41.958 42.058 42.684 42.7 42.684 43.822C42.684 45.286 41.472 46.18 39.636 46.18ZM55.4276 38.104L57.7076 45.796C57.7436 45.916 57.6956 46 57.5636 46H56.6876C56.5916 46 56.5196 45.964 56.4836 45.856L56.0276 44.266H52.8836L52.4276 45.856C52.3916 45.964 52.3196 46 52.2236 46H51.3476C51.2156 46 51.1676 45.916 51.2036 45.796L53.4836 38.104C53.5076 38.008 53.5976 37.96 53.6936 37.96H55.2176C55.3136 37.96 55.4036 38.008 55.4276 38.104ZM54.3296 39.232L53.1896 43.192H55.7216L54.5816 39.232H54.3296ZM64.7004 44.65C64.9704 44.92 64.9764 45.046 64.8444 45.238C64.6704 45.484 63.9504 46.15 62.7504 46.15C61.7724 46.15 60.5124 45.694 60.5124 43.834V41.086H58.8564C58.7484 41.086 58.6764 41.014 58.6764 40.906V40.24C58.6764 40.132 58.7484 40.06 58.8564 40.06H60.5124V38.44C60.5124 38.332 60.5844 38.26 60.6924 38.26H61.5204C61.6284 38.26 61.7004 38.332 61.7004 38.44V40.06H64.4364C64.5444 40.06 64.6164 40.132 64.6164 40.24V40.906C64.6164 41.014 64.5444 41.086 64.4364 41.086H61.7004V43.636C61.7004 44.806 62.3544 45.07 62.9544 45.07C63.6264 45.07 64.0224 44.752 64.2324 44.56C64.3764 44.434 64.4724 44.422 64.7004 44.65ZM72.0833 44.65C72.3533 44.92 72.3593 45.046 72.2273 45.238C72.0533 45.484 71.3333 46.15 70.1333 46.15C69.1553 46.15 67.8953 45.694 67.8953 43.834V41.086H66.2393C66.1313 41.086 66.0593 41.014 66.0593 40.906V40.24C66.0593 40.132 66.1313 40.06 66.2393 40.06H67.8953V38.44C67.8953 38.332 67.9673 38.26 68.0753 38.26H68.9033C69.0113 38.26 69.0833 38.332 69.0833 38.44V40.06H71.8193C71.9273 40.06 71.9993 40.132 71.9993 40.24V40.906C71.9993 41.014 71.9273 41.086 71.8193 41.086H69.0833V43.636C69.0833 44.806 69.7373 45.07 70.3373 45.07C71.0093 45.07 71.4053 44.752 71.6153 44.56C71.7593 44.434 71.8553 44.422 72.0833 44.65ZM79.3941 45.19C79.5441 45.28 79.6221 45.352 79.6221 45.538V45.682C79.6221 45.994 79.3281 46.096 79.0461 46.096C78.5181 46.096 78.1341 45.742 78.1341 45.088V44.872H78.0921C77.8341 45.58 77.0601 46.15 75.9021 46.15H75.6081C74.3721 46.15 73.6821 45.472 73.6821 44.404C73.6821 43.438 74.2401 42.778 75.5061 42.7L77.9901 42.538V42.148C77.9901 41.224 77.6241 40.924 76.5561 40.924C75.6861 40.924 75.2001 41.122 75.1341 41.722C75.1221 41.806 75.0621 41.854 74.9541 41.854H74.1681C74.0601 41.854 73.9881 41.794 73.9941 41.674C74.0481 40.402 75.0441 39.94 76.5741 39.94C78.5661 39.94 79.1601 40.744 79.1601 42.136V44.488C79.1601 44.938 79.2201 45.088 79.3941 45.19ZM75.9801 45.202H76.1841C77.0541 45.202 77.9901 44.83 77.9901 43.81V43.336L75.8181 43.492C75.0381 43.546 74.8401 43.918 74.8401 44.338C74.8401 44.848 75.1461 45.202 75.9801 45.202ZM84.1909 45.052C84.8989 45.052 85.4449 44.734 85.8169 44.26C85.8889 44.164 85.9609 44.146 86.0569 44.212L86.6209 44.602C86.7169 44.662 86.7409 44.746 86.6749 44.842C86.1649 45.64 85.2649 46.15 84.1609 46.15C82.3789 46.15 81.0829 44.836 81.0829 43.042C81.0829 41.248 82.3789 39.94 84.1609 39.94C85.2709 39.94 86.1649 40.45 86.6749 41.248C86.7409 41.344 86.7169 41.428 86.6209 41.494L86.0569 41.878C85.9609 41.944 85.8889 41.926 85.8169 41.83C85.4449 41.356 84.8989 41.038 84.1909 41.038C83.0749 41.038 82.2409 41.842 82.2409 43.042C82.2409 44.242 83.0749 45.052 84.1909 45.052ZM91.8737 39.94C93.1577 39.94 94.0937 40.834 94.0937 42.4V45.82C94.0937 45.928 94.0217 46 93.9137 46H93.0857C92.9777 46 92.9057 45.928 92.9057 45.82V42.622C92.9057 41.674 92.3417 41.038 91.3817 41.038C90.4217 41.038 89.8337 41.674 89.8337 42.622V45.82C89.8337 45.928 89.7617 46 89.6537 46H88.8257C88.7177 46 88.6457 45.928 88.6457 45.82V37.78C88.6457 37.672 88.7177 37.6 88.8257 37.6H89.6537C89.7617 37.6 89.8337 37.672 89.8337 37.78V41.092H89.9837C90.2777 40.42 90.9557 39.94 91.8737 39.94ZM96.5985 46H95.8605C95.7525 46 95.6805 45.928 95.6805 45.82V40.24C95.6805 40.132 95.7525 40.06 95.8605 40.06H96.5625C96.6705 40.06 96.7365 40.132 96.7425 40.24L96.7725 40.834H96.8565C97.0305 40.222 97.4445 39.94 98.0325 39.94C98.6205 39.94 98.9865 40.222 99.1965 40.834H99.2625C99.4605 40.222 99.8805 39.94 100.481 39.94C101.339 39.94 101.825 40.51 101.825 41.752V45.82C101.825 45.928 101.753 46 101.645 46H100.907C100.799 46 100.727 45.928 100.727 45.82V41.92C100.727 41.35 100.463 41.032 99.9945 41.032C99.5265 41.032 99.2625 41.35 99.2625 41.92V45.82C99.2625 45.928 99.1905 46 99.0825 46H98.4225C98.3145 46 98.2425 45.928 98.2425 45.82V41.92C98.2425 41.35 97.9785 41.032 97.5105 41.032C97.0425 41.032 96.7785 41.35 96.7785 41.92V45.82C96.7785 45.928 96.7065 46 96.5985 46ZM109.057 42.79C109.057 43.144 108.997 43.336 108.571 43.336H104.347C104.395 44.482 105.193 45.166 106.471 45.166C107.119 45.166 107.653 44.992 108.031 44.764C108.193 44.662 108.283 44.686 108.457 44.902C108.637 45.124 108.679 45.262 108.499 45.43C108.031 45.874 107.245 46.15 106.363 46.15C104.467 46.15 103.213 44.896 103.213 43.03C103.213 41.182 104.419 39.94 106.225 39.94C108.031 39.94 109.057 41.164 109.057 42.79ZM106.225 40.96C105.217 40.972 104.557 41.524 104.395 42.478H108.013C107.923 41.524 107.263 40.954 106.225 40.96ZM114.022 39.94C115.306 39.94 116.242 40.834 116.242 42.4V45.82C116.242 45.928 116.17 46 116.062 46H115.234C115.126 46 115.054 45.928 115.054 45.82V42.622C115.054 41.674 114.49 41.038 113.53 41.038C112.57 41.038 111.982 41.674 111.982 42.622V45.82C111.982 45.928 111.91 46 111.802 46H110.974C110.866 46 110.794 45.928 110.794 45.82V40.24C110.794 40.132 110.866 40.06 110.974 40.06H111.754C111.862 40.06 111.928 40.132 111.934 40.24L111.982 41.092H112.132C112.426 40.42 113.104 39.94 114.022 39.94ZM123.763 44.65C124.033 44.92 124.039 45.046 123.907 45.238C123.733 45.484 123.013 46.15 121.813 46.15C120.835 46.15 119.575 45.694 119.575 43.834V41.086H117.919C117.811 41.086 117.739 41.014 117.739 40.906V40.24C117.739 40.132 117.811 40.06 117.919 40.06H119.575V38.44C119.575 38.332 119.647 38.26 119.755 38.26H120.583C120.691 38.26 120.763 38.332 120.763 38.44V40.06H123.499C123.607 40.06 123.679 40.132 123.679 40.24V40.906C123.679 41.014 123.607 41.086 123.499 41.086H120.763V43.636C120.763 44.806 121.417 45.07 122.017 45.07C122.689 45.07 123.085 44.752 123.295 44.56C123.439 44.434 123.535 44.422 123.763 44.65ZM128.368 42.586C129.598 42.736 131.002 42.934 131.002 44.35C131.002 45.448 130.132 46.15 128.29 46.15C126.814 46.15 125.686 45.694 125.566 44.608C125.554 44.488 125.626 44.428 125.734 44.428H126.532C126.64 44.428 126.688 44.476 126.712 44.56C126.838 45.004 127.42 45.202 128.296 45.202C129.28 45.202 129.844 44.95 129.844 44.356C129.844 43.756 129.262 43.618 128.2 43.492C126.97 43.342 125.68 43.09 125.68 41.722C125.68 40.642 126.508 39.94 128.254 39.94C129.634 39.94 130.756 40.384 130.876 41.464C130.888 41.584 130.81 41.644 130.702 41.644H129.91C129.802 41.644 129.748 41.596 129.73 41.512C129.64 41.104 129.022 40.888 128.206 40.888C127.36 40.888 126.838 41.122 126.838 41.704C126.838 42.304 127.372 42.466 128.368 42.586Z" fill="#FF005C"/>
<path d="M218.772 43.072H219.642C219.75 43.072 219.822 43.144 219.822 43.252V43.888C219.822 43.996 219.75 44.068 219.642 44.068H218.772V45.82C218.772 45.928 218.7 46 218.592 46H217.764C217.656 46 217.584 45.928 217.584 45.82V44.068H213.834C213.726 44.068 213.654 43.996 213.654 43.888V43.18C213.654 43.084 213.66 43.036 213.72 42.958L217.512 38.08C217.578 37.996 217.632 37.96 217.728 37.96H218.592C218.7 37.96 218.772 38.032 218.772 38.14V43.072ZM214.95 43.072H217.584V39.694L214.95 43.072ZM224.019 46.18C222.201 46.18 221.151 45.316 221.151 43.78C221.151 43.684 221.205 43.606 221.313 43.606H222.087C222.201 43.606 222.285 43.666 222.285 43.786C222.303 44.596 222.933 45.112 224.013 45.112C225.135 45.112 225.837 44.566 225.837 43.708C225.837 42.838 225.105 42.256 223.533 42.256C223.413 42.256 223.353 42.184 223.353 42.076V41.512C223.353 41.404 223.413 41.326 223.539 41.326C225.087 41.326 225.579 40.672 225.579 40.06C225.579 39.346 224.937 38.908 224.007 38.908C223.011 38.908 222.387 39.406 222.375 40.198C222.369 40.318 222.291 40.378 222.177 40.378H221.415C221.307 40.378 221.241 40.294 221.241 40.174C221.241 38.698 222.297 37.84 224.007 37.84C225.639 37.84 226.713 38.638 226.713 39.88C226.713 40.744 226.197 41.374 225.393 41.668V41.794C226.341 42.058 227.067 42.7 227.067 43.822C227.067 45.286 225.855 46.18 224.019 46.18ZM239.342 39.94C240.626 39.94 241.562 40.834 241.562 42.4V45.82C241.562 45.928 241.49 46 241.382 46H240.554C240.446 46 240.374 45.928 240.374 45.82V42.622C240.374 41.674 239.81 41.038 238.85 41.038C237.89 41.038 237.302 41.674 237.302 42.622V45.82C237.302 45.928 237.23 46 237.122 46H236.294C236.186 46 236.114 45.928 236.114 45.82V37.78C236.114 37.672 236.186 37.6 236.294 37.6H237.122C237.23 37.6 237.302 37.672 237.302 37.78V41.092H237.452C237.746 40.42 238.424 39.94 239.342 39.94ZM246.221 46.15C244.463 46.15 243.191 44.812 243.191 43.042C243.191 41.272 244.463 39.94 246.221 39.94C247.979 39.94 249.251 41.272 249.251 43.042C249.251 44.812 247.979 46.15 246.221 46.15ZM246.221 45.052C247.307 45.052 248.093 44.236 248.093 43.042C248.093 41.848 247.307 41.038 246.221 41.038C245.135 41.038 244.349 41.848 244.349 43.042C244.349 44.236 245.135 45.052 246.221 45.052ZM255.32 40.06H256.148C256.256 40.06 256.328 40.132 256.328 40.24V45.82C256.328 45.928 256.256 46 256.148 46H255.368C255.26 46 255.194 45.928 255.188 45.82L255.14 44.968H254.99C254.696 45.64 254.018 46.12 253.1 46.12C251.816 46.12 250.88 45.226 250.88 43.66V40.24C250.88 40.132 250.952 40.06 251.06 40.06H251.888C251.996 40.06 252.068 40.132 252.068 40.24V43.438C252.068 44.386 252.632 45.022 253.592 45.022C254.552 45.022 255.14 44.386 255.14 43.438V40.24C255.14 40.132 255.212 40.06 255.32 40.06ZM261.791 39.94C263.063 39.94 263.927 40.786 263.927 41.962C263.927 42.454 263.771 42.616 263.483 42.616H263.009C262.871 42.616 262.781 42.55 262.781 42.412C262.751 41.38 262.073 41.038 261.329 41.038C260.267 41.038 259.589 41.734 259.589 42.982V45.82C259.589 45.928 259.517 46 259.409 46H258.581C258.473 46 258.401 45.928 258.401 45.82V40.24C258.401 40.132 258.473 40.06 258.581 40.06H259.361C259.469 40.06 259.529 40.132 259.541 40.24L259.589 41.224H259.751C260.069 40.426 260.819 39.94 261.791 39.94ZM268.454 42.586C269.684 42.736 271.088 42.934 271.088 44.35C271.088 45.448 270.218 46.15 268.376 46.15C266.9 46.15 265.772 45.694 265.652 44.608C265.64 44.488 265.712 44.428 265.82 44.428H266.618C266.726 44.428 266.774 44.476 266.798 44.56C266.924 45.004 267.506 45.202 268.382 45.202C269.366 45.202 269.93 44.95 269.93 44.356C269.93 43.756 269.348 43.618 268.286 43.492C267.056 43.342 265.766 43.09 265.766 41.722C265.766 40.642 266.594 39.94 268.34 39.94C269.72 39.94 270.842 40.384 270.962 41.464C270.974 41.584 270.896 41.644 270.788 41.644H269.996C269.888 41.644 269.834 41.596 269.816 41.512C269.726 41.104 269.108 40.888 268.292 40.888C267.446 40.888 266.924 41.122 266.924 41.704C266.924 42.304 267.458 42.466 268.454 42.586ZM283.939 39.94C285.211 39.94 286.075 40.786 286.075 41.962C286.075 42.454 285.919 42.616 285.631 42.616H285.157C285.019 42.616 284.929 42.55 284.929 42.412C284.899 41.38 284.221 41.038 283.477 41.038C282.415 41.038 281.737 41.734 281.737 42.982V45.82C281.737 45.928 281.665 46 281.557 46H280.729C280.621 46 280.549 45.928 280.549 45.82V40.24C280.549 40.132 280.621 40.06 280.729 40.06H281.509C281.617 40.06 281.677 40.132 281.689 40.24L281.737 41.224H281.899C282.217 40.426 282.967 39.94 283.939 39.94ZM293.44 42.79C293.44 43.144 293.38 43.336 292.954 43.336H288.73C288.778 44.482 289.576 45.166 290.854 45.166C291.502 45.166 292.036 44.992 292.414 44.764C292.576 44.662 292.666 44.686 292.84 44.902C293.02 45.124 293.062 45.262 292.882 45.43C292.414 45.874 291.628 46.15 290.746 46.15C288.85 46.15 287.596 44.896 287.596 43.03C287.596 41.182 288.802 39.94 290.608 39.94C292.414 39.94 293.44 41.164 293.44 42.79ZM290.608 40.96C289.6 40.972 288.94 41.524 288.778 42.478H292.396C292.306 41.524 291.646 40.954 290.608 40.96ZM295.747 46H295.009C294.901 46 294.829 45.928 294.829 45.82V40.24C294.829 40.132 294.901 40.06 295.009 40.06H295.711C295.819 40.06 295.885 40.132 295.891 40.24L295.921 40.834H296.005C296.179 40.222 296.593 39.94 297.181 39.94C297.769 39.94 298.135 40.222 298.345 40.834H298.411C298.609 40.222 299.029 39.94 299.629 39.94C300.487 39.94 300.973 40.51 300.973 41.752V45.82C300.973 45.928 300.901 46 300.793 46H300.055C299.947 46 299.875 45.928 299.875 45.82V41.92C299.875 41.35 299.611 41.032 299.143 41.032C298.675 41.032 298.411 41.35 298.411 41.92V45.82C298.411 45.928 298.339 46 298.231 46H297.571C297.463 46 297.391 45.928 297.391 45.82V41.92C297.391 41.35 297.127 41.032 296.659 41.032C296.191 41.032 295.927 41.35 295.927 41.92V45.82C295.927 45.928 295.855 46 295.747 46ZM308.074 45.19C308.224 45.28 308.302 45.352 308.302 45.538V45.682C308.302 45.994 308.008 46.096 307.726 46.096C307.198 46.096 306.814 45.742 306.814 45.088V44.872H306.772C306.514 45.58 305.74 46.15 304.582 46.15H304.288C303.052 46.15 302.362 45.472 302.362 44.404C302.362 43.438 302.92 42.778 304.186 42.7L306.67 42.538V42.148C306.67 41.224 306.304 40.924 305.236 40.924C304.366 40.924 303.88 41.122 303.814 41.722C303.802 41.806 303.742 41.854 303.634 41.854H302.848C302.74 41.854 302.668 41.794 302.674 41.674C302.728 40.402 303.724 39.94 305.254 39.94C307.246 39.94 307.84 40.744 307.84 42.136V44.488C307.84 44.938 307.9 45.088 308.074 45.19ZM304.66 45.202H304.864C305.734 45.202 306.67 44.83 306.67 43.81V43.336L304.498 43.492C303.718 43.546 303.52 43.918 303.52 44.338C303.52 44.848 303.826 45.202 304.66 45.202ZM312.583 38.512C312.133 38.512 311.779 38.152 311.779 37.702C311.779 37.252 312.133 36.898 312.583 36.898C313.039 36.898 313.393 37.252 313.393 37.702C313.393 38.152 313.039 38.512 312.583 38.512ZM314.215 44.992H315.223C315.331 44.992 315.403 45.064 315.403 45.172V45.82C315.403 45.928 315.331 46 315.223 46H313.801C312.709 46 312.127 45.358 312.127 44.266V41.068H310.141C310.033 41.068 309.961 40.996 309.961 40.888V40.24C309.961 40.132 310.033 40.06 310.141 40.06H313.135C313.243 40.06 313.315 40.132 313.315 40.24V44.086C313.315 44.686 313.615 44.992 314.215 44.992ZM320.553 39.94C321.837 39.94 322.773 40.834 322.773 42.4V45.82C322.773 45.928 322.701 46 322.593 46H321.765C321.657 46 321.585 45.928 321.585 45.82V42.622C321.585 41.674 321.021 41.038 320.061 41.038C319.101 41.038 318.513 41.674 318.513 42.622V45.82C318.513 45.928 318.441 46 318.333 46H317.505C317.397 46 317.325 45.928 317.325 45.82V40.24C317.325 40.132 317.397 40.06 317.505 40.06H318.285C318.393 40.06 318.459 40.132 318.465 40.24L318.513 41.092H318.663C318.957 40.42 319.635 39.94 320.553 39.94ZM327.348 38.512C326.898 38.512 326.544 38.152 326.544 37.702C326.544 37.252 326.898 36.898 327.348 36.898C327.804 36.898 328.158 37.252 328.158 37.702C328.158 38.152 327.804 38.512 327.348 38.512ZM328.98 44.992H329.988C330.096 44.992 330.168 45.064 330.168 45.172V45.82C330.168 45.928 330.096 46 329.988 46H328.566C327.474 46 326.892 45.358 326.892 44.266V41.068H324.906C324.798 41.068 324.726 40.996 324.726 40.888V40.24C324.726 40.132 324.798 40.06 324.906 40.06H327.9C328.008 40.06 328.08 40.132 328.08 40.24V44.086C328.08 44.686 328.38 44.992 328.98 44.992ZM335.319 39.94C336.603 39.94 337.539 40.834 337.539 42.4V45.82C337.539 45.928 337.467 46 337.359 46H336.531C336.423 46 336.351 45.928 336.351 45.82V42.622C336.351 41.674 335.787 41.038 334.827 41.038C333.867 41.038 333.279 41.674 333.279 42.622V45.82C333.279 45.928 333.207 46 333.099 46H332.271C332.163 46 332.091 45.928 332.091 45.82V40.24C332.091 40.132 332.163 40.06 332.271 40.06H333.051C333.159 40.06 333.225 40.132 333.231 40.24L333.279 41.092H333.429C333.723 40.42 334.401 39.94 335.319 39.94ZM344.148 40.06H344.898C345.006 40.06 345.078 40.132 345.078 40.24V45.67C345.078 47.83 343.434 48.376 341.928 48.376C341.112 48.376 340.338 48.214 339.828 47.908C339.732 47.854 339.714 47.758 339.75 47.662L339.942 47.116C339.978 47.014 340.068 46.99 340.164 47.026C340.674 47.248 341.184 47.35 341.826 47.35C342.96 47.35 343.962 47.02 343.962 45.61V44.5H343.782C343.536 45.226 342.774 45.7 341.802 45.7C340.236 45.7 339.168 44.476 339.168 42.856C339.168 41.182 340.302 39.94 341.916 39.94C342.84 39.94 343.512 40.348 343.938 40.942L343.968 40.24C343.98 40.132 344.04 40.06 344.148 40.06ZM342.12 44.662C343.182 44.662 343.926 43.894 343.926 42.838C343.926 41.776 343.182 41.026 342.12 41.026C341.064 41.026 340.32 41.776 340.32 42.838C340.32 43.894 341.064 44.662 342.12 44.662Z" fill="white"/>
<path d="M47.872 72.6L57.088 95H54.08L51.456 88.504H41.952L39.328 95H36.384L45.632 72.6H47.872ZM42.976 85.912H50.432L46.688 76.6L42.976 85.912ZM60.0288 101.656V79.448H62.7488V81.912C63.3034 81.0587 64.0714 80.376 65.0528 79.864C66.0341 79.352 67.1008 79.096 68.2528 79.096C69.3621 79.096 70.3861 79.3093 71.3248 79.736C72.2848 80.1413 73.1168 80.7067 73.8208 81.432C74.5248 82.1573 75.0688 83.0213 75.4528 84.024C75.8581 85.0053 76.0608 86.072 76.0608 87.224C76.0608 88.376 75.8581 89.4427 75.4528 90.424C75.0688 91.4053 74.5248 92.2693 73.8208 93.016C73.1168 93.7413 72.2848 94.3173 71.3248 94.744C70.3861 95.1493 69.3621 95.352 68.2528 95.352C67.1008 95.352 66.0341 95.1173 65.0528 94.648C64.0928 94.1787 63.3248 93.5173 62.7488 92.664V101.656H60.0288ZM73.2768 87.224C73.2768 86.4347 73.1381 85.6987 72.8608 85.016C72.6048 84.3333 72.2314 83.7467 71.7408 83.256C71.2714 82.744 70.7061 82.3493 70.0448 82.072C69.4048 81.7733 68.7008 81.624 67.9328 81.624C67.1648 81.624 66.4501 81.7733 65.7888 82.072C65.1488 82.3493 64.5834 82.744 64.0928 83.256C63.6234 83.7467 63.2501 84.3333 62.9728 85.016C62.7168 85.6987 62.5888 86.4347 62.5888 87.224C62.5888 88.0133 62.7168 88.7493 62.9728 89.432C63.2501 90.1147 63.6234 90.712 64.0928 91.224C64.5834 91.7147 65.1488 92.1093 65.7888 92.408C66.4501 92.6853 67.1648 92.824 67.9328 92.824C68.7008 92.824 69.4048 92.6853 70.0448 92.408C70.7061 92.1093 71.2714 91.7147 71.7408 91.224C72.2314 90.712 72.6048 90.1147 72.8608 89.432C73.1381 88.7493 73.2768 88.0133 73.2768 87.224ZM80.06 101.656V79.448H82.78V81.912C83.3347 81.0587 84.1027 80.376 85.084 79.864C86.0653 79.352 87.132 79.096 88.284 79.096C89.3933 79.096 90.4173 79.3093 91.356 79.736C92.316 80.1413 93.148 80.7067 93.852 81.432C94.556 82.1573 95.1 83.0213 95.484 84.024C95.8893 85.0053 96.092 86.072 96.092 87.224C96.092 88.376 95.8893 89.4427 95.484 90.424C95.1 91.4053 94.556 92.2693 93.852 93.016C93.148 93.7413 92.316 94.3173 91.356 94.744C90.4173 95.1493 89.3933 95.352 88.284 95.352C87.132 95.352 86.0653 95.1173 85.084 94.648C84.124 94.1787 83.356 93.5173 82.78 92.664V101.656H80.06ZM93.308 87.224C93.308 86.4347 93.1693 85.6987 92.892 85.016C92.636 84.3333 92.2627 83.7467 91.772 83.256C91.3027 82.744 90.7373 82.3493 90.076 82.072C89.436 81.7733 88.732 81.624 87.964 81.624C87.196 81.624 86.4813 81.7733 85.82 82.072C85.18 82.3493 84.6147 82.744 84.124 83.256C83.6547 83.7467 83.2813 84.3333 83.004 85.016C82.748 85.6987 82.62 86.4347 82.62 87.224C82.62 88.0133 82.748 88.7493 83.004 89.432C83.2813 90.1147 83.6547 90.712 84.124 91.224C84.6147 91.7147 85.18 92.1093 85.82 92.408C86.4813 92.6853 87.196 92.824 87.964 92.824C88.732 92.824 89.436 92.6853 90.076 92.408C90.7373 92.1093 91.3027 91.7147 91.772 91.224C92.2627 90.712 92.636 90.1147 92.892 89.432C93.1693 88.7493 93.308 88.0133 93.308 87.224ZM102.843 72.6V95H100.091V72.6H102.843ZM111.198 74.84C111.198 75.352 111.017 75.7893 110.654 76.152C110.292 76.5147 109.854 76.696 109.342 76.696C108.83 76.696 108.393 76.5147 108.03 76.152C107.668 75.7893 107.486 75.352 107.486 74.84C107.486 74.328 107.668 73.8907 108.03 73.528C108.393 73.1653 108.83 72.984 109.342 72.984C109.854 72.984 110.292 73.1653 110.654 73.528C111.017 73.8907 111.198 74.328 111.198 74.84ZM110.718 79.448V95H107.966V79.448H110.718ZM114.721 87.224C114.721 86.0933 114.913 85.0373 115.297 84.056C115.703 83.0533 116.268 82.1893 116.993 81.464C117.719 80.7173 118.572 80.1413 119.553 79.736C120.556 79.3093 121.655 79.096 122.849 79.096C124.471 79.096 125.943 79.544 127.265 80.44V83.224C125.9 82.1787 124.471 81.656 122.977 81.656C122.188 81.656 121.452 81.8053 120.769 82.104C120.108 82.3813 119.532 82.776 119.041 83.288C118.572 83.7787 118.199 84.3653 117.921 85.048C117.644 85.7093 117.505 86.4347 117.505 87.224C117.505 87.992 117.644 88.7173 117.921 89.4C118.199 90.0827 118.572 90.68 119.041 91.192C119.532 91.6827 120.108 92.0773 120.769 92.376C121.452 92.6533 122.188 92.792 122.977 92.792C123.788 92.792 124.567 92.6427 125.313 92.344C126.06 92.024 126.743 91.6613 127.361 91.256V94.04C126.679 94.4667 125.964 94.7867 125.217 95C124.471 95.2347 123.692 95.352 122.881 95.352C121.665 95.352 120.556 95.1493 119.553 94.744C118.551 94.3173 117.687 93.7413 116.961 93.016C116.257 92.2693 115.703 91.4053 115.297 90.424C114.913 89.4427 114.721 88.376 114.721 87.224ZM146.191 79.448V95H143.471V92.504C142.916 93.3787 142.148 94.072 141.167 94.584C140.185 95.096 139.119 95.352 137.967 95.352C136.857 95.352 135.823 95.1493 134.863 94.744C133.924 94.3173 133.103 93.7413 132.399 93.016C131.695 92.2907 131.14 91.4373 130.735 90.456C130.351 89.4533 130.159 88.376 130.159 87.224C130.159 86.072 130.351 85.0053 130.735 84.024C131.14 83.0427 131.695 82.1893 132.399 81.464C133.103 80.7173 133.924 80.1413 134.863 79.736C135.823 79.3093 136.857 79.096 137.967 79.096C139.119 79.096 140.175 79.3307 141.135 79.8C142.116 80.2693 142.895 80.9413 143.471 81.816V79.448H146.191ZM143.631 87.224C143.631 86.4347 143.492 85.6987 143.215 85.016C142.959 84.3333 142.585 83.7467 142.095 83.256C141.625 82.744 141.06 82.3493 140.399 82.072C139.759 81.7733 139.055 81.624 138.287 81.624C137.519 81.624 136.804 81.7733 136.143 82.072C135.503 82.3493 134.937 82.744 134.447 83.256C133.977 83.7467 133.604 84.3333 133.327 85.016C133.071 85.6987 132.943 86.4347 132.943 87.224C132.943 88.0133 133.071 88.7493 133.327 89.432C133.604 90.1147 133.977 90.712 134.447 91.224C134.937 91.7147 135.503 92.1093 136.143 92.408C136.804 92.6853 137.519 92.824 138.287 92.824C139.055 92.824 139.759 92.6853 140.399 92.408C141.06 92.1093 141.625 91.7147 142.095 91.224C142.585 90.712 142.959 90.1147 143.215 89.432C143.492 88.7493 143.631 88.0133 143.631 87.224ZM154.67 74.776V79.448H159.022V81.912H154.67V90.136C154.67 91.0533 154.873 91.7253 155.278 92.152C155.705 92.5787 156.366 92.792 157.262 92.792C157.561 92.792 157.87 92.76 158.19 92.696C158.51 92.6107 158.787 92.4827 159.022 92.312V94.872C158.745 95.0213 158.403 95.1387 157.998 95.224C157.614 95.3093 157.155 95.352 156.622 95.352C155.15 95.352 153.998 94.9253 153.166 94.072C152.334 93.2187 151.918 92.0347 151.918 90.52V81.912H149.518V79.448H151.918V74.776H154.67ZM166.073 74.84C166.073 75.352 165.892 75.7893 165.529 76.152C165.167 76.5147 164.729 76.696 164.217 76.696C163.705 76.696 163.268 76.5147 162.905 76.152C162.543 75.7893 162.361 75.352 162.361 74.84C162.361 74.328 162.543 73.8907 162.905 73.528C163.268 73.1653 163.705 72.984 164.217 72.984C164.729 72.984 165.167 73.1653 165.529 73.528C165.892 73.8907 166.073 74.328 166.073 74.84ZM165.593 79.448V95H162.841V79.448H165.593ZM177.724 79.096C178.898 79.096 179.975 79.3093 180.956 79.736C181.959 80.1627 182.823 80.7493 183.548 81.496C184.274 82.2213 184.839 83.0747 185.244 84.056C185.65 85.0373 185.852 86.0933 185.852 87.224C185.852 88.3547 185.65 89.4107 185.244 90.392C184.839 91.3733 184.274 92.2373 183.548 92.984C182.823 93.7093 181.959 94.2853 180.956 94.712C179.975 95.1387 178.898 95.352 177.724 95.352C176.551 95.352 175.463 95.1387 174.46 94.712C173.479 94.2853 172.626 93.7093 171.9 92.984C171.175 92.2373 170.61 91.3733 170.204 90.392C169.799 89.4107 169.596 88.3547 169.596 87.224C169.596 86.0933 169.799 85.0373 170.204 84.056C170.61 83.0747 171.175 82.2213 171.9 81.496C172.626 80.7493 173.479 80.1627 174.46 79.736C175.463 79.3093 176.551 79.096 177.724 79.096ZM177.724 81.624C176.956 81.624 176.242 81.7733 175.58 82.072C174.94 82.3493 174.375 82.744 173.884 83.256C173.415 83.768 173.042 84.3653 172.764 85.048C172.508 85.7307 172.38 86.456 172.38 87.224C172.38 87.992 172.508 88.7173 172.764 89.4C173.042 90.0827 173.415 90.68 173.884 91.192C174.375 91.704 174.94 92.1093 175.58 92.408C176.242 92.6853 176.956 92.824 177.724 92.824C178.492 92.824 179.196 92.6853 179.836 92.408C180.498 92.1093 181.063 91.704 181.532 91.192C182.023 90.68 182.396 90.0827 182.652 89.4C182.93 88.7173 183.068 87.992 183.068 87.224C183.068 86.456 182.93 85.7307 182.652 85.048C182.396 84.3653 182.023 83.768 181.532 83.256C181.063 82.744 180.498 82.3493 179.836 82.072C179.196 81.7733 178.492 81.624 177.724 81.624ZM192.593 95H189.841V79.448H192.593V81.688C193.084 80.92 193.735 80.3013 194.545 79.832C195.377 79.3413 196.38 79.096 197.553 79.096C199.559 79.096 201.105 79.7147 202.193 80.952C203.281 82.168 203.825 83.8107 203.825 85.88V95H201.073V86.2C201.073 84.792 200.721 83.6827 200.017 82.872C199.335 82.0613 198.321 81.656 196.977 81.656C195.633 81.656 194.567 82.1253 193.777 83.064C192.988 84.0027 192.593 85.272 192.593 86.872V95Z" fill="white"/>
<rect x="35" y="139" width="311" height="79" rx="8" fill="#1A1A1A"/>
<rect x="51" y="155" width="48" height="48" rx="8" fill="#FF005C"/>
<path d="M81.9506 185.38C80.3783 184.567 77.7849 183.5 75 183.5C72.2151 183.5 69.6217 184.567 68.0494 185.38C67.0343 185.905 66.423 186.935 66.2883 188.07L66 190.5H84L83.7117 188.07C83.577 186.935 82.9657 185.905 81.9506 185.38Z" stroke="white" stroke-width="2" stroke-linecap="round" stroke-linejoin="round"/>
<path d="M75 180C77.4853 180 79.5 177.985 79.5 175.5C79.5 173.015 77.4853 171 75 171C72.5147 171 70.5 173.015 70.5 175.5C70.5 177.985 72.5147 180 75 180Z" stroke="white" stroke-width="2" stroke-linecap="round" stroke-linejoin="round"/>
<path d="M117.24 162H119.32L123.26 168.12L127.2 162H129.24L124.14 169.76V176H122.36V169.76L117.24 162ZM133.664 166.06C134.397 166.06 135.07 166.193 135.684 166.46C136.31 166.727 136.85 167.093 137.304 167.56C137.757 168.013 138.11 168.547 138.364 169.16C138.617 169.773 138.744 170.433 138.744 171.14C138.744 171.847 138.617 172.507 138.364 173.12C138.11 173.733 137.757 174.273 137.304 174.74C136.85 175.193 136.31 175.553 135.684 175.82C135.07 176.087 134.397 176.22 133.664 176.22C132.93 176.22 132.25 176.087 131.624 175.82C131.01 175.553 130.477 175.193 130.024 174.74C129.57 174.273 129.217 173.733 128.964 173.12C128.71 172.507 128.584 171.847 128.584 171.14C128.584 170.433 128.71 169.773 128.964 169.16C129.217 168.547 129.57 168.013 130.024 167.56C130.477 167.093 131.01 166.727 131.624 166.46C132.25 166.193 132.93 166.06 133.664 166.06ZM133.664 167.64C133.184 167.64 132.737 167.733 132.324 167.92C131.924 168.093 131.57 168.34 131.264 168.66C130.97 168.98 130.737 169.353 130.564 169.78C130.404 170.207 130.324 170.66 130.324 171.14C130.324 171.62 130.404 172.073 130.564 172.5C130.737 172.927 130.97 173.3 131.264 173.62C131.57 173.94 131.924 174.193 132.324 174.38C132.737 174.553 133.184 174.64 133.664 174.64C134.144 174.64 134.584 174.553 134.984 174.38C135.397 174.193 135.75 173.94 136.044 173.62C136.35 173.3 136.584 172.927 136.744 172.5C136.917 172.073 137.004 171.62 137.004 171.14C137.004 170.66 136.917 170.207 136.744 169.78C136.584 169.353 136.35 168.98 136.044 168.66C135.75 168.34 135.397 168.093 134.984 167.92C134.584 167.733 134.144 167.64 133.664 167.64ZM147.998 166.28H149.718V176H147.998V174.6C147.691 175.08 147.285 175.473 146.778 175.78C146.271 176.073 145.651 176.22 144.918 176.22C143.678 176.22 142.718 175.84 142.038 175.08C141.371 174.307 141.038 173.273 141.038 171.98V166.28H142.758V171.78C142.758 172.66 142.971 173.353 143.398 173.86C143.825 174.367 144.451 174.62 145.278 174.62C146.105 174.62 146.765 174.327 147.258 173.74C147.751 173.153 147.998 172.36 147.998 171.36V166.28ZM157.996 167.88C157.97 167.88 157.93 167.873 157.876 167.86C157.836 167.86 157.783 167.86 157.716 167.86C157.65 167.847 157.583 167.84 157.516 167.84C156.61 167.84 155.896 168.167 155.376 168.82C154.87 169.473 154.616 170.327 154.616 171.38V176H152.916V166.28H154.596V168C154.703 167.72 154.856 167.467 155.056 167.24C155.27 167 155.51 166.8 155.776 166.64C156.043 166.48 156.33 166.353 156.636 166.26C156.943 166.167 157.256 166.12 157.576 166.12C157.643 166.12 157.696 166.127 157.736 166.14C157.79 166.14 157.836 166.14 157.876 166.14C157.93 166.153 157.97 166.16 157.996 166.16V167.88ZM165.026 180.16V166.28H166.726V167.82C167.072 167.287 167.552 166.86 168.166 166.54C168.779 166.22 169.446 166.06 170.166 166.06C170.859 166.06 171.499 166.193 172.086 166.46C172.686 166.713 173.206 167.067 173.646 167.52C174.086 167.973 174.426 168.513 174.666 169.14C174.919 169.753 175.046 170.42 175.046 171.14C175.046 171.86 174.919 172.527 174.666 173.14C174.426 173.753 174.086 174.293 173.646 174.76C173.206 175.213 172.686 175.573 172.086 175.84C171.499 176.093 170.859 176.22 170.166 176.22C169.446 176.22 168.779 176.073 168.166 175.78C167.566 175.487 167.086 175.073 166.726 174.54V180.16H165.026ZM173.306 171.14C173.306 170.647 173.219 170.187 173.046 169.76C172.886 169.333 172.652 168.967 172.346 168.66C172.052 168.34 171.699 168.093 171.286 167.92C170.886 167.733 170.446 167.64 169.966 167.64C169.486 167.64 169.039 167.733 168.626 167.92C168.226 168.093 167.872 168.34 167.566 168.66C167.272 168.967 167.039 169.333 166.866 169.76C166.706 170.187 166.626 170.647 166.626 171.14C166.626 171.633 166.706 172.093 166.866 172.52C167.039 172.947 167.272 173.32 167.566 173.64C167.872 173.947 168.226 174.193 168.626 174.38C169.039 174.553 169.486 174.64 169.966 174.64C170.446 174.64 170.886 174.553 171.286 174.38C171.699 174.193 172.052 173.947 172.346 173.64C172.652 173.32 172.886 172.947 173.046 172.52C173.219 172.093 173.306 171.633 173.306 171.14ZM182.625 167.88C182.599 167.88 182.559 167.873 182.505 167.86C182.465 167.86 182.412 167.86 182.345 167.86C182.279 167.847 182.212 167.84 182.145 167.84C181.239 167.84 180.525 168.167 180.005 168.82C179.499 169.473 179.245 170.327 179.245 171.38V176H177.545V166.28H179.225V168C179.332 167.72 179.485 167.467 179.685 167.24C179.899 167 180.139 166.8 180.405 166.64C180.672 166.48 180.959 166.353 181.265 166.26C181.572 166.167 181.885 166.12 182.205 166.12C182.272 166.12 182.325 166.127 182.365 166.14C182.419 166.14 182.465 166.14 182.505 166.14C182.559 166.153 182.599 166.16 182.625 166.16V167.88ZM188.742 166.06C189.475 166.06 190.148 166.193 190.762 166.46C191.388 166.727 191.928 167.093 192.382 167.56C192.835 168.013 193.188 168.547 193.442 169.16C193.695 169.773 193.822 170.433 193.822 171.14C193.822 171.847 193.695 172.507 193.442 173.12C193.188 173.733 192.835 174.273 192.382 174.74C191.928 175.193 191.388 175.553 190.762 175.82C190.148 176.087 189.475 176.22 188.742 176.22C188.008 176.22 187.328 176.087 186.702 175.82C186.088 175.553 185.555 175.193 185.102 174.74C184.648 174.273 184.295 173.733 184.042 173.12C183.788 172.507 183.662 171.847 183.662 171.14C183.662 170.433 183.788 169.773 184.042 169.16C184.295 168.547 184.648 168.013 185.102 167.56C185.555 167.093 186.088 166.727 186.702 166.46C187.328 166.193 188.008 166.06 188.742 166.06ZM188.742 167.64C188.262 167.64 187.815 167.733 187.402 167.92C187.002 168.093 186.648 168.34 186.342 168.66C186.048 168.98 185.815 169.353 185.642 169.78C185.482 170.207 185.402 170.66 185.402 171.14C185.402 171.62 185.482 172.073 185.642 172.5C185.815 172.927 186.048 173.3 186.342 173.62C186.648 173.94 187.002 174.193 187.402 174.38C187.815 174.553 188.262 174.64 188.742 174.64C189.222 174.64 189.662 174.553 190.062 174.38C190.475 174.193 190.828 173.94 191.122 173.62C191.428 173.3 191.662 172.927 191.822 172.5C191.995 172.073 192.082 171.62 192.082 171.14C192.082 170.66 191.995 170.207 191.822 169.78C191.662 169.353 191.428 168.98 191.122 168.66C190.828 168.34 190.475 168.093 190.062 167.92C189.662 167.733 189.222 167.64 188.742 167.64ZM196.462 176V167.82H194.962V166.28H196.462V165.44C196.462 164.827 196.542 164.287 196.702 163.82C196.875 163.353 197.109 162.973 197.402 162.68C197.709 162.373 198.062 162.147 198.462 162C198.875 161.84 199.322 161.76 199.802 161.76C200.149 161.76 200.442 161.787 200.682 161.84C200.922 161.88 201.115 161.933 201.262 162V163.54C201.115 163.473 200.942 163.427 200.742 163.4C200.555 163.36 200.335 163.34 200.082 163.34C199.535 163.34 199.082 163.493 198.722 163.8C198.362 164.107 198.182 164.64 198.182 165.4V166.28H200.902V167.82H198.182V176H196.462ZM204.956 163.4C204.956 163.72 204.843 163.993 204.616 164.22C204.389 164.447 204.116 164.56 203.796 164.56C203.476 164.56 203.203 164.447 202.976 164.22C202.749 163.993 202.636 163.72 202.636 163.4C202.636 163.08 202.749 162.807 202.976 162.58C203.203 162.353 203.476 162.24 203.796 162.24C204.116 162.24 204.389 162.353 204.616 162.58C204.843 162.807 204.956 163.08 204.956 163.4ZM204.656 166.28V176H202.936V166.28H204.656ZM209.578 162V176H207.858V162H209.578ZM217.04 176.22C216.32 176.22 215.653 176.093 215.04 175.84C214.44 175.587 213.92 175.24 213.48 174.8C213.04 174.347 212.693 173.813 212.44 173.2C212.2 172.573 212.08 171.887 212.08 171.14C212.08 170.42 212.2 169.753 212.44 169.14C212.693 168.513 213.033 167.973 213.46 167.52C213.9 167.067 214.413 166.713 215 166.46C215.586 166.193 216.226 166.06 216.92 166.06C217.6 166.06 218.226 166.193 218.8 166.46C219.386 166.713 219.886 167.067 220.3 167.52C220.726 167.973 221.053 168.507 221.28 169.12C221.52 169.72 221.64 170.367 221.64 171.06C221.64 171.167 221.633 171.26 221.62 171.34C221.62 171.407 221.62 171.467 221.62 171.52V171.68H213.8C213.826 172.107 213.933 172.507 214.12 172.88C214.306 173.24 214.546 173.553 214.84 173.82C215.133 174.087 215.466 174.3 215.84 174.46C216.226 174.607 216.633 174.68 217.06 174.68C217.793 174.68 218.366 174.527 218.78 174.22C219.206 173.9 219.573 173.5 219.88 173.02L221.28 173.74C220.88 174.473 220.32 175.073 219.6 175.54C218.88 175.993 218.026 176.22 217.04 176.22ZM219.9 170.26C219.86 169.873 219.753 169.52 219.58 169.2C219.406 168.867 219.186 168.58 218.92 168.34C218.653 168.1 218.346 167.913 218 167.78C217.653 167.633 217.28 167.56 216.88 167.56C216.48 167.56 216.106 167.64 215.76 167.8C215.413 167.96 215.1 168.167 214.82 168.42C214.553 168.673 214.333 168.96 214.16 169.28C213.986 169.6 213.88 169.927 213.84 170.26H219.9Z" fill="white"/>
<path d="M121.626 195.968H123.336C123.444 195.968 123.516 196.04 123.516 196.148V196.82C123.516 196.928 123.444 197 123.336 197H118.104C117.996 197 117.924 196.928 117.924 196.82V196.148C117.924 196.04 117.996 195.968 118.104 195.968H120.438V190.094C119.988 191.132 119.142 191.378 118.044 191.378C117.924 191.378 117.864 191.312 117.864 191.204V190.466C117.864 190.358 117.924 190.286 118.044 190.286C118.89 190.286 119.826 189.926 120.438 188.96H121.446C121.554 188.96 121.626 189.032 121.626 189.14V195.968ZM128.073 197.18C125.991 197.18 125.115 196.19 125.115 193.01C125.115 189.83 125.991 188.84 128.073 188.84C130.155 188.84 131.031 189.83 131.031 193.01C131.031 196.19 130.155 197.18 128.073 197.18ZM128.073 196.028C129.303 196.028 129.879 195.578 129.879 193.01C129.879 190.442 129.303 189.992 128.073 189.992C126.843 189.992 126.267 190.442 126.267 193.01C126.267 195.578 126.843 196.028 128.073 196.028ZM127.899 194.03H127.179L128.259 191.99H128.979L127.899 194.03ZM144.866 191.06H145.7C145.832 191.06 145.904 191.132 145.844 191.264L142.568 199.136C142.526 199.232 142.448 199.28 142.352 199.28H141.518C141.386 199.28 141.314 199.208 141.374 199.076L142.244 197.012L139.832 191.264C139.772 191.132 139.844 191.06 139.976 191.06H140.81C140.906 191.06 140.984 191.108 141.026 191.204L142.838 195.674L144.65 191.204C144.692 191.108 144.77 191.06 144.866 191.06ZM153.143 193.79C153.143 194.144 153.083 194.336 152.657 194.336H148.433C148.481 195.482 149.279 196.166 150.557 196.166C151.205 196.166 151.739 195.992 152.117 195.764C152.279 195.662 152.369 195.686 152.543 195.902C152.723 196.124 152.765 196.262 152.585 196.43C152.117 196.874 151.331 197.15 150.449 197.15C148.553 197.15 147.299 195.896 147.299 194.03C147.299 192.182 148.505 190.94 150.311 190.94C152.117 190.94 153.143 192.164 153.143 193.79ZM150.311 191.96C149.303 191.972 148.643 192.524 148.481 193.478H152.099C152.009 192.524 151.349 191.954 150.311 191.96ZM160.394 196.19C160.544 196.28 160.622 196.352 160.622 196.538V196.682C160.622 196.994 160.328 197.096 160.046 197.096C159.518 197.096 159.134 196.742 159.134 196.088V195.872H159.092C158.834 196.58 158.06 197.15 156.902 197.15H156.608C155.372 197.15 154.682 196.472 154.682 195.404C154.682 194.438 155.24 193.778 156.506 193.7L158.99 193.538V193.148C158.99 192.224 158.624 191.924 157.556 191.924C156.686 191.924 156.2 192.122 156.134 192.722C156.122 192.806 156.062 192.854 155.954 192.854H155.168C155.06 192.854 154.988 192.794 154.994 192.674C155.048 191.402 156.044 190.94 157.574 190.94C159.566 190.94 160.16 191.744 160.16 193.136V195.488C160.16 195.938 160.22 196.088 160.394 196.19ZM156.98 196.202H157.184C158.054 196.202 158.99 195.83 158.99 194.81V194.336L156.818 194.492C156.038 194.546 155.84 194.918 155.84 195.338C155.84 195.848 156.146 196.202 156.98 196.202ZM165.791 190.94C167.063 190.94 167.927 191.786 167.927 192.962C167.927 193.454 167.771 193.616 167.483 193.616H167.009C166.871 193.616 166.781 193.55 166.781 193.412C166.751 192.38 166.073 192.038 165.329 192.038C164.267 192.038 163.589 192.734 163.589 193.982V196.82C163.589 196.928 163.517 197 163.409 197H162.581C162.473 197 162.401 196.928 162.401 196.82V191.24C162.401 191.132 162.473 191.06 162.581 191.06H163.361C163.469 191.06 163.529 191.132 163.541 191.24L163.589 192.224H163.751C164.069 191.426 164.819 190.94 165.791 190.94ZM172.454 193.586C173.684 193.736 175.088 193.934 175.088 195.35C175.088 196.448 174.218 197.15 172.376 197.15C170.9 197.15 169.772 196.694 169.652 195.608C169.64 195.488 169.712 195.428 169.82 195.428H170.618C170.726 195.428 170.774 195.476 170.798 195.56C170.924 196.004 171.506 196.202 172.382 196.202C173.366 196.202 173.93 195.95 173.93 195.356C173.93 194.756 173.348 194.618 172.286 194.492C171.056 194.342 169.766 194.09 169.766 192.722C169.766 191.642 170.594 190.94 172.34 190.94C173.72 190.94 174.842 191.384 174.962 192.464C174.974 192.584 174.896 192.644 174.788 192.644H173.996C173.888 192.644 173.834 192.596 173.816 192.512C173.726 192.104 173.108 191.888 172.292 191.888C171.446 191.888 170.924 192.122 170.924 192.704C170.924 193.304 171.458 193.466 172.454 193.586ZM187.135 197.15C185.377 197.15 184.105 195.812 184.105 194.042C184.105 192.272 185.377 190.94 187.135 190.94C188.893 190.94 190.165 192.272 190.165 194.042C190.165 195.812 188.893 197.15 187.135 197.15ZM187.135 196.052C188.221 196.052 189.007 195.236 189.007 194.042C189.007 192.848 188.221 192.038 187.135 192.038C186.049 192.038 185.263 192.848 185.263 194.042C185.263 195.236 186.049 196.052 187.135 196.052ZM197.242 188.39C197.332 188.414 197.374 188.468 197.374 188.564V189.2C197.374 189.326 197.308 189.38 197.176 189.362C197.008 189.338 196.618 189.248 196.072 189.248C195.154 189.248 194.458 189.5 194.458 190.844V191.09H197.086C197.194 191.09 197.266 191.162 197.266 191.27V191.936C197.266 192.044 197.194 192.116 197.086 192.116H194.458V196.82C194.458 196.928 194.386 197 194.278 197H193.45C193.342 197 193.27 196.928 193.27 196.82V192.116H191.914C191.806 192.116 191.734 192.044 191.734 191.936V191.27C191.734 191.162 191.806 191.09 191.914 191.09H193.27V190.688C193.27 188.69 194.554 188.192 195.838 188.192C196.45 188.192 196.99 188.306 197.242 188.39ZM212.206 193.79C212.206 194.144 212.146 194.336 211.72 194.336H207.496C207.544 195.482 208.342 196.166 209.62 196.166C210.268 196.166 210.802 195.992 211.18 195.764C211.342 195.662 211.432 195.686 211.606 195.902C211.786 196.124 211.828 196.262 211.648 196.43C211.18 196.874 210.394 197.15 209.512 197.15C207.616 197.15 206.362 195.896 206.362 194.03C206.362 192.182 207.568 190.94 209.374 190.94C211.18 190.94 212.206 192.164 212.206 193.79ZM209.374 191.96C208.366 191.972 207.706 192.524 207.544 193.478H211.162C211.072 192.524 210.412 191.954 209.374 191.96ZM217.363 193.946L219.787 196.784C219.883 196.898 219.829 197 219.679 197H218.683C218.599 197 218.533 196.976 218.467 196.898L216.667 194.762L214.861 196.898C214.801 196.976 214.735 197 214.645 197H213.649C213.499 197 213.457 196.898 213.553 196.784L215.983 193.946L213.709 191.276C213.613 191.162 213.667 191.06 213.817 191.06H214.801C214.885 191.06 214.951 191.084 215.017 191.162L216.667 193.13L218.317 191.162C218.377 191.084 218.443 191.06 218.533 191.06H219.511C219.667 191.06 219.727 191.156 219.619 191.276L217.363 193.946ZM224.367 190.94C226.065 190.94 227.103 192.26 227.103 194.042C227.103 195.824 226.065 197.15 224.367 197.15C223.359 197.15 222.735 196.682 222.429 196.088H222.291V199.1C222.291 199.208 222.219 199.28 222.111 199.28H221.325C221.217 199.28 221.145 199.208 221.145 199.1V191.24C221.145 191.132 221.217 191.06 221.325 191.06H222.153C222.261 191.06 222.333 191.132 222.333 191.24V191.972H222.429C222.735 191.402 223.359 190.94 224.367 190.94ZM224.109 196.058C225.237 196.058 225.945 195.26 225.945 194.042C225.945 192.824 225.237 192.032 224.109 192.032C222.981 192.032 222.267 192.824 222.267 194.042C222.267 195.248 222.981 196.058 224.109 196.058ZM234.354 193.79C234.354 194.144 234.294 194.336 233.868 194.336H229.644C229.692 195.482 230.49 196.166 231.768 196.166C232.416 196.166 232.95 195.992 233.328 195.764C233.49 195.662 233.58 195.686 233.754 195.902C233.934 196.124 233.976 196.262 233.796 196.43C233.328 196.874 232.542 197.15 231.66 197.15C229.764 197.15 228.51 195.896 228.51 194.03C228.51 192.182 229.716 190.94 231.522 190.94C233.328 190.94 234.354 192.164 234.354 193.79ZM231.522 191.96C230.514 191.972 229.854 192.524 229.692 193.478H233.31C233.22 192.524 232.56 191.954 231.522 191.96ZM239.619 190.94C240.891 190.94 241.755 191.786 241.755 192.962C241.755 193.454 241.599 193.616 241.311 193.616H240.837C240.699 193.616 240.609 193.55 240.609 193.412C240.579 192.38 239.901 192.038 239.157 192.038C238.095 192.038 237.417 192.734 237.417 193.982V196.82C237.417 196.928 237.345 197 237.237 197H236.409C236.301 197 236.229 196.928 236.229 196.82V191.24C236.229 191.132 236.301 191.06 236.409 191.06H237.189C237.297 191.06 237.357 191.132 237.369 191.24L237.417 192.224H237.579C237.897 191.426 238.647 190.94 239.619 190.94ZM246.114 189.512C245.664 189.512 245.31 189.152 245.31 188.702C245.31 188.252 245.664 187.898 246.114 187.898C246.57 187.898 246.924 188.252 246.924 188.702C246.924 189.152 246.57 189.512 246.114 189.512ZM247.746 195.992H248.754C248.862 195.992 248.934 196.064 248.934 196.172V196.82C248.934 196.928 248.862 197 248.754 197H247.332C246.24 197 245.658 196.358 245.658 195.266V192.068H243.672C243.564 192.068 243.492 191.996 243.492 191.888V191.24C243.492 191.132 243.564 191.06 243.672 191.06H246.666C246.774 191.06 246.846 191.132 246.846 191.24V195.086C246.846 195.686 247.146 195.992 247.746 195.992ZM256.503 193.79C256.503 194.144 256.443 194.336 256.017 194.336H251.793C251.841 195.482 252.639 196.166 253.917 196.166C254.565 196.166 255.099 195.992 255.477 195.764C255.639 195.662 255.729 195.686 255.903 195.902C256.083 196.124 256.125 196.262 255.945 196.43C255.477 196.874 254.691 197.15 253.809 197.15C251.913 197.15 250.659 195.896 250.659 194.03C250.659 192.182 251.865 190.94 253.671 190.94C255.477 190.94 256.503 192.164 256.503 193.79ZM253.671 191.96C252.663 191.972 252.003 192.524 251.841 193.478H255.459C255.369 192.524 254.709 191.954 253.671 191.96ZM261.467 190.94C262.751 190.94 263.687 191.834 263.687 193.4V196.82C263.687 196.928 263.615 197 263.507 197H262.679C262.571 197 262.499 196.928 262.499 196.82V193.622C262.499 192.674 261.935 192.038 260.975 192.038C260.015 192.038 259.427 192.674 259.427 193.622V196.82C259.427 196.928 259.355 197 259.247 197H258.419C258.311 197 258.239 196.928 258.239 196.82V191.24C258.239 191.132 258.311 191.06 258.419 191.06H259.199C259.307 191.06 259.373 191.132 259.379 191.24L259.427 192.092H259.577C259.871 191.42 260.549 190.94 261.467 190.94ZM268.55 196.052C269.258 196.052 269.804 195.734 270.176 195.26C270.248 195.164 270.32 195.146 270.416 195.212L270.98 195.602C271.076 195.662 271.1 195.746 271.034 195.842C270.524 196.64 269.624 197.15 268.52 197.15C266.738 197.15 265.442 195.836 265.442 194.042C265.442 192.248 266.738 190.94 268.52 190.94C269.63 190.94 270.524 191.45 271.034 192.248C271.1 192.344 271.076 192.428 270.98 192.494L270.416 192.878C270.32 192.944 270.248 192.926 270.176 192.83C269.804 192.356 269.258 192.038 268.55 192.038C267.434 192.038 266.6 192.842 266.6 194.042C266.6 195.242 267.434 196.052 268.55 196.052ZM278.651 193.79C278.651 194.144 278.591 194.336 278.165 194.336H273.941C273.989 195.482 274.787 196.166 276.065 196.166C276.713 196.166 277.247 195.992 277.625 195.764C277.787 195.662 277.877 195.686 278.051 195.902C278.231 196.124 278.273 196.262 278.093 196.43C277.625 196.874 276.839 197.15 275.957 197.15C274.061 197.15 272.807 195.896 272.807 194.03C272.807 192.182 274.013 190.94 275.819 190.94C277.625 190.94 278.651 192.164 278.651 193.79ZM275.819 191.96C274.811 191.972 274.151 192.524 273.989 193.478H277.607C277.517 192.524 276.857 191.954 275.819 191.96Z" fill="#FF005C"/>
<rect x="35" y="242" width="311" height="79" rx="8" fill="#1A1A1A"/>
<rect x="51" y="258" width="48" height="48" rx="8" fill="#FF005C"/>
<path d="M86 282C86 288.075 81.0751 293 75 293M86 282C86 275.925 81.0751 271 75 271M86 282H64M75 293C68.9249 293 64 288.075 64 282M75 293C75 293 71 290.8 71 282C71 273.2 75 271 75 271M75 293C75 293 79 290.8 79 282C79 273.2 75 271 75 271M64 282C64 275.925 68.9249 271 75 271" stroke="white" stroke-width="2"/>
<path d="M117.24 265H119.32L123.26 271.12L127.2 265H129.24L124.14 272.76V279H122.36V272.76L117.24 265ZM133.664 269.06C134.397 269.06 135.07 269.193 135.684 269.46C136.31 269.727 136.85 270.093 137.304 270.56C137.757 271.013 138.11 271.547 138.364 272.16C138.617 272.773 138.744 273.433 138.744 274.14C138.744 274.847 138.617 275.507 138.364 276.12C138.11 276.733 137.757 277.273 137.304 277.74C136.85 278.193 136.31 278.553 135.684 278.82C135.07 279.087 134.397 279.22 133.664 279.22C132.93 279.22 132.25 279.087 131.624 278.82C131.01 278.553 130.477 278.193 130.024 277.74C129.57 277.273 129.217 276.733 128.964 276.12C128.71 275.507 128.584 274.847 128.584 274.14C128.584 273.433 128.71 272.773 128.964 272.16C129.217 271.547 129.57 271.013 130.024 270.56C130.477 270.093 131.01 269.727 131.624 269.46C132.25 269.193 132.93 269.06 133.664 269.06ZM133.664 270.64C133.184 270.64 132.737 270.733 132.324 270.92C131.924 271.093 131.57 271.34 131.264 271.66C130.97 271.98 130.737 272.353 130.564 272.78C130.404 273.207 130.324 273.66 130.324 274.14C130.324 274.62 130.404 275.073 130.564 275.5C130.737 275.927 130.97 276.3 131.264 276.62C131.57 276.94 131.924 277.193 132.324 277.38C132.737 277.553 133.184 277.64 133.664 277.64C134.144 277.64 134.584 277.553 134.984 277.38C135.397 277.193 135.75 276.94 136.044 276.62C136.35 276.3 136.584 275.927 136.744 275.5C136.917 275.073 137.004 274.62 137.004 274.14C137.004 273.66 136.917 273.207 136.744 272.78C136.584 272.353 136.35 271.98 136.044 271.66C135.75 271.34 135.397 271.093 134.984 270.92C134.584 270.733 134.144 270.64 133.664 270.64ZM147.998 269.28H149.718V279H147.998V277.6C147.691 278.08 147.285 278.473 146.778 278.78C146.271 279.073 145.651 279.22 144.918 279.22C143.678 279.22 142.718 278.84 142.038 278.08C141.371 277.307 141.038 276.273 141.038 274.98V269.28H142.758V274.78C142.758 275.66 142.971 276.353 143.398 276.86C143.825 277.367 144.451 277.62 145.278 277.62C146.105 277.62 146.765 277.327 147.258 276.74C147.751 276.153 147.998 275.36 147.998 274.36V269.28ZM157.996 270.88C157.97 270.88 157.93 270.873 157.876 270.86C157.836 270.86 157.783 270.86 157.716 270.86C157.65 270.847 157.583 270.84 157.516 270.84C156.61 270.84 155.896 271.167 155.376 271.82C154.87 272.473 154.616 273.327 154.616 274.38V279H152.916V269.28H154.596V271C154.703 270.72 154.856 270.467 155.056 270.24C155.27 270 155.51 269.8 155.776 269.64C156.043 269.48 156.33 269.353 156.636 269.26C156.943 269.167 157.256 269.12 157.576 269.12C157.643 269.12 157.696 269.127 157.736 269.14C157.79 269.14 157.836 269.14 157.876 269.14C157.93 269.153 157.97 269.16 157.996 269.16V270.88ZM169.566 265C170.232 265 170.839 265.093 171.386 265.28C171.946 265.453 172.426 265.713 172.826 266.06C173.226 266.407 173.532 266.833 173.746 267.34C173.972 267.833 174.086 268.4 174.086 269.04C174.086 269.68 173.972 270.253 173.746 270.76C173.532 271.253 173.226 271.673 172.826 272.02C172.426 272.353 171.946 272.613 171.386 272.8C170.839 272.973 170.232 273.06 169.566 273.06H167.006V279H165.226V265H169.566ZM167.006 271.42H169.566C170.366 271.42 171.019 271.213 171.526 270.8C172.032 270.387 172.286 269.8 172.286 269.04C172.286 268.267 172.032 267.673 171.526 267.26C171.019 266.847 170.366 266.64 169.566 266.64H167.006V271.42ZM180.187 269.06C180.92 269.06 181.594 269.193 182.207 269.46C182.834 269.727 183.374 270.093 183.827 270.56C184.28 271.013 184.634 271.547 184.887 272.16C185.14 272.773 185.267 273.433 185.267 274.14C185.267 274.847 185.14 275.507 184.887 276.12C184.634 276.733 184.28 277.273 183.827 277.74C183.374 278.193 182.834 278.553 182.207 278.82C181.594 279.087 180.92 279.22 180.187 279.22C179.454 279.22 178.774 279.087 178.147 278.82C177.534 278.553 177 278.193 176.547 277.74C176.094 277.273 175.74 276.733 175.487 276.12C175.234 275.507 175.107 274.847 175.107 274.14C175.107 273.433 175.234 272.773 175.487 272.16C175.74 271.547 176.094 271.013 176.547 270.56C177 270.093 177.534 269.727 178.147 269.46C178.774 269.193 179.454 269.06 180.187 269.06ZM180.187 270.64C179.707 270.64 179.26 270.733 178.847 270.92C178.447 271.093 178.094 271.34 177.787 271.66C177.494 271.98 177.26 272.353 177.087 272.78C176.927 273.207 176.847 273.66 176.847 274.14C176.847 274.62 176.927 275.073 177.087 275.5C177.26 275.927 177.494 276.3 177.787 276.62C178.094 276.94 178.447 277.193 178.847 277.38C179.26 277.553 179.707 277.64 180.187 277.64C180.667 277.64 181.107 277.553 181.507 277.38C181.92 277.193 182.274 276.94 182.567 276.62C182.874 276.3 183.107 275.927 183.267 275.5C183.44 275.073 183.527 274.62 183.527 274.14C183.527 273.66 183.44 273.207 183.267 272.78C183.107 272.353 182.874 271.98 182.567 271.66C182.274 271.34 181.92 271.093 181.507 270.92C181.107 270.733 180.667 270.64 180.187 270.64ZM192.84 270.88C192.813 270.88 192.773 270.873 192.72 270.86C192.68 270.86 192.627 270.86 192.56 270.86C192.493 270.847 192.427 270.84 192.36 270.84C191.453 270.84 190.74 271.167 190.22 271.82C189.713 272.473 189.46 273.327 189.46 274.38V279H187.76V269.28H189.44V271C189.547 270.72 189.7 270.467 189.9 270.24C190.113 270 190.353 269.8 190.62 269.64C190.887 269.48 191.173 269.353 191.48 269.26C191.787 269.167 192.1 269.12 192.42 269.12C192.487 269.12 192.54 269.127 192.58 269.14C192.633 269.14 192.68 269.14 192.72 269.14C192.773 269.153 192.813 269.16 192.84 269.16V270.88ZM197.263 266.36V269.28H199.983V270.82H197.263V275.96C197.263 276.533 197.389 276.953 197.643 277.22C197.909 277.487 198.323 277.62 198.883 277.62C199.069 277.62 199.263 277.6 199.463 277.56C199.663 277.507 199.836 277.427 199.983 277.32V278.92C199.809 279.013 199.596 279.087 199.343 279.14C199.103 279.193 198.816 279.22 198.483 279.22C197.563 279.22 196.843 278.953 196.323 278.42C195.803 277.887 195.543 277.147 195.543 276.2V270.82H194.043V269.28H195.543V266.36H197.263ZM202.907 279V270.82H201.407V269.28H202.907V268.44C202.907 267.827 202.987 267.287 203.147 266.82C203.321 266.353 203.554 265.973 203.847 265.68C204.154 265.373 204.507 265.147 204.907 265C205.321 264.84 205.767 264.76 206.247 264.76C206.594 264.76 206.887 264.787 207.127 264.84C207.367 264.88 207.561 264.933 207.707 265V266.54C207.561 266.473 207.387 266.427 207.187 266.4C207.001 266.36 206.781 266.34 206.527 266.34C205.981 266.34 205.527 266.493 205.167 266.8C204.807 267.107 204.627 267.64 204.627 268.4V269.28H207.347V270.82H204.627V279H202.907ZM213.253 269.06C213.987 269.06 214.66 269.193 215.273 269.46C215.9 269.727 216.44 270.093 216.893 270.56C217.347 271.013 217.7 271.547 217.953 272.16C218.207 272.773 218.333 273.433 218.333 274.14C218.333 274.847 218.207 275.507 217.953 276.12C217.7 276.733 217.347 277.273 216.893 277.74C216.44 278.193 215.9 278.553 215.273 278.82C214.66 279.087 213.987 279.22 213.253 279.22C212.52 279.22 211.84 279.087 211.213 278.82C210.6 278.553 210.067 278.193 209.613 277.74C209.16 277.273 208.807 276.733 208.553 276.12C208.3 275.507 208.173 274.847 208.173 274.14C208.173 273.433 208.3 272.773 208.553 272.16C208.807 271.547 209.16 271.013 209.613 270.56C210.067 270.093 210.6 269.727 211.213 269.46C211.84 269.193 212.52 269.06 213.253 269.06ZM213.253 270.64C212.773 270.64 212.327 270.733 211.913 270.92C211.513 271.093 211.16 271.34 210.853 271.66C210.56 271.98 210.327 272.353 210.153 272.78C209.993 273.207 209.913 273.66 209.913 274.14C209.913 274.62 209.993 275.073 210.153 275.5C210.327 275.927 210.56 276.3 210.853 276.62C211.16 276.94 211.513 277.193 211.913 277.38C212.327 277.553 212.773 277.64 213.253 277.64C213.733 277.64 214.173 277.553 214.573 277.38C214.987 277.193 215.34 276.94 215.633 276.62C215.94 276.3 216.173 275.927 216.333 275.5C216.507 275.073 216.593 274.62 216.593 274.14C216.593 273.66 216.507 273.207 216.333 272.78C216.173 272.353 215.94 271.98 215.633 271.66C215.34 271.34 214.987 271.093 214.573 270.92C214.173 270.733 213.733 270.64 213.253 270.64ZM222.547 265V279H220.827V265H222.547ZM227.768 266.4C227.768 266.72 227.655 266.993 227.428 267.22C227.202 267.447 226.928 267.56 226.608 267.56C226.288 267.56 226.015 267.447 225.788 267.22C225.562 266.993 225.448 266.72 225.448 266.4C225.448 266.08 225.562 265.807 225.788 265.58C226.015 265.353 226.288 265.24 226.608 265.24C226.928 265.24 227.202 265.353 227.428 265.58C227.655 265.807 227.768 266.08 227.768 266.4ZM227.468 269.28V279H225.748V269.28H227.468ZM235.05 269.06C235.784 269.06 236.457 269.193 237.07 269.46C237.697 269.727 238.237 270.093 238.69 270.56C239.144 271.013 239.497 271.547 239.75 272.16C240.004 272.773 240.13 273.433 240.13 274.14C240.13 274.847 240.004 275.507 239.75 276.12C239.497 276.733 239.144 277.273 238.69 277.74C238.237 278.193 237.697 278.553 237.07 278.82C236.457 279.087 235.784 279.22 235.05 279.22C234.317 279.22 233.637 279.087 233.01 278.82C232.397 278.553 231.864 278.193 231.41 277.74C230.957 277.273 230.604 276.733 230.35 276.12C230.097 275.507 229.97 274.847 229.97 274.14C229.97 273.433 230.097 272.773 230.35 272.16C230.604 271.547 230.957 271.013 231.41 270.56C231.864 270.093 232.397 269.727 233.01 269.46C233.637 269.193 234.317 269.06 235.05 269.06ZM235.05 270.64C234.57 270.64 234.124 270.733 233.71 270.92C233.31 271.093 232.957 271.34 232.65 271.66C232.357 271.98 232.124 272.353 231.95 272.78C231.79 273.207 231.71 273.66 231.71 274.14C231.71 274.62 231.79 275.073 231.95 275.5C232.124 275.927 232.357 276.3 232.65 276.62C232.957 276.94 233.31 277.193 233.71 277.38C234.124 277.553 234.57 277.64 235.05 277.64C235.53 277.64 235.97 277.553 236.37 277.38C236.784 277.193 237.137 276.94 237.43 276.62C237.737 276.3 237.97 275.927 238.13 275.5C238.304 275.073 238.39 274.62 238.39 274.14C238.39 273.66 238.304 273.207 238.13 272.78C237.97 272.353 237.737 271.98 237.43 271.66C237.137 271.34 236.784 271.093 236.37 270.92C235.97 270.733 235.53 270.64 235.05 270.64Z" fill="white"/>
<path d="M123.558 295.77C123.666 295.77 123.738 295.842 123.738 295.95V296.748C123.738 299.136 122.862 300.18 120.816 300.18C118.734 300.18 117.702 299.076 117.702 296.01C117.702 292.944 118.734 291.84 120.804 291.84C122.376 291.84 123.504 292.44 123.636 294.522C123.648 294.648 123.6 294.72 123.48 294.72H122.67C122.568 294.72 122.496 294.678 122.484 294.564C122.328 293.292 121.668 293.022 120.81 293.022C119.652 293.022 118.902 293.544 118.902 296.01C118.902 298.476 119.652 298.998 120.84 298.998C121.992 298.998 122.58 298.566 122.58 296.772V296.754H120.594C120.486 296.754 120.414 296.682 120.414 296.574V295.95C120.414 295.842 120.486 295.77 120.594 295.77H123.558ZM128.877 293.94C130.149 293.94 131.013 294.786 131.013 295.962C131.013 296.454 130.857 296.616 130.569 296.616H130.095C129.957 296.616 129.867 296.55 129.867 296.412C129.837 295.38 129.159 295.038 128.415 295.038C127.353 295.038 126.675 295.734 126.675 296.982V299.82C126.675 299.928 126.603 300 126.495 300H125.667C125.559 300 125.487 299.928 125.487 299.82V294.24C125.487 294.132 125.559 294.06 125.667 294.06H126.447C126.555 294.06 126.615 294.132 126.627 294.24L126.675 295.224H126.837C127.155 294.426 127.905 293.94 128.877 293.94ZM138.246 299.19C138.396 299.28 138.474 299.352 138.474 299.538V299.682C138.474 299.994 138.18 300.096 137.898 300.096C137.37 300.096 136.986 299.742 136.986 299.088V298.872H136.944C136.686 299.58 135.912 300.15 134.754 300.15H134.46C133.224 300.15 132.534 299.472 132.534 298.404C132.534 297.438 133.092 296.778 134.358 296.7L136.842 296.538V296.148C136.842 295.224 136.476 294.924 135.408 294.924C134.538 294.924 134.052 295.122 133.986 295.722C133.974 295.806 133.914 295.854 133.806 295.854H133.02C132.912 295.854 132.84 295.794 132.846 295.674C132.9 294.402 133.896 293.94 135.426 293.94C137.418 293.94 138.012 294.744 138.012 296.136V298.488C138.012 298.938 138.072 299.088 138.246 299.19ZM134.832 299.202H135.036C135.906 299.202 136.842 298.83 136.842 297.81V297.336L134.67 297.492C133.89 297.546 133.692 297.918 133.692 298.338C133.692 298.848 133.998 299.202 134.832 299.202ZM143.156 293.94C144.854 293.94 145.892 295.26 145.892 297.042C145.892 298.824 144.854 300.15 143.156 300.15C142.148 300.15 141.524 299.682 141.218 299.088H141.08V302.1C141.08 302.208 141.008 302.28 140.9 302.28H140.114C140.006 302.28 139.934 302.208 139.934 302.1V294.24C139.934 294.132 140.006 294.06 140.114 294.06H140.942C141.05 294.06 141.122 294.132 141.122 294.24V294.972H141.218C141.524 294.402 142.148 293.94 143.156 293.94ZM142.898 299.058C144.026 299.058 144.734 298.26 144.734 297.042C144.734 295.824 144.026 295.032 142.898 295.032C141.77 295.032 141.056 295.824 141.056 297.042C141.056 298.248 141.77 299.058 142.898 299.058ZM150.725 293.94C152.009 293.94 152.945 294.834 152.945 296.4V299.82C152.945 299.928 152.873 300 152.765 300H151.937C151.829 300 151.757 299.928 151.757 299.82V296.622C151.757 295.674 151.193 295.038 150.233 295.038C149.273 295.038 148.685 295.674 148.685 296.622V299.82C148.685 299.928 148.613 300 148.505 300H147.677C147.569 300 147.497 299.928 147.497 299.82V291.78C147.497 291.672 147.569 291.6 147.677 291.6H148.505C148.613 291.6 148.685 291.672 148.685 291.78V295.092H148.835C149.129 294.42 149.807 293.94 150.725 293.94ZM157.52 292.512C157.07 292.512 156.716 292.152 156.716 291.702C156.716 291.252 157.07 290.898 157.52 290.898C157.976 290.898 158.33 291.252 158.33 291.702C158.33 292.152 157.976 292.512 157.52 292.512ZM159.152 298.992H160.16C160.268 298.992 160.34 299.064 160.34 299.172V299.82C160.34 299.928 160.268 300 160.16 300H158.738C157.646 300 157.064 299.358 157.064 298.266V295.068H155.078C154.97 295.068 154.898 294.996 154.898 294.888V294.24C154.898 294.132 154.97 294.06 155.078 294.06H158.072C158.18 294.06 158.252 294.132 158.252 294.24V298.086C158.252 298.686 158.552 298.992 159.152 298.992ZM165.191 299.052C165.899 299.052 166.445 298.734 166.817 298.26C166.889 298.164 166.961 298.146 167.057 298.212L167.621 298.602C167.717 298.662 167.741 298.746 167.675 298.842C167.165 299.64 166.265 300.15 165.161 300.15C163.379 300.15 162.083 298.836 162.083 297.042C162.083 295.248 163.379 293.94 165.161 293.94C166.271 293.94 167.165 294.45 167.675 295.248C167.741 295.344 167.717 295.428 167.621 295.494L167.057 295.878C166.961 295.944 166.889 295.926 166.817 295.83C166.445 295.356 165.899 295.038 165.191 295.038C164.075 295.038 163.241 295.842 163.241 297.042C163.241 298.242 164.075 299.052 165.191 299.052ZM181.595 291.6H182.423C182.531 291.6 182.603 291.672 182.603 291.78V299.82C182.603 299.928 182.531 300 182.423 300H181.691C181.583 300 181.523 299.928 181.517 299.82L181.451 298.878H181.319C181.013 299.604 180.329 300.15 179.285 300.15C177.659 300.15 176.627 298.824 176.627 297.06C176.627 295.248 177.737 293.94 179.501 293.94C180.491 293.94 181.091 294.36 181.415 294.798V291.78C181.415 291.672 181.487 291.6 181.595 291.6ZM179.633 299.052C180.755 299.052 181.481 298.26 181.481 297.042C181.481 295.824 180.755 295.038 179.633 295.038C178.511 295.038 177.785 295.824 177.785 297.042C177.785 298.26 178.511 299.052 179.633 299.052ZM190.057 296.79C190.057 297.144 189.997 297.336 189.571 297.336H185.347C185.395 298.482 186.193 299.166 187.471 299.166C188.119 299.166 188.653 298.992 189.031 298.764C189.193 298.662 189.283 298.686 189.457 298.902C189.637 299.124 189.679 299.262 189.499 299.43C189.031 299.874 188.245 300.15 187.363 300.15C185.467 300.15 184.213 298.896 184.213 297.03C184.213 295.182 185.419 293.94 187.225 293.94C189.031 293.94 190.057 295.164 190.057 296.79ZM187.225 294.96C186.217 294.972 185.557 295.524 185.395 296.478H189.013C188.923 295.524 188.263 294.954 187.225 294.96ZM194.602 296.586C195.832 296.736 197.236 296.934 197.236 298.35C197.236 299.448 196.366 300.15 194.524 300.15C193.048 300.15 191.92 299.694 191.8 298.608C191.788 298.488 191.86 298.428 191.968 298.428H192.766C192.874 298.428 192.922 298.476 192.946 298.56C193.072 299.004 193.654 299.202 194.53 299.202C195.514 299.202 196.078 298.95 196.078 298.356C196.078 297.756 195.496 297.618 194.434 297.492C193.204 297.342 191.914 297.09 191.914 295.722C191.914 294.642 192.742 293.94 194.488 293.94C195.868 293.94 196.99 294.384 197.11 295.464C197.122 295.584 197.044 295.644 196.936 295.644H196.144C196.036 295.644 195.982 295.596 195.964 295.512C195.874 295.104 195.256 294.888 194.44 294.888C193.594 294.888 193.072 295.122 193.072 295.704C193.072 296.304 193.606 296.466 194.602 296.586ZM201.817 292.512C201.367 292.512 201.013 292.152 201.013 291.702C201.013 291.252 201.367 290.898 201.817 290.898C202.273 290.898 202.627 291.252 202.627 291.702C202.627 292.152 202.273 292.512 201.817 292.512ZM203.449 298.992H204.457C204.565 298.992 204.637 299.064 204.637 299.172V299.82C204.637 299.928 204.565 300 204.457 300H203.035C201.943 300 201.361 299.358 201.361 298.266V295.068H199.375C199.267 295.068 199.195 294.996 199.195 294.888V294.24C199.195 294.132 199.267 294.06 199.375 294.06H202.369C202.477 294.06 202.549 294.132 202.549 294.24V298.086C202.549 298.686 202.849 298.992 203.449 298.992ZM211.234 294.06H211.984C212.092 294.06 212.164 294.132 212.164 294.24V299.67C212.164 301.83 210.52 302.376 209.014 302.376C208.198 302.376 207.424 302.214 206.914 301.908C206.818 301.854 206.8 301.758 206.836 301.662L207.028 301.116C207.064 301.014 207.154 300.99 207.25 301.026C207.76 301.248 208.27 301.35 208.912 301.35C210.046 301.35 211.048 301.02 211.048 299.61V298.5H210.868C210.622 299.226 209.86 299.7 208.888 299.7C207.322 299.7 206.254 298.476 206.254 296.856C206.254 295.182 207.388 293.94 209.002 293.94C209.926 293.94 210.598 294.348 211.024 294.942L211.054 294.24C211.066 294.132 211.126 294.06 211.234 294.06ZM209.206 298.662C210.268 298.662 211.012 297.894 211.012 296.838C211.012 295.776 210.268 295.026 209.206 295.026C208.15 295.026 207.406 295.776 207.406 296.838C207.406 297.894 208.15 298.662 209.206 298.662ZM217.171 293.94C218.455 293.94 219.391 294.834 219.391 296.4V299.82C219.391 299.928 219.319 300 219.211 300H218.383C218.275 300 218.203 299.928 218.203 299.82V296.622C218.203 295.674 217.639 295.038 216.679 295.038C215.719 295.038 215.131 295.674 215.131 296.622V299.82C215.131 299.928 215.059 300 214.951 300H214.123C214.015 300 213.943 299.928 213.943 299.82V294.24C213.943 294.132 214.015 294.06 214.123 294.06H214.903C215.011 294.06 215.077 294.132 215.083 294.24L215.131 295.092H215.281C215.575 294.42 216.253 293.94 217.171 293.94ZM233.832 294.06H234.552C234.684 294.06 234.726 294.132 234.696 294.264L233.574 299.856C233.556 299.952 233.454 300 233.358 300H232.494C232.398 300 232.296 299.952 232.278 299.856L231.432 295.854L230.586 299.856C230.568 299.952 230.466 300 230.37 300H229.506C229.41 300 229.308 299.952 229.29 299.856L228.168 294.264C228.138 294.132 228.18 294.06 228.312 294.06H229.032C229.128 294.06 229.236 294.108 229.248 294.204L229.998 298.65L230.94 294.264C230.964 294.168 231.06 294.12 231.156 294.12H231.708C231.804 294.12 231.9 294.168 231.924 294.264L232.866 298.65L233.616 294.204C233.628 294.108 233.736 294.06 233.832 294.06ZM238.815 300.15C237.057 300.15 235.785 298.812 235.785 297.042C235.785 295.272 237.057 293.94 238.815 293.94C240.573 293.94 241.845 295.272 241.845 297.042C241.845 298.812 240.573 300.15 238.815 300.15ZM238.815 299.052C239.901 299.052 240.687 298.236 240.687 297.042C240.687 295.848 239.901 295.038 238.815 295.038C237.729 295.038 236.943 295.848 236.943 297.042C236.943 298.236 237.729 299.052 238.815 299.052ZM247.002 293.94C248.274 293.94 249.138 294.786 249.138 295.962C249.138 296.454 248.982 296.616 248.694 296.616H248.22C248.082 296.616 247.992 296.55 247.992 296.412C247.962 295.38 247.284 295.038 246.54 295.038C245.478 295.038 244.8 295.734 244.8 296.982V299.82C244.8 299.928 244.728 300 244.62 300H243.792C243.684 300 243.612 299.928 243.612 299.82V294.24C243.612 294.132 243.684 294.06 243.792 294.06H244.572C244.68 294.06 244.74 294.132 244.752 294.24L244.8 295.224H244.962C245.28 294.426 246.03 293.94 247.002 293.94ZM253.953 296.67L256.509 299.784C256.605 299.904 256.545 300 256.401 300H255.417C255.321 300 255.267 299.976 255.201 299.892L253.203 297.468L252.153 298.596V299.82C252.153 299.928 252.081 300 251.973 300H251.145C251.037 300 250.965 299.928 250.965 299.82V291.78C250.965 291.672 251.037 291.6 251.145 291.6H251.973C252.081 291.6 252.153 291.672 252.153 291.78V297.108L254.835 294.156C254.907 294.084 254.973 294.06 255.057 294.06H256.101C256.257 294.06 256.305 294.156 256.197 294.276L253.953 296.67Z" fill="#FF005C"/>
<rect x="35" y="345" width="311" height="79" rx="8" fill="#1A1A1A"/>
<rect x="51" y="361" width="48" height="48" rx="8" fill="#FF005C"/>
<path d="M77.2669 376.532L82.6544 381.919M79.9988 373.8C79.9988 373.8 82.4721 372.674 84.6271 374.829C86.7821 376.984 85.6556 379.457 85.6556 379.457L71.2564 393.856L64.8281 394.628L65.5995 388.199L79.9988 373.8Z" stroke="white" stroke-width="2"/>
<path d="M118.04 375C118.04 373.987 118.22 373.04 118.58 372.16C118.953 371.28 119.46 370.513 120.1 369.86C120.753 369.207 121.513 368.693 122.38 368.32C123.26 367.947 124.2 367.76 125.2 367.76C126.667 367.76 128.033 368.18 129.3 369.02V371C127.953 369.987 126.573 369.48 125.16 369.48C124.413 369.48 123.72 369.627 123.08 369.92C122.44 370.2 121.88 370.587 121.4 371.08C120.933 371.573 120.56 372.16 120.28 372.84C120.013 373.507 119.88 374.227 119.88 375C119.88 375.76 120.013 376.48 120.28 377.16C120.56 377.827 120.933 378.407 121.4 378.9C121.88 379.393 122.44 379.787 123.08 380.08C123.72 380.36 124.413 380.5 125.16 380.5C126.573 380.5 127.967 380.007 129.34 379.02V381C128.033 381.813 126.647 382.22 125.18 382.22C124.18 382.22 123.247 382.033 122.38 381.66C121.513 381.287 120.753 380.78 120.1 380.14C119.46 379.487 118.953 378.72 118.58 377.84C118.22 376.96 118.04 376.013 118.04 375ZM136.3 372.06C137.034 372.06 137.707 372.193 138.32 372.46C138.947 372.727 139.487 373.093 139.94 373.56C140.394 374.013 140.747 374.547 141 375.16C141.254 375.773 141.38 376.433 141.38 377.14C141.38 377.847 141.254 378.507 141 379.12C140.747 379.733 140.394 380.273 139.94 380.74C139.487 381.193 138.947 381.553 138.32 381.82C137.707 382.087 137.034 382.22 136.3 382.22C135.567 382.22 134.887 382.087 134.26 381.82C133.647 381.553 133.114 381.193 132.66 380.74C132.207 380.273 131.854 379.733 131.6 379.12C131.347 378.507 131.22 377.847 131.22 377.14C131.22 376.433 131.347 375.773 131.6 375.16C131.854 374.547 132.207 374.013 132.66 373.56C133.114 373.093 133.647 372.727 134.26 372.46C134.887 372.193 135.567 372.06 136.3 372.06ZM136.3 373.64C135.82 373.64 135.374 373.733 134.96 373.92C134.56 374.093 134.207 374.34 133.9 374.66C133.607 374.98 133.374 375.353 133.2 375.78C133.04 376.207 132.96 376.66 132.96 377.14C132.96 377.62 133.04 378.073 133.2 378.5C133.374 378.927 133.607 379.3 133.9 379.62C134.207 379.94 134.56 380.193 134.96 380.38C135.374 380.553 135.82 380.64 136.3 380.64C136.78 380.64 137.22 380.553 137.62 380.38C138.034 380.193 138.387 379.94 138.68 379.62C138.987 379.3 139.22 378.927 139.38 378.5C139.554 378.073 139.64 377.62 139.64 377.14C139.64 376.66 139.554 376.207 139.38 375.78C139.22 375.353 138.987 374.98 138.68 374.66C138.387 374.34 138.034 374.093 137.62 373.92C137.22 373.733 136.78 373.64 136.3 373.64ZM146.4 382L142.34 372.28H144.18L147.12 379.64L150.06 372.28H151.86L147.8 382H146.4ZM157.782 382.22C157.062 382.22 156.395 382.093 155.782 381.84C155.182 381.587 154.662 381.24 154.222 380.8C153.782 380.347 153.435 379.813 153.182 379.2C152.942 378.573 152.822 377.887 152.822 377.14C152.822 376.42 152.942 375.753 153.182 375.14C153.435 374.513 153.775 373.973 154.202 373.52C154.642 373.067 155.155 372.713 155.742 372.46C156.329 372.193 156.969 372.06 157.662 372.06C158.342 372.06 158.969 372.193 159.542 372.46C160.129 372.713 160.629 373.067 161.042 373.52C161.469 373.973 161.795 374.507 162.022 375.12C162.262 375.72 162.382 376.367 162.382 377.06C162.382 377.167 162.375 377.26 162.362 377.34C162.362 377.407 162.362 377.467 162.362 377.52V377.68H154.542C154.569 378.107 154.675 378.507 154.862 378.88C155.049 379.24 155.289 379.553 155.582 379.82C155.875 380.087 156.209 380.3 156.582 380.46C156.969 380.607 157.375 380.68 157.802 380.68C158.535 380.68 159.109 380.527 159.522 380.22C159.949 379.9 160.315 379.5 160.622 379.02L162.022 379.74C161.622 380.473 161.062 381.073 160.342 381.54C159.622 381.993 158.769 382.22 157.782 382.22ZM160.642 376.26C160.602 375.873 160.495 375.52 160.322 375.2C160.149 374.867 159.929 374.58 159.662 374.34C159.395 374.1 159.089 373.913 158.742 373.78C158.395 373.633 158.022 373.56 157.622 373.56C157.222 373.56 156.849 373.64 156.502 373.8C156.155 373.96 155.842 374.167 155.562 374.42C155.295 374.673 155.075 374.96 154.902 375.28C154.729 375.6 154.622 375.927 154.582 376.26H160.642ZM169.871 373.88C169.845 373.88 169.805 373.873 169.751 373.86C169.711 373.86 169.658 373.86 169.591 373.86C169.525 373.847 169.458 373.84 169.391 373.84C168.485 373.84 167.771 374.167 167.251 374.82C166.745 375.473 166.491 376.327 166.491 377.38V382H164.791V372.28H166.471V374C166.578 373.72 166.731 373.467 166.931 373.24C167.145 373 167.385 372.8 167.651 372.64C167.918 372.48 168.205 372.353 168.511 372.26C168.818 372.167 169.131 372.12 169.451 372.12C169.518 372.12 169.571 372.127 169.611 372.14C169.665 372.14 169.711 372.14 169.751 372.14C169.805 372.153 169.845 372.16 169.871 372.16V373.88ZM178.621 368V382H176.901V368H178.621ZM186.083 382.22C185.363 382.22 184.696 382.093 184.083 381.84C183.483 381.587 182.963 381.24 182.523 380.8C182.083 380.347 181.736 379.813 181.483 379.2C181.243 378.573 181.123 377.887 181.123 377.14C181.123 376.42 181.243 375.753 181.483 375.14C181.736 374.513 182.076 373.973 182.503 373.52C182.943 373.067 183.456 372.713 184.043 372.46C184.629 372.193 185.269 372.06 185.963 372.06C186.643 372.06 187.269 372.193 187.843 372.46C188.429 372.713 188.929 373.067 189.343 373.52C189.769 373.973 190.096 374.507 190.323 375.12C190.563 375.72 190.683 376.367 190.683 377.06C190.683 377.167 190.676 377.26 190.663 377.34C190.663 377.407 190.663 377.467 190.663 377.52V377.68H182.843C182.869 378.107 182.976 378.507 183.163 378.88C183.349 379.24 183.589 379.553 183.883 379.82C184.176 380.087 184.509 380.3 184.883 380.46C185.269 380.607 185.676 380.68 186.103 380.68C186.836 380.68 187.409 380.527 187.823 380.22C188.249 379.9 188.616 379.5 188.923 379.02L190.323 379.74C189.923 380.473 189.363 381.073 188.643 381.54C187.923 381.993 187.069 382.22 186.083 382.22ZM188.943 376.26C188.903 375.873 188.796 375.52 188.623 375.2C188.449 374.867 188.229 374.58 187.963 374.34C187.696 374.1 187.389 373.913 187.043 373.78C186.696 373.633 186.323 373.56 185.923 373.56C185.523 373.56 185.149 373.64 184.803 373.8C184.456 373.96 184.143 374.167 183.863 374.42C183.596 374.673 183.376 374.96 183.203 375.28C183.029 375.6 182.923 375.927 182.883 376.26H188.943ZM194.997 369.36V372.28H197.717V373.82H194.997V378.96C194.997 379.533 195.124 379.953 195.377 380.22C195.644 380.487 196.057 380.62 196.617 380.62C196.804 380.62 196.997 380.6 197.197 380.56C197.397 380.507 197.57 380.427 197.717 380.32V381.92C197.544 382.013 197.33 382.087 197.077 382.14C196.837 382.193 196.55 382.22 196.217 382.22C195.297 382.22 194.577 381.953 194.057 381.42C193.537 380.887 193.277 380.147 193.277 379.2V373.82H191.777V372.28H193.277V369.36H194.997ZM202.302 369.36V372.28H205.022V373.82H202.302V378.96C202.302 379.533 202.428 379.953 202.682 380.22C202.948 380.487 203.362 380.62 203.922 380.62C204.108 380.62 204.302 380.6 204.502 380.56C204.702 380.507 204.875 380.427 205.022 380.32V381.92C204.848 382.013 204.635 382.087 204.382 382.14C204.142 382.193 203.855 382.22 203.522 382.22C202.602 382.22 201.882 381.953 201.362 381.42C200.842 380.887 200.582 380.147 200.582 379.2V373.82H199.082V372.28H200.582V369.36H202.302ZM211.473 382.22C210.753 382.22 210.087 382.093 209.473 381.84C208.873 381.587 208.353 381.24 207.913 380.8C207.473 380.347 207.127 379.813 206.873 379.2C206.633 378.573 206.513 377.887 206.513 377.14C206.513 376.42 206.633 375.753 206.873 375.14C207.127 374.513 207.467 373.973 207.893 373.52C208.333 373.067 208.847 372.713 209.433 372.46C210.02 372.193 210.66 372.06 211.353 372.06C212.033 372.06 212.66 372.193 213.233 372.46C213.82 372.713 214.32 373.067 214.733 373.52C215.16 373.973 215.487 374.507 215.713 375.12C215.953 375.72 216.073 376.367 216.073 377.06C216.073 377.167 216.067 377.26 216.053 377.34C216.053 377.407 216.053 377.467 216.053 377.52V377.68H208.233C208.26 378.107 208.367 378.507 208.553 378.88C208.74 379.24 208.98 379.553 209.273 379.82C209.567 380.087 209.9 380.3 210.273 380.46C210.66 380.607 211.067 380.68 211.493 380.68C212.227 380.68 212.8 380.527 213.213 380.22C213.64 379.9 214.007 379.5 214.313 379.02L215.713 379.74C215.313 380.473 214.753 381.073 214.033 381.54C213.313 381.993 212.46 382.22 211.473 382.22ZM214.333 376.26C214.293 375.873 214.187 375.52 214.013 375.2C213.84 374.867 213.62 374.58 213.353 374.34C213.087 374.1 212.78 373.913 212.433 373.78C212.087 373.633 211.713 373.56 211.313 373.56C210.913 373.56 210.54 373.64 210.193 373.8C209.847 373.96 209.533 374.167 209.253 374.42C208.987 374.673 208.767 374.96 208.593 375.28C208.42 375.6 208.313 375.927 208.273 376.26H214.333ZM223.563 373.88C223.536 373.88 223.496 373.873 223.443 373.86C223.403 373.86 223.349 373.86 223.283 373.86C223.216 373.847 223.149 373.84 223.083 373.84C222.176 373.84 221.463 374.167 220.943 374.82C220.436 375.473 220.183 376.327 220.183 377.38V382H218.483V372.28H220.163V374C220.269 373.72 220.423 373.467 220.623 373.24C220.836 373 221.076 372.8 221.343 372.64C221.609 372.48 221.896 372.353 222.203 372.26C222.509 372.167 222.823 372.12 223.143 372.12C223.209 372.12 223.263 372.127 223.303 372.14C223.356 372.14 223.403 372.14 223.443 372.14C223.496 372.153 223.536 372.16 223.563 372.16V373.88Z" fill="white"/>
<path d="M123.006 394.96H123.804C123.936 394.96 123.966 395.044 123.948 395.164L122.94 402.856C122.928 402.952 122.814 403 122.718 403H121.674C121.578 403 121.476 402.952 121.464 402.856L120.69 398.146L119.916 402.856C119.904 402.952 119.802 403 119.706 403H118.662C118.566 403 118.452 402.952 118.44 402.856L117.432 395.164C117.414 395.044 117.444 394.96 117.576 394.96H118.374C118.47 394.96 118.566 394.996 118.578 395.104L119.292 401.434L120.258 395.824C120.276 395.716 120.366 395.68 120.462 395.68H120.918C121.014 395.68 121.104 395.716 121.122 395.824L122.088 401.434L122.802 395.104C122.814 394.996 122.91 394.96 123.006 394.96ZM128.877 396.94C130.149 396.94 131.013 397.786 131.013 398.962C131.013 399.454 130.857 399.616 130.569 399.616H130.095C129.957 399.616 129.867 399.55 129.867 399.412C129.837 398.38 129.159 398.038 128.415 398.038C127.353 398.038 126.675 398.734 126.675 399.982V402.82C126.675 402.928 126.603 403 126.495 403H125.667C125.559 403 125.487 402.928 125.487 402.82V397.24C125.487 397.132 125.559 397.06 125.667 397.06H126.447C126.555 397.06 126.615 397.132 126.627 397.24L126.675 398.224H126.837C127.155 397.426 127.905 396.94 128.877 396.94ZM135.372 395.512C134.922 395.512 134.568 395.152 134.568 394.702C134.568 394.252 134.922 393.898 135.372 393.898C135.828 393.898 136.182 394.252 136.182 394.702C136.182 395.152 135.828 395.512 135.372 395.512ZM137.004 401.992H138.012C138.12 401.992 138.192 402.064 138.192 402.172V402.82C138.192 402.928 138.12 403 138.012 403H136.59C135.498 403 134.916 402.358 134.916 401.266V398.068H132.93C132.822 398.068 132.75 397.996 132.75 397.888V397.24C132.75 397.132 132.822 397.06 132.93 397.06H135.924C136.032 397.06 136.104 397.132 136.104 397.24V401.086C136.104 401.686 136.404 401.992 137.004 401.992ZM145.7 401.65C145.97 401.92 145.976 402.046 145.844 402.238C145.67 402.484 144.95 403.15 143.75 403.15C142.772 403.15 141.512 402.694 141.512 400.834V398.086H139.856C139.748 398.086 139.676 398.014 139.676 397.906V397.24C139.676 397.132 139.748 397.06 139.856 397.06H141.512V395.44C141.512 395.332 141.584 395.26 141.692 395.26H142.52C142.628 395.26 142.7 395.332 142.7 395.44V397.06H145.436C145.544 397.06 145.616 397.132 145.616 397.24V397.906C145.616 398.014 145.544 398.086 145.436 398.086H142.7V400.636C142.7 401.806 143.354 402.07 143.954 402.07C144.626 402.07 145.022 401.752 145.232 401.56C145.376 401.434 145.472 401.422 145.7 401.65ZM153.083 401.65C153.353 401.92 153.359 402.046 153.227 402.238C153.053 402.484 152.333 403.15 151.133 403.15C150.155 403.15 148.895 402.694 148.895 400.834V398.086H147.239C147.131 398.086 147.059 398.014 147.059 397.906V397.24C147.059 397.132 147.131 397.06 147.239 397.06H148.895V395.44C148.895 395.332 148.967 395.26 149.075 395.26H149.903C150.011 395.26 150.083 395.332 150.083 395.44V397.06H152.819C152.927 397.06 152.999 397.132 152.999 397.24V397.906C152.999 398.014 152.927 398.086 152.819 398.086H150.083V400.636C150.083 401.806 150.737 402.07 151.337 402.07C152.009 402.07 152.405 401.752 152.615 401.56C152.759 401.434 152.855 401.422 153.083 401.65ZM160.526 399.79C160.526 400.144 160.466 400.336 160.04 400.336H155.816C155.864 401.482 156.662 402.166 157.94 402.166C158.588 402.166 159.122 401.992 159.5 401.764C159.662 401.662 159.752 401.686 159.926 401.902C160.106 402.124 160.148 402.262 159.968 402.43C159.5 402.874 158.714 403.15 157.832 403.15C155.936 403.15 154.682 401.896 154.682 400.03C154.682 398.182 155.888 396.94 157.694 396.94C159.5 396.94 160.526 398.164 160.526 399.79ZM157.694 397.96C156.686 397.972 156.026 398.524 155.864 399.478H159.482C159.392 398.524 158.732 397.954 157.694 397.96ZM165.491 396.94C166.775 396.94 167.711 397.834 167.711 399.4V402.82C167.711 402.928 167.639 403 167.531 403H166.703C166.595 403 166.523 402.928 166.523 402.82V399.622C166.523 398.674 165.959 398.038 164.999 398.038C164.039 398.038 163.451 398.674 163.451 399.622V402.82C163.451 402.928 163.379 403 163.271 403H162.443C162.335 403 162.263 402.928 162.263 402.82V397.24C162.263 397.132 162.335 397.06 162.443 397.06H163.223C163.331 397.06 163.397 397.132 163.403 397.24L163.451 398.092H163.601C163.895 397.42 164.573 396.94 165.491 396.94ZM179.837 399.586C181.067 399.736 182.471 399.934 182.471 401.35C182.471 402.448 181.601 403.15 179.759 403.15C178.283 403.15 177.155 402.694 177.035 401.608C177.023 401.488 177.095 401.428 177.203 401.428H178.001C178.109 401.428 178.157 401.476 178.181 401.56C178.307 402.004 178.889 402.202 179.765 402.202C180.749 402.202 181.313 401.95 181.313 401.356C181.313 400.756 180.731 400.618 179.669 400.492C178.439 400.342 177.149 400.09 177.149 398.722C177.149 397.642 177.977 396.94 179.723 396.94C181.103 396.94 182.225 397.384 182.345 398.464C182.357 398.584 182.279 398.644 182.171 398.644H181.379C181.271 398.644 181.217 398.596 181.199 398.512C181.109 398.104 180.491 397.888 179.675 397.888C178.829 397.888 178.307 398.122 178.307 398.704C178.307 399.304 178.841 399.466 179.837 399.586ZM189.997 401.65C190.267 401.92 190.273 402.046 190.141 402.238C189.967 402.484 189.247 403.15 188.047 403.15C187.069 403.15 185.809 402.694 185.809 400.834V398.086H184.153C184.045 398.086 183.973 398.014 183.973 397.906V397.24C183.973 397.132 184.045 397.06 184.153 397.06H185.809V395.44C185.809 395.332 185.881 395.26 185.989 395.26H186.817C186.925 395.26 186.997 395.332 186.997 395.44V397.06H189.733C189.841 397.06 189.913 397.132 189.913 397.24V397.906C189.913 398.014 189.841 398.086 189.733 398.086H186.997V400.636C186.997 401.806 187.651 402.07 188.251 402.07C188.923 402.07 189.319 401.752 189.529 401.56C189.673 401.434 189.769 401.422 189.997 401.65ZM197.308 402.19C197.458 402.28 197.536 402.352 197.536 402.538V402.682C197.536 402.994 197.242 403.096 196.96 403.096C196.432 403.096 196.048 402.742 196.048 402.088V401.872H196.006C195.748 402.58 194.974 403.15 193.816 403.15H193.522C192.286 403.15 191.596 402.472 191.596 401.404C191.596 400.438 192.154 399.778 193.42 399.7L195.904 399.538V399.148C195.904 398.224 195.538 397.924 194.47 397.924C193.6 397.924 193.114 398.122 193.048 398.722C193.036 398.806 192.976 398.854 192.868 398.854H192.082C191.974 398.854 191.902 398.794 191.908 398.674C191.962 397.402 192.958 396.94 194.488 396.94C196.48 396.94 197.074 397.744 197.074 399.136V401.488C197.074 401.938 197.134 402.088 197.308 402.19ZM193.894 402.202H194.098C194.968 402.202 195.904 401.83 195.904 400.81V400.336L193.732 400.492C192.952 400.546 192.754 400.918 192.754 401.338C192.754 401.848 193.06 402.202 193.894 402.202ZM204.763 401.65C205.033 401.92 205.039 402.046 204.907 402.238C204.733 402.484 204.013 403.15 202.813 403.15C201.835 403.15 200.575 402.694 200.575 400.834V398.086H198.919C198.811 398.086 198.739 398.014 198.739 397.906V397.24C198.739 397.132 198.811 397.06 198.919 397.06H200.575V395.44C200.575 395.332 200.647 395.26 200.755 395.26H201.583C201.691 395.26 201.763 395.332 201.763 395.44V397.06H204.499C204.607 397.06 204.679 397.132 204.679 397.24V397.906C204.679 398.014 204.607 398.086 204.499 398.086H201.763V400.636C201.763 401.806 202.417 402.07 203.017 402.07C203.689 402.07 204.085 401.752 204.295 401.56C204.439 401.434 204.535 401.422 204.763 401.65ZM212.206 399.79C212.206 400.144 212.146 400.336 211.72 400.336H207.496C207.544 401.482 208.342 402.166 209.62 402.166C210.268 402.166 210.802 401.992 211.18 401.764C211.342 401.662 211.432 401.686 211.606 401.902C211.786 402.124 211.828 402.262 211.648 402.43C211.18 402.874 210.394 403.15 209.512 403.15C207.616 403.15 206.362 401.896 206.362 400.03C206.362 398.182 207.568 396.94 209.374 396.94C211.18 396.94 212.206 398.164 212.206 399.79ZM209.374 397.96C208.366 397.972 207.706 398.524 207.544 399.478H211.162C211.072 398.524 210.412 397.954 209.374 397.96ZM214.513 403H213.775C213.667 403 213.595 402.928 213.595 402.82V397.24C213.595 397.132 213.667 397.06 213.775 397.06H214.477C214.585 397.06 214.651 397.132 214.657 397.24L214.687 397.834H214.771C214.945 397.222 215.359 396.94 215.947 396.94C216.535 396.94 216.901 397.222 217.111 397.834H217.177C217.375 397.222 217.795 396.94 218.395 396.94C219.253 396.94 219.739 397.51 219.739 398.752V402.82C219.739 402.928 219.667 403 219.559 403H218.821C218.713 403 218.641 402.928 218.641 402.82V398.92C218.641 398.35 218.377 398.032 217.909 398.032C217.441 398.032 217.177 398.35 217.177 398.92V402.82C217.177 402.928 217.105 403 216.997 403H216.337C216.229 403 216.157 402.928 216.157 402.82V398.92C216.157 398.35 215.893 398.032 215.425 398.032C214.957 398.032 214.693 398.35 214.693 398.92V402.82C214.693 402.928 214.621 403 214.513 403ZM226.971 399.79C226.971 400.144 226.911 400.336 226.485 400.336H222.261C222.309 401.482 223.107 402.166 224.385 402.166C225.033 402.166 225.567 401.992 225.945 401.764C226.107 401.662 226.197 401.686 226.371 401.902C226.551 402.124 226.593 402.262 226.413 402.43C225.945 402.874 225.159 403.15 224.277 403.15C222.381 403.15 221.127 401.896 221.127 400.03C221.127 398.182 222.333 396.94 224.139 396.94C225.945 396.94 226.971 398.164 226.971 399.79ZM224.139 397.96C223.131 397.972 222.471 398.524 222.309 399.478H225.927C225.837 398.524 225.177 397.954 224.139 397.96ZM231.936 396.94C233.22 396.94 234.156 397.834 234.156 399.4V402.82C234.156 402.928 234.084 403 233.976 403H233.148C233.04 403 232.968 402.928 232.968 402.82V399.622C232.968 398.674 232.404 398.038 231.444 398.038C230.484 398.038 229.896 398.674 229.896 399.622V402.82C229.896 402.928 229.824 403 229.716 403H228.888C228.78 403 228.708 402.928 228.708 402.82V397.24C228.708 397.132 228.78 397.06 228.888 397.06H229.668C229.776 397.06 229.842 397.132 229.848 397.24L229.896 398.092H230.046C230.34 397.42 231.018 396.94 231.936 396.94ZM241.677 401.65C241.947 401.92 241.953 402.046 241.821 402.238C241.647 402.484 240.927 403.15 239.727 403.15C238.749 403.15 237.489 402.694 237.489 400.834V398.086H235.833C235.725 398.086 235.653 398.014 235.653 397.906V397.24C235.653 397.132 235.725 397.06 235.833 397.06H237.489V395.44C237.489 395.332 237.561 395.26 237.669 395.26H238.497C238.605 395.26 238.677 395.332 238.677 395.44V397.06H241.413C241.521 397.06 241.593 397.132 241.593 397.24V397.906C241.593 398.014 241.521 398.086 241.413 398.086H238.677V400.636C238.677 401.806 239.331 402.07 239.931 402.07C240.603 402.07 240.999 401.752 241.209 401.56C241.353 401.434 241.449 401.422 241.677 401.65Z" fill="#FF005C"/>
</svg>
