<svg width="202" height="60" viewBox="0 0 202 60" fill="none" xmlns="http://www.w3.org/2000/svg">
<path d="M1.94 24.8H5.428C5.94 24.8 6.40933 24.8693 6.836 25.008C7.27333 25.136 7.64133 25.328 7.94 25.584C8.24933 25.84 8.48933 26.1547 8.66 26.528C8.83067 26.8907 8.916 27.3013 8.916 27.76C8.916 28.2933 8.804 28.7573 8.58 29.152C8.356 29.536 8.02 29.8347 7.572 30.048C8.22267 30.2613 8.71867 30.608 9.06 31.088C9.412 31.568 9.588 32.144 9.588 32.816C9.588 33.3173 9.49733 33.7653 9.316 34.16C9.13467 34.5547 8.87867 34.8907 8.548 35.168C8.21733 35.4347 7.812 35.6427 7.332 35.792C6.86267 35.9307 6.34 36 5.764 36H1.94V24.8ZM5.748 34.736C6.484 34.736 7.06533 34.5653 7.492 34.224C7.92933 33.8827 8.148 33.3973 8.148 32.768C8.148 32.16 7.924 31.6853 7.476 31.344C7.03867 30.992 6.452 30.816 5.716 30.816H3.364V34.736H5.748ZM5.412 29.584C6.04133 29.584 6.548 29.4293 6.932 29.12C7.316 28.8107 7.508 28.3787 7.508 27.824C7.508 27.2587 7.316 26.8267 6.932 26.528C6.548 26.2187 6.036 26.064 5.396 26.064H3.364V29.584H5.412ZM19.2204 28.224V36H17.8604V34.752C17.583 35.1893 17.199 35.536 16.7084 35.792C16.2177 36.048 15.6844 36.176 15.1084 36.176C14.5537 36.176 14.0364 36.0747 13.5564 35.872C13.087 35.6587 12.6764 35.3707 12.3244 35.008C11.9724 34.6453 11.695 34.2187 11.4924 33.728C11.3004 33.2267 11.2044 32.688 11.2044 32.112C11.2044 31.536 11.3004 31.0027 11.4924 30.512C11.695 30.0213 11.9724 29.5947 12.3244 29.232C12.6764 28.8587 13.087 28.5707 13.5564 28.368C14.0364 28.1547 14.5537 28.048 15.1084 28.048C15.6844 28.048 16.2124 28.1653 16.6924 28.4C17.183 28.6347 17.5724 28.9707 17.8604 29.408V28.224H19.2204ZM17.9404 32.112C17.9404 31.7173 17.871 31.3493 17.7324 31.008C17.6044 30.6667 17.4177 30.3733 17.1724 30.128C16.9377 29.872 16.655 29.6747 16.3244 29.536C16.0044 29.3867 15.6524 29.312 15.2684 29.312C14.8844 29.312 14.527 29.3867 14.1964 29.536C13.8764 29.6747 13.5937 29.872 13.3484 30.128C13.1137 30.3733 12.927 30.6667 12.7884 31.008C12.6604 31.3493 12.5964 31.7173 12.5964 32.112C12.5964 32.5067 12.6604 32.8747 12.7884 33.216C12.927 33.5573 13.1137 33.856 13.3484 34.112C13.5937 34.3573 13.8764 34.5547 14.1964 34.704C14.527 34.8427 14.8844 34.912 15.2684 34.912C15.6524 34.912 16.0044 34.8427 16.3244 34.704C16.655 34.5547 16.9377 34.3573 17.1724 34.112C17.4177 33.856 17.6044 33.5573 17.7324 33.216C17.871 32.8747 17.9404 32.5067 17.9404 32.112ZM21.22 32.112C21.22 31.5467 21.316 31.0187 21.508 30.528C21.7107 30.0267 21.9933 29.5947 22.356 29.232C22.7187 28.8587 23.1453 28.5707 23.636 28.368C24.1373 28.1547 24.6867 28.048 25.284 28.048C26.0947 28.048 26.8307 28.272 27.492 28.72V30.112C26.8093 29.5893 26.0947 29.328 25.348 29.328C24.9533 29.328 24.5853 29.4027 24.244 29.552C23.9133 29.6907 23.6253 29.888 23.38 30.144C23.1453 30.3893 22.9587 30.6827 22.82 31.024C22.6813 31.3547 22.612 31.7173 22.612 32.112C22.612 32.496 22.6813 32.8587 22.82 33.2C22.9587 33.5413 23.1453 33.84 23.38 34.096C23.6253 34.3413 23.9133 34.5387 24.244 34.688C24.5853 34.8267 24.9533 34.896 25.348 34.896C25.7533 34.896 26.1427 34.8213 26.516 34.672C26.8893 34.512 27.2307 34.3307 27.54 34.128V35.52C27.1987 35.7333 26.8413 35.8933 26.468 36C26.0947 36.1173 25.7053 36.176 25.3 36.176C24.692 36.176 24.1373 36.0747 23.636 35.872C23.1347 35.6587 22.7027 35.3707 22.34 35.008C21.988 34.6347 21.7107 34.2027 21.508 33.712C21.316 33.2213 21.22 32.688 21.22 32.112ZM30.8588 31.312L34.1228 28.224H35.8828L32.3468 31.536L36.1868 36H34.4428L31.3868 32.384L30.8588 32.88V36H29.4988V24.8H30.8588V31.312ZM40.4693 36.176C39.8933 36.176 39.3599 36.0747 38.8693 35.872C38.3893 35.6693 37.9733 35.392 37.6213 35.04C37.2693 34.6773 36.9919 34.2507 36.7893 33.76C36.5973 33.2587 36.5013 32.7093 36.5013 32.112C36.5013 31.536 36.5973 31.0027 36.7893 30.512C36.9919 30.0107 37.2639 29.5787 37.6053 29.216C37.9573 28.8533 38.3679 28.5707 38.8373 28.368C39.3066 28.1547 39.8186 28.048 40.3733 28.048C40.9173 28.048 41.4186 28.1547 41.8773 28.368C42.3466 28.5707 42.7466 28.8533 43.0773 29.216C43.4186 29.5787 43.6799 30.0053 43.8612 30.496C44.0532 30.976 44.1493 31.4933 44.1493 32.048C44.1493 32.1333 44.1439 32.208 44.1333 32.272C44.1333 32.3253 44.1333 32.3733 44.1333 32.416V32.544H37.8773C37.8986 32.8853 37.9839 33.2053 38.1332 33.504C38.2826 33.792 38.4746 34.0427 38.7093 34.256C38.9439 34.4693 39.2106 34.64 39.5093 34.768C39.8186 34.8853 40.1439 34.944 40.4852 34.944C41.0719 34.944 41.5306 34.8213 41.8613 34.576C42.2026 34.32 42.4959 34 42.7413 33.616L43.8612 34.192C43.5413 34.7787 43.0933 35.2587 42.5173 35.632C41.9413 35.9947 41.2586 36.176 40.4693 36.176ZM42.7573 31.408C42.7253 31.0987 42.6399 30.816 42.5013 30.56C42.3626 30.2933 42.1866 30.064 41.9733 29.872C41.7599 29.68 41.5146 29.5307 41.2373 29.424C40.9599 29.3067 40.6613 29.248 40.3413 29.248C40.0213 29.248 39.7226 29.312 39.4453 29.44C39.1679 29.568 38.9173 29.7333 38.6933 29.936C38.4799 30.1387 38.3039 30.368 38.1653 30.624C38.0266 30.88 37.9413 31.1413 37.9093 31.408H42.7573ZM53.611 24.8V36H52.251V34.768C51.9737 35.1947 51.5897 35.536 51.099 35.792C50.6083 36.048 50.075 36.176 49.499 36.176C48.9443 36.176 48.427 36.0747 47.947 35.872C47.4777 35.6587 47.067 35.3707 46.715 35.008C46.363 34.6453 46.0857 34.2187 45.883 33.728C45.691 33.2267 45.595 32.688 45.595 32.112C45.595 31.536 45.691 31.0027 45.883 30.512C46.0857 30.0213 46.363 29.5947 46.715 29.232C47.067 28.8587 47.4777 28.5707 47.947 28.368C48.427 28.1547 48.9443 28.048 49.499 28.048C50.075 28.048 50.603 28.1653 51.083 28.4C51.5737 28.6347 51.963 28.9653 52.251 29.392V24.8H53.611ZM52.331 32.112C52.331 31.7173 52.2617 31.3493 52.123 31.008C51.995 30.6667 51.8083 30.3733 51.563 30.128C51.3283 29.872 51.0457 29.6747 50.715 29.536C50.395 29.3867 50.043 29.312 49.659 29.312C49.275 29.312 48.9177 29.3867 48.587 29.536C48.267 29.6747 47.9843 29.872 47.739 30.128C47.5043 30.3733 47.3177 30.6667 47.179 31.008C47.051 31.3493 46.987 31.7173 46.987 32.112C46.987 32.5067 47.051 32.8747 47.179 33.216C47.3177 33.5573 47.5043 33.856 47.739 34.112C47.9843 34.3573 48.267 34.5547 48.587 34.704C48.9177 34.8427 49.275 34.912 49.659 34.912C50.043 34.912 50.395 34.8427 50.715 34.704C51.0457 34.5547 51.3283 34.3573 51.563 34.112C51.8083 33.856 51.995 33.5573 52.123 33.216C52.2617 32.8747 52.331 32.5067 52.331 32.112ZM60.0925 36V24.8H61.4525V29.456C61.7298 29.0293 62.1138 28.688 62.6045 28.432C63.0952 28.176 63.6285 28.048 64.2045 28.048C64.7592 28.048 65.2712 28.1547 65.7405 28.368C66.2205 28.5707 66.6365 28.8533 66.9885 29.216C67.3405 29.5787 67.6125 30.0107 67.8045 30.512C68.0072 31.0027 68.1085 31.536 68.1085 32.112C68.1085 32.688 68.0072 33.2213 67.8045 33.712C67.6125 34.2027 67.3405 34.6347 66.9885 35.008C66.6365 35.3707 66.2205 35.6587 65.7405 35.872C65.2712 36.0747 64.7592 36.176 64.2045 36.176C63.6285 36.176 63.0952 36.0587 62.6045 35.824C62.1245 35.5893 61.7405 35.2587 61.4525 34.832V36H60.0925ZM66.7165 32.112C66.7165 31.7173 66.6472 31.3493 66.5085 31.008C66.3805 30.6667 66.1938 30.3733 65.9485 30.128C65.7138 29.872 65.4312 29.6747 65.1005 29.536C64.7805 29.3867 64.4285 29.312 64.0445 29.312C63.6605 29.312 63.3032 29.3867 62.9725 29.536C62.6525 29.6747 62.3698 29.872 62.1245 30.128C61.8898 30.3733 61.7032 30.6667 61.5645 31.008C61.4365 31.3493 61.3725 31.7173 61.3725 32.112C61.3725 32.5067 61.4365 32.8747 61.5645 33.216C61.7032 33.5573 61.8898 33.856 62.1245 34.112C62.3698 34.3573 62.6525 34.5547 62.9725 34.704C63.3032 34.8427 63.6605 34.912 64.0445 34.912C64.4285 34.912 64.7805 34.8427 65.1005 34.704C65.4312 34.5547 65.7138 34.3573 65.9485 34.112C66.1938 33.856 66.3805 33.5573 66.5085 33.216C66.6472 32.8747 66.7165 32.5067 66.7165 32.112ZM72.7698 37.184C72.4178 38.0267 72.0498 38.624 71.6658 38.976C71.2818 39.3387 70.7964 39.52 70.2098 39.52C69.8898 39.52 69.6071 39.4667 69.3618 39.36V38.144C69.4471 38.176 69.5538 38.2027 69.6818 38.224C69.8098 38.256 69.9484 38.272 70.0978 38.272C70.4071 38.272 70.6631 38.1707 70.8658 37.968C71.0791 37.7653 71.2924 37.4133 71.5058 36.912L71.9698 35.792L68.8818 28.224H70.3538L72.6898 34.224L75.0898 28.224H76.5138L72.7698 37.184Z" fill="white"/>
<path fill-rule="evenodd" clip-rule="evenodd" d="M114.163 17.42H89.0029V42.58H114.163V17.42ZM96.3848 23.542L100.745 31.677L100.749 36.962H102.426V31.762L106.786 23.542H104.941L102.425 28.658L102.421 28.6639C102.254 28.9139 102.088 29.163 102.005 29.413C101.957 29.606 101.881 29.7436 101.809 29.8737C101.756 29.9695 101.705 30.0612 101.67 30.168C101.628 30.1264 101.607 30.0636 101.586 30.0006C101.565 29.9378 101.544 29.8749 101.502 29.833C101.46 29.749 101.439 29.686 101.418 29.623C101.397 29.56 101.376 29.497 101.334 29.413V29.329L101.25 29.245C101.218 29.181 101.198 29.1292 101.181 29.0849C101.153 29.0136 101.134 28.9618 101.082 28.91C100.998 28.826 100.914 28.742 100.914 28.658L98.3978 23.542H96.3848Z" fill="white"/>
<path d="M124.235 26.265C125.295 26.265 126.215 26.548 126.923 27.115L126.216 27.965C125.579 27.541 124.943 27.258 124.166 27.258C122.963 27.258 122.044 27.895 121.549 29.098C121.266 29.805 121.125 30.725 121.125 31.928C121.125 32.848 121.265 33.626 121.479 34.192C122.045 35.536 122.965 36.172 124.379 36.172C125.157 36.172 125.865 35.96 126.501 35.465L127.208 36.385C126.288 36.951 125.308 37.235 124.238 37.235C122.965 37.235 121.904 36.74 121.055 35.679C120.205 34.679 119.852 33.345 119.852 31.719C119.852 30.093 120.276 28.819 121.125 27.759C121.903 26.839 122.965 26.273 124.238 26.273L124.235 26.265ZM128.267 33.268C128.267 31.995 128.55 31.004 129.187 30.298C129.824 29.592 130.602 29.166 131.592 29.166C132.724 29.166 133.642 29.59 134.28 30.51C134.775 31.217 134.987 32.208 134.987 33.41C134.987 34.825 134.563 35.957 133.784 36.664C133.198 37.1785 132.442 37.456 131.662 37.442C130.602 37.442 129.822 37.088 129.186 36.31C128.549 35.603 128.267 34.542 128.267 33.268ZM133.219 31.218C132.865 30.581 132.369 30.218 131.592 30.218C130.815 30.218 130.319 30.501 129.965 31.068C129.682 31.492 129.611 32.2 129.611 33.118C129.611 34.321 129.751 35.168 130.106 35.665C130.461 36.162 130.956 36.443 131.662 36.443C132.512 36.443 133.077 36.019 133.36 35.24C133.5 34.816 133.572 34.24 133.572 33.542C133.642 32.482 133.502 31.702 133.218 31.208L133.219 31.218ZM137.249 31.358C137.249 30.58 137.179 29.943 136.966 29.458L138.169 29.175C138.381 29.529 138.452 29.953 138.452 30.307V30.377C138.735 30.094 139.018 29.811 139.452 29.599C139.947 29.316 140.372 29.175 140.796 29.175C141.433 29.175 141.999 29.458 142.352 29.953C142.422 30.093 142.564 30.307 142.635 30.448C143.485 29.598 144.262 29.175 145.111 29.175C145.677 29.175 146.171 29.387 146.526 29.741C146.88 30.165 147.092 30.661 147.092 31.227V37.097H145.8V31.297C145.8 30.519 145.446 30.165 144.8 30.165C144.446 30.165 144.022 30.305 143.668 30.589C143.528 30.729 143.244 30.943 142.89 31.226L142.75 31.366V37.096H141.406V31.57C141.406 31.075 141.336 30.72 141.194 30.57C140.982 30.358 140.77 30.287 140.416 30.287C139.85 30.287 139.213 30.641 138.436 31.347V37.147H137.25L137.249 31.358ZM149.276 25.982L150.549 25.699C150.689 26.265 150.761 26.902 150.761 27.679V30.296C151.468 29.589 152.247 29.236 153.025 29.236C153.945 29.236 154.723 29.59 155.218 30.296C155.784 31.003 156.068 31.994 156.068 33.196C156.068 34.469 155.785 35.46 155.218 36.238C154.651 37.016 153.874 37.37 152.954 37.37C152.536 37.3778 152.122 37.2805 151.751 37.087C151.327 36.875 151.044 36.663 150.831 36.38L150.619 37.23H149.416C149.556 36.876 149.628 36.23 149.628 35.25V27.82C149.558 26.97 149.488 26.334 149.274 25.98L149.276 25.982ZM151.326 30.782C151.114 30.922 150.902 31.136 150.76 31.348V35.4C151.255 36.037 151.892 36.32 152.66 36.32C153.297 36.32 153.792 36.108 154.075 35.613C154.429 35.047 154.641 34.269 154.641 33.137C154.641 32.137 154.501 31.439 154.146 31.015C153.863 30.591 153.368 30.378 152.66 30.378C152.236 30.308 151.74 30.448 151.316 30.802L151.326 30.782ZM157.906 26.982C157.906 26.699 157.976 26.487 158.189 26.275C158.402 26.063 158.613 25.992 158.896 25.992C159.179 25.992 159.391 26.062 159.603 26.275C159.815 26.488 159.886 26.699 159.886 26.982C159.886 27.265 159.816 27.477 159.603 27.689C159.39 27.901 159.179 27.972 158.896 27.972C158.613 27.972 158.401 27.902 158.189 27.689C157.977 27.476 157.906 27.265 157.906 26.982ZM158.2 37.16V29.38L159.473 29.168V37.162L158.2 37.16ZM162.222 31.358C162.222 30.792 162.222 30.438 162.152 30.298C162.152 30.086 162.012 29.874 161.869 29.52L163.072 29.166C163.266 29.537 163.363 29.9506 163.355 30.369C164.133 29.591 164.982 29.166 165.831 29.166C166.255 29.166 166.609 29.236 166.963 29.449C167.317 29.662 167.6 29.944 167.741 30.299C167.881 30.582 167.953 30.865 167.953 31.219V37.161H166.75V31.856C166.75 31.219 166.68 30.796 166.467 30.583C166.357 30.4697 166.225 30.3799 166.079 30.319C165.933 30.2582 165.776 30.2276 165.618 30.229C165.335 30.229 164.911 30.369 164.486 30.583C164.093 30.7838 163.735 31.0465 163.425 31.361V37.161H162.222V31.358ZM170.782 31.075L170.145 30.225C171.205 29.518 172.267 29.165 173.399 29.165C174.531 29.165 175.239 29.589 175.592 30.368C175.732 30.651 175.732 31.075 175.732 31.712V32.136L175.662 34.683V35.037C175.662 35.461 175.662 35.744 175.732 35.957C175.802 36.24 176.015 36.452 176.298 36.594L175.661 37.444C175.095 37.232 174.741 36.878 174.601 36.312C173.894 37.019 173.115 37.372 172.337 37.372C171.559 37.372 170.922 37.16 170.437 36.735C170.013 36.381 169.8 35.815 169.8 35.108C169.781 34.7031 169.87 34.3004 170.056 33.9404C170.242 33.5804 170.52 33.2757 170.861 33.057C171.568 32.562 172.629 32.35 173.903 32.35H174.469V31.784C174.469 31.147 174.399 30.724 174.186 30.581C174.052 30.436 173.887 30.3228 173.704 30.2495C173.521 30.1761 173.323 30.1445 173.126 30.157C172.702 30.157 172.206 30.297 171.64 30.511L170.79 31.077L170.782 31.075ZM174.532 35.249L174.602 33.199H173.965C172.833 33.199 172.125 33.411 171.701 33.836C171.418 34.119 171.277 34.543 171.277 35.109C171.277 36.029 171.701 36.524 172.621 36.524C173.023 36.501 173.411 36.3708 173.745 36.1469C174.079 35.923 174.347 35.6136 174.521 35.251L174.532 35.249ZM179.766 29.377H181.746L181.392 30.377H179.765V35.4C179.765 35.824 179.835 36.107 179.977 36.32C180.117 36.46 180.401 36.603 180.755 36.603C181.038 36.603 181.321 36.533 181.533 36.463L181.673 37.241C181.249 37.453 180.823 37.524 180.329 37.524C179.126 37.524 178.561 36.958 178.561 35.756V30.38H177.5V29.38H178.5V29.24C178.5 29.1 178.57 28.533 178.64 27.613V27.4L179.913 27.117C179.773 27.967 179.773 28.744 179.773 29.381L179.766 29.377ZM183.02 33.267C183.02 31.994 183.303 31.003 183.94 30.297C184.506 29.59 185.355 29.165 186.345 29.165C187.477 29.165 188.395 29.589 189.033 30.509C189.528 31.216 189.74 32.207 189.74 33.409C189.74 34.824 189.316 35.956 188.537 36.663C187.951 37.1775 187.195 37.455 186.415 37.441C185.355 37.441 184.575 37.087 183.939 36.309C183.373 35.602 183.02 34.541 183.02 33.267ZM188.043 31.217C187.689 30.58 187.193 30.217 186.416 30.217C185.639 30.217 185.143 30.5 184.789 31.067C184.506 31.491 184.435 32.199 184.435 33.117C184.435 34.32 184.575 35.167 184.93 35.664C185.285 36.161 185.78 36.442 186.486 36.442C187.336 36.442 187.901 36.018 188.184 35.239C188.324 34.815 188.396 34.239 188.396 33.541C188.396 32.481 188.256 31.701 188.042 31.207L188.043 31.217ZM192.073 31.215C192.073 30.508 192.003 29.942 191.79 29.517L192.993 29.163C193.187 29.534 193.284 29.9476 193.276 30.366V30.506C193.913 29.656 194.62 29.233 195.469 29.233C195.609 29.233 195.752 29.233 195.893 29.303L195.398 30.647C195.258 30.577 195.115 30.577 195.044 30.577C194.761 30.577 194.407 30.647 194.124 30.86C193.841 31.073 193.558 31.284 193.417 31.567C193.324 31.8404 193.276 32.1272 193.276 32.416V37.296H192.073V31.215Z" fill="white"/>
</svg>
