<svg width="912" height="121" viewBox="0 0 912 121" fill="none" xmlns="http://www.w3.org/2000/svg">
<g clip-path="url(#clip0_2_153)">
<path d="M168.089 16.4426H156.711V96.0036H204.498V87.0203H168.089V16.4426Z" fill="white"/>
<path d="M255.918 69.298C255.918 73.2382 255.235 76.5722 253.87 79.3C252.504 82.0278 250.625 84.1073 248.24 85.547C245.855 86.9866 243.175 87.7023 240.216 87.7023C235.817 87.7023 232.437 86.3384 230.086 83.6106C227.734 80.8828 226.563 76.8332 226.563 71.4533V38.7197H215.185V72.6993C215.185 78.2307 216.078 82.8107 217.857 86.4478C219.635 90.0849 222.18 92.8127 225.476 94.6312C228.78 96.4498 232.665 97.359 237.14 97.359C241.615 97.359 245.408 96.374 248.746 94.4039C252.083 92.4338 254.628 89.706 256.373 86.2205L257.165 95.9951H267.296V38.7197H255.918V69.2896V69.298Z" fill="white"/>
<path d="M318.715 38.7197L303.587 60.9967L288.568 38.7197H276.28L296.077 67.3616L276.28 96.0035H288.568L303.587 73.6086L318.715 96.0035H330.885L311.088 67.3616L330.885 38.7197H318.715Z" fill="white"/>
<path d="M361.26 28.945C365.205 26.4445 369.874 25.1985 375.251 25.1985C381.243 25.1985 386.005 26.6045 389.528 29.4081C393.051 32.2116 395.385 35.9582 396.523 40.6561H409.039C407.446 32.5484 403.746 26.2593 397.948 21.7887C392.141 17.3182 384.581 15.0871 375.251 15.0871C367.438 15.0871 360.704 16.813 355.057 20.2565C349.41 23.7083 345.045 28.5409 341.977 34.7458C338.909 40.9591 337.367 48.1154 337.367 56.2231C337.367 64.3307 338.901 71.588 341.977 77.7592C345.045 83.9305 349.41 88.7462 355.057 92.1897C360.704 95.6415 367.438 97.359 375.251 97.359C384.581 97.359 392.149 95.1448 397.948 90.7079C403.746 86.271 407.446 80.125 409.039 72.2363H396.523C395.385 76.8584 393.051 80.5207 389.528 83.2064C385.997 85.9006 381.235 87.2392 375.251 87.2392C369.865 87.2392 365.205 86.01 361.26 83.5432C357.316 81.0848 354.282 77.5151 352.158 72.8593C350.034 68.2035 348.972 62.6553 348.972 56.2146C348.972 49.774 350.034 44.2426 352.158 39.6205C354.282 34.9984 357.316 31.4371 361.26 28.9366V28.945Z" fill="white"/>
<path d="M433.168 38.7197H421.791V95.9951H433.168V38.7197Z" fill="white"/>
<path d="M427.589 13.6053C425.389 13.6053 423.586 14.2705 422.187 15.5923C420.788 16.9141 420.08 18.6063 420.08 20.6522C420.08 22.698 420.779 24.5166 422.187 25.8805C423.586 27.2444 425.389 27.9263 427.589 27.9263C429.789 27.9263 431.491 27.2444 432.932 25.8805C434.374 24.5166 435.09 22.7738 435.09 20.6522C435.09 18.5305 434.365 16.9225 432.932 15.5923C431.491 14.2705 429.704 13.6053 427.589 13.6053Z" fill="white"/>
<path d="M465.591 24.4071H455.579L454.213 38.7281H444.319V48.3848H454.213V77.8182C454.213 82.3645 454.93 85.9679 456.371 88.62C457.812 91.272 459.86 93.1663 462.515 94.3029C465.17 95.4395 468.28 96.012 471.845 96.012H481.284V86.3552H474.685C471.348 86.3552 468.996 85.7659 467.631 84.5956C466.265 83.4169 465.583 81.2027 465.583 77.9445V48.3933H481.849V38.7365H465.583V24.4155L465.591 24.4071Z" fill="white"/>
<path d="M505.405 38.7197H494.027V95.9951H505.405V38.7197Z" fill="white"/>
<path d="M499.834 13.6053C497.634 13.6053 495.831 14.2705 494.432 15.5923C493.033 16.9141 492.325 18.6063 492.325 20.6522C492.325 22.698 493.024 24.5166 494.432 25.8805C495.831 27.2444 497.634 27.9263 499.834 27.9263C502.034 27.9263 503.736 27.2444 505.177 25.8805C506.619 24.5166 507.335 22.7738 507.335 20.6522C507.335 18.5305 506.61 16.9225 505.177 15.5923C503.736 14.2705 501.95 13.6053 499.834 13.6053Z" fill="white"/>
<path d="M560.584 48.0397V38.7197H517.238V48.267H547.613L516.783 86.793V96.0035H561.149V86.5657H529.636L560.584 48.0397Z" fill="white"/>
<path d="M613.25 41.1107C609.23 38.6102 604.418 37.3642 598.805 37.3642C593.192 37.3642 588.261 38.6355 584.013 41.1697C579.766 43.7122 576.445 47.2314 574.06 51.7357C571.666 56.2399 570.478 61.5272 570.478 67.5889C570.478 73.6507 571.675 78.6854 574.06 83.1559C576.445 87.6265 579.766 91.112 584.013 93.6125C588.261 96.113 593.116 97.359 598.577 97.359C603.052 97.359 607.014 96.5592 610.469 94.968C613.916 93.3768 616.824 91.1962 619.175 88.4348C621.527 85.6733 623.195 82.5498 624.182 79.0558H612.804C611.666 81.7836 609.921 83.9473 607.57 85.5386C605.218 87.1298 602.226 87.9212 598.586 87.9212C595.551 87.9212 592.745 87.1803 590.166 85.7069C587.587 84.2336 585.522 82.0278 583.963 79.1148C582.631 76.6227 581.991 73.5413 581.797 70.081H625.656C625.732 69.0202 625.791 68.052 625.825 67.1848C625.859 66.3176 625.876 65.501 625.876 64.7433C625.876 59.7423 624.772 55.1791 622.58 51.0453C620.381 46.9199 617.271 43.6028 613.25 41.1023V41.1107ZM581.957 62.0155C582.277 59.3719 582.842 56.9556 583.963 55.0276C585.514 52.3334 587.587 50.296 590.166 48.89C592.745 47.4924 595.585 46.7852 598.704 46.7852C603.103 46.7852 606.778 48.1323 609.736 50.818C612.694 53.5121 614.287 57.2334 614.515 62.0155H581.965H581.957Z" fill="white"/>
<path d="M679.234 40.092C675.972 38.2735 672.07 37.3642 667.519 37.3642C662.968 37.3642 659.361 38.3661 656.023 40.3783C652.685 42.3904 650.107 45.093 648.286 48.5027L647.603 38.7281H637.363V96.0036H648.741V65.4336C648.741 61.4935 649.441 58.1595 650.848 55.4317C652.247 52.7039 654.127 50.6412 656.478 49.2352C658.83 47.8376 661.484 47.1304 664.443 47.1304C668.918 47.1304 672.331 48.4943 674.683 51.2221C677.034 53.9499 678.206 57.9659 678.206 63.2699V96.0036H689.584V62.1417C689.584 56.6104 688.673 52.0051 686.853 48.3343C685.032 44.6552 682.487 41.919 679.234 40.1004V40.092Z" fill="white"/>
<path d="M737.253 64.8611C734.067 63.7245 730.468 62.7816 726.448 62.0155C723.641 61.4093 721.273 60.7442 719.335 60.0285C717.396 59.3129 715.938 58.4205 714.952 57.3597C713.966 56.2989 713.477 55.0865 713.477 53.7226C713.477 51.601 714.345 49.9003 716.09 48.6038C717.834 47.3156 720.337 46.6673 723.599 46.6673C726.861 46.6673 729.473 47.3746 731.446 48.7721C733.418 50.1697 734.556 52.1651 734.859 54.7329H745.9C745.217 49.2015 742.941 44.9246 739.073 41.8937C735.205 38.8628 730.08 37.3474 723.717 37.3474C719.318 37.3474 715.508 38.0882 712.28 39.5616C709.061 41.0349 706.574 43.0892 704.83 45.6991C703.085 48.3175 702.217 51.2558 702.217 54.5056C702.217 57.2334 702.782 59.5318 703.92 61.384C705.057 63.2447 706.591 64.7769 708.53 65.9893C710.468 67.2016 712.668 68.2035 715.129 69.0033C717.59 69.7947 720.152 70.4262 722.807 70.8808C725.613 71.4112 728.015 72.0006 730.03 72.6404C732.036 73.2803 733.553 74.1559 734.581 75.2588C735.609 76.3617 736.115 77.9697 736.115 80.0829C736.115 81.5226 735.736 82.8697 734.977 84.1157C734.218 85.3618 733.022 86.3468 731.395 87.0708C729.76 87.7865 727.695 88.1485 725.192 88.1485C722.537 88.1485 720.245 87.6939 718.306 86.7846C716.368 85.8753 714.851 84.663 713.755 83.1475C712.651 81.6321 711.918 79.9651 711.539 78.1465H699.933C700.388 82.0109 701.678 85.387 703.802 88.2664C705.925 91.1457 708.808 93.3768 712.449 94.968C716.09 96.5592 720.337 97.359 725.192 97.359C730.047 97.359 733.822 96.6013 737.194 95.0859C740.565 93.5704 743.177 91.4488 745.04 88.721C746.903 85.9932 747.788 82.8528 747.712 79.2915C747.712 75.1998 746.759 72.0595 744.863 69.8621C742.967 67.6647 740.421 65.9977 737.236 64.8611H737.253Z" fill="white"/>
<path d="M802.216 40.1425C798.955 38.2903 795.052 37.3558 790.493 37.3558C786.397 37.3558 782.663 38.3071 779.283 40.2014C775.912 42.0958 773.274 44.7057 771.378 48.0397V14.1779H760V96.0036H771.378V65.6609C771.378 61.7208 772.094 58.37 773.535 55.6085C774.977 52.8386 776.907 50.7422 779.334 49.3025C781.761 47.8629 784.492 47.1472 787.526 47.1472C792.001 47.1472 795.373 48.528 797.648 51.2979C799.924 54.0678 801.061 58.1342 801.061 63.5141V96.0204H812.321V62.268C812.321 56.7367 811.453 52.1398 809.709 48.4606C807.964 44.7815 805.461 42.02 802.199 40.1593L802.216 40.1425Z" fill="white"/>
<path d="M832.363 13.6053C830.164 13.6053 828.36 14.2705 826.961 15.5923C825.562 16.9141 824.854 18.6063 824.854 20.6522C824.854 22.698 825.554 24.5166 826.961 25.8805C828.369 27.2444 830.164 27.9263 832.363 27.9263C834.563 27.9263 836.266 27.2444 837.707 25.8805C839.148 24.5166 839.864 22.7738 839.864 20.6522C839.864 18.5305 839.14 16.9225 837.707 15.5923C836.266 14.2705 834.479 13.6053 832.363 13.6053Z" fill="white"/>
<path d="M837.942 38.7197H826.564V95.9951H837.942V38.7197Z" fill="white"/>
<path d="M908.527 52.0724C906.218 47.5682 902.99 43.9901 898.86 41.3296C894.731 38.686 889.935 37.3558 884.465 37.3558C881.052 37.3558 878.077 37.8525 875.54 38.8375C872.995 39.8226 870.82 41.0939 869 42.643C867.179 44.2005 865.662 45.8507 864.449 47.585L863.311 38.7197H853.071V121H864.449V87.2476C866.421 90.4301 869.109 92.9137 872.523 94.6902C875.936 96.4666 879.88 97.359 884.356 97.359C889.817 97.359 894.613 96.0709 898.751 93.4947C902.881 90.9184 906.125 87.3739 908.477 82.8697C910.828 78.3654 912 73.2298 912 67.4711C912 61.7124 910.845 56.5767 908.527 52.0724ZM898.178 77.9276C896.619 80.9585 894.495 83.3075 891.806 84.9745C889.109 86.6415 886.025 87.475 882.535 87.475C879.046 87.475 875.835 86.6415 873.146 84.9745C870.449 83.3075 868.351 80.9585 866.834 77.9276C865.317 74.8968 864.558 71.3776 864.558 67.3616C864.558 63.3457 865.317 59.8433 866.834 56.8461C868.351 53.8489 870.458 51.5084 873.146 49.7993C875.835 48.0986 878.962 47.2483 882.535 47.2483C886.109 47.2483 889.109 48.0986 891.806 49.7993C894.495 51.5084 896.619 53.8573 898.178 56.8461C899.728 59.8349 900.504 63.3373 900.504 67.3616C900.504 71.386 899.728 74.9052 898.178 77.9276Z" fill="white"/>
<path d="M74.7906 29.7869L3.00882 22.4875L0 0L71.6806 7.26573L74.7906 29.7869Z" fill="#DB0E27"/>
<path d="M109.7 55.4064L77.8247 52.1819L74.7063 29.6522L106.665 32.9609L109.7 55.4064Z" fill="#DB0E27"/>
<path d="M80.9179 74.6778L9.13613 67.3784L6.13574 44.8909L77.8079 52.1566L80.9179 74.6778Z" fill="#20A9D3"/>
<path d="M115.835 100.297L83.9518 97.0728L80.8418 74.5432L112.793 77.8519L115.835 100.297Z" fill="#20A9D3"/>
</g>
<defs>
<clipPath id="clip0_2_153">
<rect width="912" height="121" fill="white"/>
</clipPath>
</defs>
</svg>
