<svg xmlns="http://www.w3.org/2000/svg" width="100%" viewBox="0 0 102 28" fill="none" class="logo"><g clip-path="url(#clip0_1674_5446)"><g clip-path="url(#clip1_1674_5446)"><path d="M25.624 25.668H21.7261C21.1478 25.6662 20.5934 25.4298 20.1827 25.0097C19.772 24.5896 19.5379 24.0197 19.531 23.4229L19.4081 9.76854C18.3994 9.86378 17.43 10.2193 16.5892 10.8025C15.7485 11.3856 15.0634 12.1777 14.5969 13.1056L8.88232 24.4482C8.6974 24.8164 8.41785 25.125 8.0743 25.3402C7.73074 25.5553 7.33644 25.6687 6.93458 25.668H2.19546C1.80903 25.6679 1.42947 25.5626 1.0951 25.3627C0.760735 25.1627 0.483408 24.8753 0.291131 24.5294C0.098854 24.1835 -0.00156424 23.7913 1.84223e-05 23.3925C0.00160108 22.9937 0.105129 22.6024 0.300145 22.2582L10.6548 3.992C11.1434 3.13375 11.8405 2.42186 12.6772 1.92661C13.5139 1.43136 14.4613 1.16987 15.4258 1.16797V1.16797C16.8817 1.17274 18.2774 1.76831 19.3113 2.82603C20.3453 3.88375 20.9347 5.31875 20.9521 6.8211L20.9644 8.18789C22.6069 8.40662 24.1421 9.14958 25.3554 10.3129C26.8739 11.76 27.7438 13.6889 27.8052 15.7462V15.7699L27.8175 23.3452C27.8248 23.6474 27.7735 23.9481 27.6664 24.2296C27.5594 24.5111 27.3989 24.7676 27.1943 24.984C26.9898 25.2005 26.7453 25.3725 26.4754 25.49C26.2054 25.6074 25.9154 25.6679 25.6224 25.668H25.624ZM20.9799 9.82771L21.0987 23.4086C21.1008 23.5791 21.1678 23.7418 21.2852 23.8619C21.4025 23.9819 21.5609 24.0495 21.7261 24.0501H25.624C25.7081 24.0501 25.7912 24.0326 25.8686 23.9987C25.946 23.9649 26.016 23.9154 26.0745 23.8531C26.133 23.7909 26.1788 23.7171 26.2092 23.6362C26.2396 23.5554 26.254 23.4691 26.2514 23.3824V23.3587L26.2383 15.7851C26.1441 12.8394 23.8311 10.318 20.9799 9.82771ZM15.4258 2.78665C14.7349 2.788 14.0562 2.97527 13.4568 3.33C12.8574 3.68472 12.358 4.19462 12.0079 4.80937L1.65406 23.0755C1.59826 23.1739 1.56861 23.2857 1.56811 23.3997C1.5676 23.5137 1.59627 23.6258 1.6512 23.7247C1.70613 23.8236 1.78539 23.9057 1.88096 23.9629C1.97652 24.02 2.08501 24.0501 2.19546 24.0501H6.93458C7.04945 24.0505 7.16218 24.0181 7.26032 23.9565C7.35846 23.8949 7.4382 23.8065 7.49073 23.701L13.2094 12.3593C13.8066 11.1704 14.6887 10.159 15.7717 9.42149C16.8547 8.68392 18.1026 8.2447 19.3967 8.14563L19.3852 6.83547C19.3727 5.75936 18.9506 4.73151 18.2099 3.97394C17.4692 3.21638 16.4695 2.7899 15.4267 2.78665H15.4258Z" fill="#ffffff"></path></g><path d="M37.0957 22.1134C37.0957 17.606 42.4625 17.9776 46.4615 17.9776V16.6518C46.4615 14.7434 45.3298 13.4711 43.2255 13.4711C41.0948 13.4711 39.6474 14.6602 39.3848 16.8638L37.6218 16.7628C37.964 13.5811 40.3583 11.8848 43.2265 11.8848C46.3042 11.8848 48.2511 13.7407 48.2511 16.8163V25.4061H46.8824L46.6719 22.9061H46.3563C45.6985 24.5757 44.0151 25.6627 41.5382 25.6627C38.7752 25.6627 37.0918 24.2051 37.0918 22.1105L37.0957 22.1134ZM46.4576 19.9098V19.3271C43.0377 19.3271 38.9335 19.0883 38.9335 21.9509C38.9335 23.2499 39.8804 24.1516 41.8833 24.1516C44.7506 24.1516 46.4605 22.3225 46.4605 19.9098" fill="#ffffff"></path><path d="M51.4862 21.8221V5.25195H53.2758V21.7993C53.2758 23.4164 54.091 23.894 55.091 23.894C55.5492 23.9031 56.0072 23.8676 56.4587 23.788V25.3516C55.7488 25.4843 55.4331 25.5369 54.854 25.5369C52.7498 25.5369 51.4862 24.2646 51.4862 21.8261" fill="#ffffff"></path><path d="M58.6428 6.7104H60.8522V8.93488H58.6428V6.7104ZM58.8532 12.1453H60.6418V25.401H58.8532V12.1453Z" fill="#ffffff"></path><path d="M63.9565 12.1452H65.7717V13.2054L65.6173 14.77H65.986C67.0676 12.9399 68.696 12.0124 70.695 12.0124C73.3263 12.0124 75.1414 13.7088 75.1414 17.2878V25.401H73.3518V17.5801C73.3518 14.4777 71.8769 13.6295 70.0903 13.6295C67.9064 13.6295 65.7756 15.3526 65.7756 18.8256V25.401H63.9565V12.1452Z" fill="#ffffff"></path><path d="M77.3185 18.799C77.3185 14.7166 79.6597 11.8798 83.2645 11.8798C86.8426 11.8798 89.0786 14.6106 89.0786 18.799C89.0831 18.9587 89.0742 19.1184 89.0521 19.2766H80.9567L79.0885 19.2498C79.1937 22.272 80.7984 24.105 83.4031 24.105C85.4287 24.105 86.823 23.0151 87.3225 21.1087L88.9803 21.294C88.2694 24.0783 86.2438 25.6686 83.4031 25.6686C79.8771 25.6686 77.3254 23.1241 77.3254 18.802L77.3185 18.799ZM80.9823 17.7952H85.4552L87.3235 17.8478C87.1131 14.9049 85.4552 13.4473 83.2723 13.4473C81.0619 13.4473 79.3254 14.9584 79.1425 17.8478L80.9823 17.7952Z" fill="#ffffff"></path><path d="M90.8445 22.1134C90.8445 17.606 96.2113 17.9776 100.209 17.9776V16.6518C100.209 14.7434 99.0786 13.4711 96.9733 13.4711C94.8425 13.4711 93.3961 14.6602 93.1326 16.8638L91.3705 16.7628C91.7118 13.5811 94.1061 11.8848 96.9753 11.8848C100.054 11.8848 102.001 13.7407 102.001 16.8163V25.4061H100.633L100.426 22.9061H100.109C99.4522 24.5757 97.7678 25.6627 95.2909 25.6627C92.5289 25.6627 90.8455 24.2051 90.8455 22.1105L90.8445 22.1134ZM100.21 19.9098V19.3271C96.7904 19.3271 92.6862 19.0883 92.6862 21.9509C92.6862 23.2499 93.6341 24.1516 95.6361 24.1516C98.5033 24.1516 100.213 22.3225 100.213 19.9098" fill="#ffffff"></path></g></svg>