<svg xmlns="http://www.w3.org/2000/svg" width="100%" viewBox="0 0 117 24" fill="none" class="logo">
<path d="M112.03 8.59436V6.21522H110.971V5.81201H113.514V6.21522H112.458V8.59436H112.03Z" fill="white"/>
<path d="M113.769 8.59436V5.81201H114.357L115.132 7.42312L115.376 8.00088H115.408L115.644 7.42312L116.41 5.81201H117V8.59436H116.567V6.88725L116.582 6.48403H116.55L116.385 6.88725L115.643 8.42679H115.121L114.379 6.88725L114.214 6.48403H114.182L114.199 6.88725V8.59436H113.765H113.769Z" fill="white"/>
<path d="M22.386 10.1938C22.386 15.3675 18.6451 19.6544 13.8131 20.309C13.6276 20.3334 13.4623 20.1798 13.4623 19.9861V12.0999C13.4623 11.9899 13.4083 11.8869 13.3172 11.8258L5.96543 6.98553C5.86255 6.91746 5.73269 6.91746 5.6298 6.98553L0.480676 10.3683C0.273227 10.5045 0 10.3509 0 10.0943V0.32292C0 0.144878 0.139987 0 0.312018 0H12.5279C17.9638 0 22.3843 4.57498 22.3843 10.1955L22.386 10.1938Z" fill="white"/>
<path d="M28.9946 20.3488V5.95703H35.0342C39.2068 5.95703 41.8632 8.74985 41.8632 13.152C41.8632 17.5542 39.2068 20.3488 35.0342 20.3488H28.9946ZM30.4889 7.35344V18.9524H35.0342C38.5625 18.9524 40.3065 17.062 40.3065 13.152C40.3065 9.24208 38.5625 7.35344 35.0342 7.35344H30.4889Z" fill="white"/>
<path d="M43.2934 15.0425C43.2934 11.8203 45.5146 9.52319 48.8557 9.52319C52.1969 9.52319 54.4383 11.822 54.4383 15.0425C54.4383 18.263 52.2171 20.5635 48.8557 20.5635C45.4944 20.5635 43.2934 18.2647 43.2934 15.0425ZM52.9862 15.0425C52.9862 12.4871 51.6791 10.8969 48.8557 10.8969C46.0324 10.8969 44.7455 12.4871 44.7455 15.0425C44.7455 17.5979 46.0324 19.1881 48.8557 19.1881C51.6791 19.1881 52.9862 17.6206 52.9862 15.0425Z" fill="white"/>
<path d="M56.3861 20.3489V9.73789H57.7151V12.6372H57.8197C58.1317 10.9405 59.2938 9.52319 61.4307 9.52319C63.7969 9.52319 64.8342 11.3281 64.8342 13.304V14.3565H63.3601V13.5396C63.3601 11.7348 62.6332 10.855 60.8488 10.855C58.7726 10.855 57.8602 12.2095 57.8602 14.5939V20.3506H56.3861V20.3489Z" fill="white"/>
<path d="M65.9948 15.0425C65.9948 11.8203 68.216 9.52319 71.5571 9.52319C74.8982 9.52319 77.1397 11.822 77.1397 15.0425C77.1397 18.263 74.9184 20.5635 71.5571 20.5635C68.1957 20.5635 65.9948 18.2647 65.9948 15.0425ZM75.6875 15.0425C75.6875 12.4871 74.3804 10.8969 71.5571 10.8969C68.7338 10.8969 67.4469 12.4871 67.4469 15.0425C67.4469 17.5979 68.7338 19.1881 71.5571 19.1881C74.3804 19.1881 75.6875 17.6206 75.6875 15.0425Z" fill="white"/>
<path d="M83.1573 20.3486C81.1233 20.3486 79.8162 19.4671 79.8162 16.9762V11.0485H77.9896V9.73761H79.8162V7.20312H81.3105V9.73761H85.3785V11.0485H81.3105V17.0618C81.3105 18.5437 82.0155 18.9522 83.5098 18.9522H85.3768V20.3486H83.1556H83.1573Z" fill="white"/>
<path d="M86.9941 20.349V5.95728H88.4682V12.9812H88.5728C88.905 11.1973 90.2341 9.52335 92.8483 9.52335C95.7121 9.52335 97.144 11.4993 97.144 14.1839V20.349H95.6699V14.3776C95.6699 11.9496 94.5703 10.918 92.2664 10.918C89.5274 10.918 88.4682 12.7229 88.4682 15.3656V20.349H86.9941Z" fill="white"/>
<path d="M99.6318 24.0001V22.6037H101.188C102.226 22.6037 102.62 22.2808 103.015 21.401L103.513 20.3276L98.4276 9.73755H100.047L103.056 16.0528L104.197 18.6519H104.322L105.422 16.0319L108.265 9.73755H109.884L104.322 21.8304C103.575 23.4625 102.62 24.0001 100.919 24.0001H99.6318Z" fill="white"/>
</svg>